<?xml version="1.0" standalone="no"?>
<!DOCTYPE svg PUBLIC "-//W3C//DTD SVG 20010904//EN"
 "http://www.w3.org/TR/2001/REC-SVG-20010904/DTD/svg10.dtd">
<svg version="1.0" xmlns="http://www.w3.org/2000/svg"
 width="700.000000pt" height="700.000000pt" viewBox="0 0 700.000000 700.000000"
 preserveAspectRatio="xMidYMid meet">
<metadata>
Created by potrace 1.11, written by Peter Selinger 2001-2013
</metadata>
<g transform="translate(0.000000,700.000000) scale(0.100000,-0.100000)"
fill="#000000" stroke="none">
<path d="M3298 6995 c-2 -2 -45 -6 -97 -9 -52 -4 -97 -8 -100 -10 -3 -2 -33
-7 -66 -10 -33 -3 -71 -8 -85 -11 -28 -5 -131 -24 -170 -31 -64 -12 -297 -77
-401 -113 -504 -174 -950 -454 -1334 -836 -257 -255 -438 -494 -611 -805 -195
-350 -341 -777 -394 -1155 -6 -44 -13 -93 -15 -110 -26 -180 -26 -673 -1 -800
2 -11 7 -47 11 -79 28 -247 127 -606 240 -871 246 -576 645 -1083 1150 -1461
332 -249 736 -449 1130 -560 50 -14 97 -27 105 -29 8 -2 35 -8 60 -14 133 -33
330 -65 486 -78 165 -14 664 -6 693 11 3 2 33 6 66 10 33 3 71 8 85 11 14 2
54 9 90 15 154 26 504 129 645 189 22 10 60 26 85 36 87 37 300 145 377 191
714 427 1250 1062 1532 1817 73 193 142 445 167 602 4 28 9 57 10 65 2 8 6 40
10 70 3 30 7 57 9 60 17 29 26 523 12 700 -8 96 -30 264 -48 355 -6 28 -12 61
-15 75 -18 99 -122 446 -153 515 -6 11 -28 65 -51 120 -69 165 -256 513 -282
523 -4 2 -8 8 -8 13 0 22 -157 233 -280 378 -122 144 -361 373 -487 468 -26
20 -50 40 -53 43 -20 23 -240 171 -375 251 -109 64 -367 188 -495 237 -184 71
-467 150 -630 176 -19 3 -45 8 -56 10 -42 9 -158 24 -239 32 -58 6 -512 14
-517 9z m928 -1420 c149 -47 382 -190 489 -300 183 -187 300 -431 350 -730 25
-151 25 -439 0 -575 -1 -8 -6 -35 -11 -60 -4 -25 -8 -47 -9 -50 -77 -297 -217
-532 -421 -704 -34 -28 -71 -58 -84 -66 -12 -8 -32 -23 -44 -32 -39 -29 -229
-125 -283 -143 -29 -9 -53 -20 -53 -24 0 -4 94 -146 209 -316 115 -171 285
-422 378 -560 92 -137 170 -252 173 -255 14 -14 289 -429 292 -440 2 -11 -98
-13 -540 -14 -299 -1 -549 2 -555 6 -6 3 -11 15 -12 26 -1 11 -66 113 -146
226 -79 114 -224 320 -321 459 -97 138 -196 280 -220 315 -24 35 -54 78 -68
97 -14 18 -68 95 -120 170 -52 76 -103 140 -112 144 -9 3 -314 6 -678 5 -363
0 -659 3 -658 7 2 3 21 28 43 54 22 26 80 96 128 154 49 58 96 115 105 126 10
11 51 61 92 110 41 50 84 101 96 115 12 14 68 80 123 148 56 67 105 122 109
123 4 0 237 2 517 3 281 2 520 6 531 9 12 3 37 8 55 11 57 9 163 44 214 71
125 67 195 137 250 249 44 90 62 178 59 286 -7 266 -131 442 -374 530 -71 27
-204 57 -223 52 -13 -4 2 17 70 99 58 69 219 264 473 573 76 92 108 125 120
120 8 -3 34 -12 56 -19z"/>
</g>
</svg>
