<?xml version="1.0" standalone="no"?>
<!DOCTYPE svg PUBLIC "-//W3C//DTD SVG 1.1//EN" "http://www.w3.org/Graphics/SVG/1.1/DTD/svg11.dtd" >
<svg xmlns="http://www.w3.org/2000/svg" xmlns:xlink="http://www.w3.org/1999/xlink" version="1.1">
<metadata>
Created by FontForge 20170731 at Sun Dec 17 01:58:05 2017
 By ,,,
Copyright (c) 2017 by Nicolas Desle. All rights reserved.
</metadata>
<defs>
<font id="Brasley-Medium" horiz-adv-x="590" >
  <font-face 
    font-family="Brasley Medium"
    font-weight="500"
    font-stretch="normal"
    units-per-em="1000"
    panose-1="0 0 0 0 0 0 0 0 0 0"
    ascent="750"
    descent="-250"
    x-height="521"
    cap-height="752"
    bbox="-2 -251.036 1236 956"
    underline-thickness="50"
    underline-position="-200"
    unicode-range="U+000D-FB04"
  />
<missing-glyph horiz-adv-x="500" 
 />
    <glyph glyph-name="ff" unicode="ff" horiz-adv-x="749" 
d="M625 689q-93 0 -93 -117v-68h148v-72h-148v-432h-84v432h-249v-432h-85v432h-66v72h66v111q0 70 44.5 110.5t117.5 40.5q55 0 91 -21l-21 -66q-32 10 -55 10q-92 0 -92 -117v-68h249v111q0 70 44.5 110.5t118.5 40.5q54 0 90 -21l-22 -66q-30 10 -54 10z" />
    <glyph glyph-name="fi" unicode="fi" horiz-adv-x="666" 
d="M574 504v-504h-85v432h-260v-432h-85v432h-67v72h67v111q0 71 44.5 111.5t117.5 40.5q51 0 91 -21l-21 -67q-30 10 -55 10q-92 0 -92 -116v-69h345zM531 767q-24 0 -41 -17.5t-17 -40.5q0 -24 17 -41t41 -17t41 17t17 41q0 23 -17 40.5t-41 17.5z" />
    <glyph glyph-name="fl" unicode="fl" horiz-adv-x="650" 
d="M572 753v-753h-85v432h-257v-432h-85v432h-67v72h67v111q0 70 44.5 111t118.5 41q50 0 90 -21l-21 -67q-30 10 -56 10q-91 0 -91 -116v-69h257v249h85z" />
    <glyph glyph-name="ffi" unicode="ffi" horiz-adv-x="999" 
d="M565 505h345v-505h-84v433h-261v-433h-84v433h-258v-433h-84v433h-67v72h67v111q0 70 44 110.5t118 40.5q54 0 90 -21l-21 -66q-27 9 -54 9q-93 0 -93 -116v-68h258v111q0 70 44 110.5t117 40.5q56 0 92 -21l-22 -66q-27 9 -54 9q-93 0 -93 -116v-68zM868 767
q24 0 41 -17t17 -41t-17 -41t-41 -17t-41 17t-17 41t17 41t41 17z" />
    <glyph glyph-name="ffl" unicode="ffl" horiz-adv-x="981" 
d="M902 753v-753h-84v432h-257v-432h-85v432h-247v-432h-84v432h-67v72h67v111q0 71 44 111.5t118 40.5q50 0 90 -21l-20 -67q-32 10 -56 10q-92 0 -92 -116v-69h247v111q0 70 44.5 111t117.5 41q50 0 90 -21l-20 -67q-30 10 -56 10q-91 0 -91 -116v-69h257v249h84z" />
    <glyph glyph-name=".notdef" horiz-adv-x="500" 
 />
    <glyph glyph-name=".null" horiz-adv-x="0" 
 />
    <glyph glyph-name="nonmarkingreturn" horiz-adv-x="333" 
 />
    <glyph glyph-name="CR" unicode="&#xd;" horiz-adv-x="500" 
 />
    <glyph glyph-name="space" unicode=" " horiz-adv-x="247" 
 />
    <glyph glyph-name="exclam" unicode="!" horiz-adv-x="266" 
d="M180 767h-95l14 -617h68zM132 100q-23 0 -39 -16.5t-16 -39.5t16 -39.5t39 -16.5q24 0 40 16.5t16 39.5t-16 39.5t-40 16.5z" />
    <glyph glyph-name="quotedbl" unicode="&#x22;" horiz-adv-x="497" 
d="M109 623q0 -20 2 -30l32 -206h41l32 207q2 5 2 28q0 21 -16.5 36t-37.5 15t-38 -15t-17 -35zM279 623q0 -15 3 -30l31 -206h42l31 207q2 5 2 28q0 21 -16.5 36t-37.5 15t-38 -15t-17 -35z" />
    <glyph glyph-name="numbersign" unicode="#" horiz-adv-x="818" 
d="M602 443l-43 -204h163v-78h-180l-35 -161h-78l35 161h-203l-34 -161h-79l34 161h-144v78h162l42 204l-146 -1v79h164l34 162h79l-35 -162h203l34 162h78l-34 -162h161v-78h-178zM524 443h-203l-44 -204h204z" />
    <glyph glyph-name="dollar" unicode="$" horiz-adv-x="609" 
d="M348 375q108 -26 163 -67t55 -122q0 -83 -56 -136t-162 -61v-105h-84v106q-98 12 -156.5 69.5t-64.5 139.5h79q7 -45 42 -82t100 -47v247q-117 30 -166.5 70t-48.5 111q1 78 55.5 131t159.5 61v105h84v-106q91 -11 148 -66.5t68 -142.5h-79q-8 49 -43 84.5t-94 45.5v-235
zM264 614q-69 -7 -102 -40t-33 -75q0 -38 30.5 -60.5t104.5 -42.5v218zM348 67q70 6 104 39.5t34 75.5q0 46 -37.5 71.5t-100.5 42.5v-229z" />
    <glyph glyph-name="percent" unicode="%" horiz-adv-x="958" 
d="M227 766q78 0 129.5 -52.5t51.5 -132.5q0 -81 -51.5 -133.5t-129.5 -52.5t-130 52.5t-52 133.5q0 80 52 132.5t130 52.5zM803 753h-78l-570 -753h77zM227 457q51 0 83 34.5t32 89.5q0 54 -32 88t-83 34t-83 -34t-32 -88q0 -55 32 -89.5t83 -34.5zM731 358
q78 0 129.5 -52.5t51.5 -132.5t-52 -133t-129 -53q-78 0 -130 53t-52 133t52 132.5t130 52.5zM731 295q-52 0 -84 -34t-32 -89q0 -54 32 -88.5t84 -34.5q50 0 82.5 34.5t32.5 88.5q0 55 -32 89t-83 34z" />
    <glyph glyph-name="ampersand" unicode="&#x26;" horiz-adv-x="752" 
d="M691 0h-109q-66 69 -95 100q-7 -9 -24 -27q-91 -89 -200 -89q-78 0 -140 52t-62 133q0 17 2.5 34t6.5 30.5t11 27.5t12.5 23.5t15.5 21t15.5 17.5t15.5 15t13.5 12t12.5 10l10 7l34 25l-26 28q-87 87 -87 173q0 67 48 118.5t140 51.5q51 0 90.5 -16.5t61.5 -43t32.5 -55
t10.5 -56.5q0 -80 -73 -138q-13 -13 -85 -68l166 -175l75 83h98l-121 -136zM287 694q-45 0 -76.5 -30.5t-31.5 -73.5q0 -25 14.5 -54t28 -45t25.5 -27l25 -26q8 7 36 28t35 27q58 52 58 104q0 39 -33 68t-81 29zM414 131q18 18 21 24l-174 183q-14 -7 -32 -25
q-46 -35 -65.5 -65t-19.5 -71q0 -51 39 -84.5t85 -33.5q74 0 146 72z" />
    <glyph glyph-name="quotesingle" unicode="'" horiz-adv-x="251" 
d="M71 623q0 -15 3 -30l31 -206h42l31 207q2 5 2 28q0 21 -16.5 36t-37.5 15t-38 -15t-17 -35z" />
    <glyph glyph-name="parenleft" unicode="(" horiz-adv-x="373" 
d="M264 908q-100 -104 -156 -241t-56 -290t56 -290t156 -241l57 49q-89 93 -141 218.5t-52 263.5t52 263.5t141 218.5z" />
    <glyph glyph-name="parenright" unicode=")" horiz-adv-x="373" 
d="M52 859q89 -93 141 -218.5t52 -263.5t-52 -263.5t-141 -218.5l57 -49q100 104 156 241t56 290t-56 290t-156 241z" />
    <glyph glyph-name="asterisk" unicode="*" horiz-adv-x="496" 
d="M309 548l100 -116l-70 -52l-88 124l-90 -126l-69 52l98 114l-148 43l27 82l142 -56l-8 154h87l-7 -151l143 57l27 -82z" />
    <glyph glyph-name="plus" unicode="+" horiz-adv-x="537" 
d="M511 274h-200v-200h-84v200h-201v85h201v200h84v-200h200v-85z" />
    <glyph glyph-name="comma" unicode="," horiz-adv-x="277" 
d="M149 111q63 0 63 -84q0 -13 -2.5 -29.5t-11.5 -43.5t-24 -49t-43.5 -42t-66.5 -26v45q25 8 54.5 43t32.5 73q-25 0 -42 17t-17 40t17 39.5t40 16.5z" />
    <glyph glyph-name="hyphen" unicode="-" horiz-adv-x="482" 
d="M61 360v-88h359v88h-359z" />
    <glyph glyph-name="period" unicode="." horiz-adv-x="261" 
d="M187 55q0 24 -16.5 40.5t-39.5 16.5q-24 0 -40.5 -16.5t-16.5 -40.5q0 -23 16.5 -39.5t40.5 -16.5q23 0 39.5 16.5t16.5 39.5z" />
    <glyph glyph-name="slash" unicode="/" horiz-adv-x="567" 
d="M525 753h-87l-396 -753h87z" />
    <glyph glyph-name="zero" unicode="0" horiz-adv-x="671" 
d="M335 711q129 0 208.5 -101.5t79.5 -258.5q0 -158 -79.5 -259.5t-208.5 -101.5q-128 0 -207.5 101.5t-79.5 259.5q0 157 79.5 258.5t207.5 101.5zM335 69q96 0 152 78.5t56 203.5t-56 203t-152 78t-151 -78t-55 -203t55 -203.5t151 -78.5z" />
    <glyph glyph-name="one" unicode="1" horiz-adv-x="317" 
d="M87 572q39 0 65 24.5t26 62.5v38h79v-697h-79v493h-118v79h27z" />
    <glyph glyph-name="two" unicode="2" horiz-adv-x="548" 
d="M488 510q0 -50 -21.5 -96t-57.5 -85.5t-74.5 -76t-80 -83t-66.5 -90.5h287v-79h-416q17 76 99 177q39 48 105 117t82 89q57 72 56 131q0 49 -33.5 81.5t-89.5 32.5q-58 0 -92.5 -36t-38.5 -101h-81q0 87 55.5 152.5t157.5 65.5q94 0 151.5 -57.5t57.5 -141.5z" />
    <glyph glyph-name="three" unicode="3" horiz-adv-x="581" 
d="M322 424q92 -10 151 -64.5t59 -139.5q0 -40 -13 -79t-39.5 -74t-74.5 -56.5t-111 -21.5q-58 0 -103.5 18t-73.5 47.5t-44 59.5t-24 63l82 20q11 -51 50 -90t111 -39q75 0 117.5 43.5t42.5 104.5q0 59 -42.5 95t-110.5 39q-18 1 -38.5 -2t-34 -5.5t-15.5 -2.5l-19 63
q14 14 37.5 36t73.5 69.5t82 79t30 32.5h-325v78h430v-77z" />
    <glyph glyph-name="four" unicode="4" horiz-adv-x="566" 
d="M528 186h-78v-186h-79v186h-334v80l334 432h79v-432h78v-80zM371 266v305l-241 -305h241z" />
    <glyph glyph-name="five" unicode="5" horiz-adv-x="581" 
d="M305 451q106 0 167 -60.5t61 -157.5q0 -62 -23.5 -115t-80 -90.5t-137.5 -37.5q-107 0 -167 57.5t-78 130.5l80 18q4 -20 14.5 -39.5t28.5 -41t49 -34.5t70 -13q74 0 118.5 45.5t44.5 115.5q0 65 -40.5 104.5t-114.5 39.5q-39 0 -75.5 -11t-53.5 -22l-17 -11l-81 18
l32 352h389v-79h-317l-17 -203q59 34 148 34z" />
    <glyph glyph-name="six" unicode="6" horiz-adv-x="530" 
d="M369 699l-184 -309q48 35 101 34q102 -3 152.5 -60t50.5 -147q0 -96 -58 -161.5t-171 -65.5q-105 0 -162.5 68.5t-57.5 157.5q0 14 1.5 28t3.5 25.5t5.5 24.5t6 21t8 20t8 18t9 17.5t8.5 15t9 15t8 13.5l172 285h90zM264 67q66 0 105.5 41t39.5 106t-39.5 104t-100.5 39
t-104.5 -37.5t-43.5 -105.5q0 -65 38.5 -106t104.5 -41z" />
    <glyph glyph-name="seven" unicode="7" horiz-adv-x="503" 
d="M213 0q79 340 250 618v79h-424v-78h328q-65 -113 -135.5 -290t-105.5 -329h87z" />
    <glyph glyph-name="eight" unicode="8" horiz-adv-x="576" 
d="M90 524q0 80 57 133.5t141 53.5t141.5 -53t57.5 -132q0 -48 -23.5 -87t-63.5 -62q54 -25 85.5 -72t31.5 -105q0 -90 -66 -151t-163 -61q-96 0 -162.5 61t-66.5 151q0 59 31.5 105t84.5 69q-85 52 -85 150zM288 632q-50 0 -81 -31t-31 -80q0 -48 31.5 -79t80.5 -31
t80.5 31t31.5 79q0 49 -31 80t-81 31zM288 66q61 0 100.5 38t39.5 97t-39.5 96.5t-100.5 37.5t-100.5 -37.5t-39.5 -96.5t39.5 -97t100.5 -38z" />
    <glyph glyph-name="nine" unicode="9" horiz-adv-x="530" 
d="M160 0l184 309q-48 -35 -101 -34q-102 3 -152.5 60t-50.5 147q0 96 58 161.5t171 65.5q105 0 162.5 -68.5t57.5 -157.5q0 -14 -1.5 -28t-3.5 -25.5t-5.5 -24.5t-6 -21t-8 -20t-8 -18t-9 -17.5t-8.5 -15t-9 -15t-8 -13.5l-172 -285h-90zM265 632q-66 0 -105.5 -41
t-39.5 -106t39.5 -104t100.5 -39t104.5 37.5t43.5 105.5q0 65 -38.5 106t-104.5 41z" />
    <glyph glyph-name="colon" unicode=":" horiz-adv-x="268" 
d="M190 467q0 23 -16 39.5t-40 16.5t-40.5 -16.5t-16.5 -39.5q0 -24 16.5 -40.5t40.5 -16.5t40 16.5t16 40.5zM190 62q0 24 -16 40.5t-40 16.5t-40.5 -16.5t-16.5 -40.5q0 -23 16.5 -40t40.5 -17t40 16.5t16 40.5z" />
    <glyph glyph-name="semicolon" unicode=";" horiz-adv-x="276" 
d="M204 467q0 23 -16 39.5t-40 16.5t-40.5 -16.5t-16.5 -39.5q0 -24 16.5 -40.5t40.5 -16.5t40 16.5t16 40.5zM148 111q63 0 63 -84q0 -13 -2.5 -29.5t-11.5 -43.5t-24 -49t-43.5 -42t-66.5 -26v45q25 8 54.5 43t32.5 73q-25 0 -42 17t-17 40t17 39.5t40 16.5z" />
    <glyph glyph-name="less" unicode="&#x3c;" horiz-adv-x="563" 
d="M522 525v-85l-370 -142l370 -143v-86l-482 184v88z" />
    <glyph glyph-name="equal" unicode="=" horiz-adv-x="692" 
d="M61 454v-86h569v86h-569zM61 219v-86h569v86h-569z" />
    <glyph glyph-name="greater" unicode="&#x3e;" horiz-adv-x="564" 
d="M523 341v-88l-482 -184v86l370 143l-370 142v85z" />
    <glyph glyph-name="question" unicode="?" horiz-adv-x="580" 
d="M235 241v-70h76v62q1 6 2.5 12t3.5 11t6.5 10.5t7.5 10t11 11t13 10.5t16 12.5t18 13.5t22.5 16t24.5 18q110 88 110 194q0 28 -7.5 57t-27 60t-48.5 54.5t-75.5 38.5t-104.5 15q-63 0 -110.5 -18.5t-73.5 -44.5t-41.5 -62t-20 -64t-4.5 -57l2 -41h84q-1 1 -1 31
q0 34 8.5 64t26.5 56.5t51 41.5t79 15q45 0 79.5 -15t53 -39t28 -48t10.5 -48q2 -41 -19.5 -73t-84.5 -79q-65 -48 -83 -70q-32 -38 -32 -85zM276 102q-26 0 -43.5 -17.5t-17.5 -42.5t17.5 -42.5t43.5 -17.5t43 17t17 43t-17 43t-43 17z" />
    <glyph glyph-name="at" unicode="@" horiz-adv-x="870" 
d="M436 768q167 0 277.5 -115t100.5 -284q-5 -76 -42 -131t-88 -61q-17 -2 -32 1t-24.5 7.5t-20 15t-14.5 16.5l-12 18t-9 14q-52 -79 -153 -79q-87 0 -140.5 58t-53.5 151q0 92 53.5 150t140.5 58q86 0 134 -64v57h62v-292q0 -27 19.5 -43t45.5 -9q31 9 52 46t21 91
q0 150 -88 240t-228 90q-137 0 -225.5 -91.5t-88.5 -232.5t89 -233t227 -92q85 0 150 39l50 -47q-88 -57 -202 -57q-164 0 -273.5 111t-109.5 279t109.5 278.5t272.5 110.5zM419 229q61 0 97.5 40.5t36.5 108.5t-36 108.5t-98 40.5t-97 -40.5t-35 -108.5t35 -108.5t97 -40.5
z" />
    <glyph glyph-name="A" unicode="A" horiz-adv-x="741" 
d="M533 182h-326l-64 -182h-87l265 752h98l265 -752h-87zM503 267l-132 381l-134 -381h266z" />
    <glyph glyph-name="B" unicode="B" horiz-adv-x="604" 
d="M441 387q50 -18 80 -64.5t30 -113.5q0 -91 -54.5 -150t-151.5 -59h-293v752h250q101 0 156.5 -60t55.5 -152q0 -107 -73 -153zM133 421h209q39 0 65 34t26 84q0 58 -35 95t-96 37h-169v-250zM342 81q59 0 93.5 36.5t34.5 94.5q0 54 -29.5 90.5t-74.5 36.5h-233v-258h209z
" />
    <glyph glyph-name="C" unicode="C" horiz-adv-x="771" 
d="M395 70q86 0 148 42.5t95 116.5h94q-40 -109 -128 -175.5t-210 -66.5q-159 0 -257.5 109.5t-98.5 279.5q0 171 99 281t257 110q120 0 208.5 -65.5t129.5 -176.5h-94q-34 73 -96.5 115.5t-148.5 42.5q-123 0 -195.5 -85.5t-72.5 -221.5q0 -135 73 -220.5t197 -85.5z" />
    <glyph glyph-name="D" unicode="D" horiz-adv-x="671" 
d="M269 752q167 0 259 -103.5t92 -269.5q0 -169 -94 -274t-257 -105h-218v752h218zM269 85q127 0 194 80t67 214q0 131 -64.5 209.5t-196.5 78.5h-134v-582h134z" />
    <glyph glyph-name="E" unicode="E" horiz-adv-x="578" 
d="M143 671v-246h323v-81h-323v-263h374v-81h-456v753h456v-82h-374z" />
    <glyph glyph-name="F" unicode="F" horiz-adv-x="541" 
d="M126 668v-253h314v-84h-314v-331h-85v752h458v-84h-373z" />
    <glyph glyph-name="G" unicode="G" horiz-adv-x="794" 
d="M383 389h370q2 -13 0 -34q-5 -160 -102.5 -263.5t-253.5 -103.5q-161 0 -259.5 109.5t-98.5 279.5q0 171 98.5 281t258.5 110q122 0 210 -66t126 -178h-94q-31 72 -93 115t-149 43q-124 0 -196.5 -85t-72.5 -220t72.5 -220t197.5 -85q107 0 176.5 63.5t87.5 171.5h-278
v82z" />
    <glyph glyph-name="H" unicode="H" horiz-adv-x="658" 
d="M597 752v-752h-85v349h-367v-349h-84v752h84v-318h367v318h85z" />
    <glyph glyph-name="I" unicode="I" horiz-adv-x="250" 
d="M167 752h-85v-752h85v752z" />
    <glyph glyph-name="J" unicode="J" horiz-adv-x="531" 
d="M411 753h83v-521q0 -111 -56 -178t-165 -67q-61 0 -108.5 22t-74 58t-40 78t-13.5 87h80q13 -166 152 -166q142 0 142 177v510z" />
    <glyph glyph-name="K" unicode="K" horiz-adv-x="669" 
d="M494 0l-343 329v-329h-84v754h84v-326l325 326h108l-370 -376l387 -378h-107z" />
    <glyph glyph-name="L" unicode="L" horiz-adv-x="518" 
d="M478 84v-84h-439v752h85v-668h354z" />
    <glyph glyph-name="M" unicode="M" horiz-adv-x="972" 
d="M913 752v-752h-84v584l-299 -584h-87l-299 584v-584h-85v752h89l338 -663l338 663h89z" />
    <glyph glyph-name="N" unicode="N" horiz-adv-x="731" 
d="M671 752v-752h-87l-439 617v-617h-85v752h88l438 -617v617h85z" />
    <glyph glyph-name="O" unicode="O" horiz-adv-x="816" 
d="M408 768q162 0 264.5 -110.5t102.5 -280.5q0 -169 -102.5 -279t-264.5 -110t-264.5 110t-102.5 279q0 171 102.5 281t264.5 110zM408 71q127 0 203.5 86t76.5 220q0 135 -76.5 221t-203.5 86t-204 -86t-77 -221t76.5 -220.5t204.5 -85.5z" />
    <glyph glyph-name="P" unicode="P" horiz-adv-x="587" 
d="M306 752q114 0 176 -67t62 -177q0 -109 -62.5 -177t-175.5 -68h-179v-263h-85v752h264zM310 344q71 0 111.5 45t40.5 119t-40 118.5t-112 44.5h-183v-327h183z" />
    <glyph glyph-name="Q" unicode="Q" horiz-adv-x="828" 
d="M726 -49l-104 102q-91 -66 -213 -66q-162 0 -263.5 110t-101.5 279q0 171 102 281t264 110t264.5 -110t102.5 -281q0 -160 -95 -269l101 -100zM129 376q0 -135 77 -220.5t204 -85.5t204 86t77 220q0 135 -77 221t-204 86t-204 -86t-77 -221z" />
    <glyph glyph-name="R" unicode="R" horiz-adv-x="651" 
d="M340 262h-71l325 -262h-121l-322 261v-261h-85v752h257q114 0 176 -67.5t62 -177.5q0 -105 -58 -171.5t-163 -73.5zM151 346h175q71 0 110.5 44t39.5 117t-39.5 117t-110.5 44h-175v-322z" />
    <glyph glyph-name="S" unicode="S" horiz-adv-x="670" 
d="M338 424q150 -35 217.5 -80t67.5 -136q0 -103 -75 -162t-200 -59q-131 0 -210 64t-91 167h84q12 -60 64 -105.5t152 -45.5q94 0 142.5 40.5t48.5 95.5q0 26 -13.5 47.5t-30.5 34.5t-49 25.5t-53.5 18.5t-59.5 15q-153 37 -216 80.5t-62 128.5q2 93 72 153.5t198 60.5
q127 0 204 -61.5t92 -169.5h-83q-15 65 -65.5 108.5t-148.5 43.5q-95 0 -140 -40t-45 -94q0 -53 46.5 -79t153.5 -51z" />
    <glyph glyph-name="T" unicode="T" horiz-adv-x="649" 
d="M617 668h-250v-668h-84v668h-251v84h585v-84z" />
    <glyph glyph-name="U" unicode="U" horiz-adv-x="713" 
d="M650 754v-464v-17t-5 -42t-14.5 -59t-31 -62.5t-51.5 -59.5t-80 -42t-112 -17t-112 16.5t-80 43t-51.5 58t-31 63.5t-14.5 58.5t-5 43.5v16v464h84v-464v-12t3.5 -30t10.5 -42.5t22 -45t36.5 -42.5t57.5 -30t80 -12t79.5 12t57 30.5t37 41.5t22.5 46t10.5 41.5t3.5 30.5
v12v464h84z" />
    <glyph glyph-name="V" unicode="V" horiz-adv-x="823" 
d="M766 752l-306 -752h-97q-169 418 -306 752h96l259 -647l258 647h96z" />
    <glyph glyph-name="W" unicode="W" horiz-adv-x="1300" 
d="M1236 752l-262 -752h-98l-226 632l-226 -632h-98l-262 752h96l214 -636l223 636h105l222 -636l215 636h97z" />
    <glyph glyph-name="X" unicode="X" horiz-adv-x="681" 
d="M608 752l-222 -376l222 -376h-94l-175 296l-173 -296h-94l221 376l-221 376h94l173 -296l175 296h94z" />
    <glyph glyph-name="Y" unicode="Y" horiz-adv-x="688" 
d="M533 752h97l-244 -437v-315h-84v315l-244 437h97l189 -345z" />
    <glyph glyph-name="Z" unicode="Z" horiz-adv-x="691" 
d="M633 752v-83l-470 -588h470v-81h-576v82l469 588h-468v82h575z" />
    <glyph glyph-name="bracketleft" unicode="[" horiz-adv-x="401" 
d="M119 840v-923h222v-60h-282v1043h282v-60h-222z" />
    <glyph glyph-name="backslash" unicode="\" horiz-adv-x="566" 
d="M437 0h87l-396 753h-87z" />
    <glyph glyph-name="bracketright" unicode="]" horiz-adv-x="400" 
d="M59 840v60h282v-1043h-282v60h222v923h-222z" />
    <glyph glyph-name="asciicircum" unicode="^" 
d="M269 718h56l190 -367h-67l-151 275l-155 -275h-67z" />
    <glyph glyph-name="underscore" unicode="_" horiz-adv-x="684" 
d="M58 0v-87h568v87h-568z" />
    <glyph glyph-name="grave" unicode="`" horiz-adv-x="314" 
d="M256 573h-75l-124 158h103z" />
    <glyph glyph-name="a" unicode="a" 
d="M488 147q0 -78 60 -78v-69q-1 1 -10 0t-25 2.5t-32 9t-31.5 20.5t-23.5 35q-23 -34 -77.5 -57t-105.5 -23q-98 0 -149.5 43.5t-51.5 113.5q0 61 47 103.5t162 60.5q20 4 58 6.5t65 3.5h28v33q-1 42 -27.5 74t-92.5 32q-100 0 -126 -81l-84 22q50 136 210 136
q106 0 156 -55t50 -134v-198zM403 251l-123 -8q-48 -4 -80 -16q-69 -23 -69 -79q0 -48 41.5 -68.5t90.5 -15.5q59 4 100 40q40 36 40 57v90z" />
    <glyph glyph-name="b" unicode="b" horiz-adv-x="591" 
d="M303 534q110 0 178.5 -77.5t68.5 -197.5t-68.5 -196.5t-179.5 -76.5q-113 0 -176 92v-78h-85v752h85v-313q62 95 177 95zM293 456q-78 0 -125 -49.5t-47 -127.5q0 -57 3 -72q10 -64 55 -103.5t113 -39.5q80 0 126.5 54t46.5 142t-46.5 142t-125.5 54z" />
    <glyph glyph-name="c" unicode="c" horiz-adv-x="596" 
d="M302 66q62 0 107.5 33.5t62.5 90.5h87q-22 -91 -92 -146.5t-165 -55.5q-114 0 -190 78t-76 197q0 118 76 196t190 78q95 0 165 -55.5t92 -146.5h-87q-17 57 -62.5 90.5t-107.5 33.5q-81 0 -132 -55t-51 -143q0 -87 51 -141t132 -54z" />
    <glyph glyph-name="d" unicode="d" 
d="M287 534q115 0 177 -95v313h85v-752h-85v78q-63 -92 -176 -92q-111 0 -179.5 76.5t-68.5 196.5t68.5 197.5t178.5 77.5zM297 456q-79 0 -125.5 -54t-46.5 -142t46.5 -142t126.5 -54q68 0 113 39.5t55 103.5q3 15 3 72q0 78 -47 127.5t-125 49.5z" />
    <glyph glyph-name="e" unicode="e" horiz-adv-x="609" 
d="M570 260q0 -21 -2 -34h-443q9 -72 57.5 -116.5t120.5 -44.5q54 0 95.5 26t63.5 70h90q-29 -79 -95.5 -126t-153.5 -47q-114 0 -189.5 77.5t-75.5 196.5q0 118 75.5 196t189.5 78t190.5 -79t76.5 -197zM482 291q-7 75 -56 121t-123 46q-73 0 -122 -46t-57 -121h358z" />
    <glyph glyph-name="f" unicode="f" horiz-adv-x="394" 
d="M281 689q-92 0 -92 -116v-68h147v-72h-147v-433h-85v433h-67v72h67v110q0 70 44.5 111t118.5 41q50 0 90 -21l-21 -66q-34 9 -55 9z" />
    <glyph glyph-name="g" unicode="g" horiz-adv-x="612" 
d="M560 523v-513q-4 -112 -78.5 -185t-185.5 -73q-84 0 -148.5 43t-95.5 117l81 22q46 -104 162 -104q82 0 131.5 53t49.5 141v59q-62 -94 -178 -94q-110 0 -178.5 77t-68.5 196q0 120 68.5 197.5t179.5 77.5q117 0 177 -94l16 80h68zM309 458q-79 0 -126 -54t-47 -142
t47 -142t126 -54q69 0 114 40t55 104q3 27 3 71q0 77 -47.5 127t-124.5 50z" />
    <glyph glyph-name="h" unicode="h" horiz-adv-x="574" 
d="M134 426q20 44 65 76.5t119 32.5q97 0 151.5 -62t54.5 -178v-295h-85v282q0 30 -6.5 57.5t-21.5 55.5t-45.5 45t-73.5 17q-44 0 -77.5 -18.5t-49.5 -46t-23 -52t-7 -44.5v-296h-85v753h84v-327z" />
    <glyph glyph-name="i" unicode="i" horiz-adv-x="257" 
d="M128 755q-24 0 -41 -17t-17 -41t17 -41t41 -17q25 0 41.5 17t16.5 41t-16.5 41t-41.5 17zM170 522h-84v-522h84v522z" />
    <glyph glyph-name="j" unicode="j" horiz-adv-x="297" 
d="M252 705q0 23 -17 40.5t-41 17.5t-41 -17.5t-17 -40.5q0 -25 17 -41.5t41 -16.5t41 16.5t17 41.5zM152 531h84v-615q0 -72 -44.5 -112t-119.5 -40q-8 0 -28 2v76h18q90 3 90 107v582z" />
    <glyph glyph-name="k" unicode="k" horiz-adv-x="553" 
d="M371 0l-177 196l-41 -47v-149h-84v753h84v-461q0 -5 5.5 -7t8.5 2l198 234h106l-225 -263l238 -258h-113z" />
    <glyph glyph-name="l" unicode="l" horiz-adv-x="244" 
d="M164 753h-85v-753h85v753z" />
    <glyph glyph-name="m" unicode="m" horiz-adv-x="952" 
d="M693 535q199 0 199 -239v-296h-85v282q0 175 -140 175q-76 0 -111 -44t-37 -104v-309h-86v313q-1 59 -34.5 101.5t-106.5 42.5q-36 0 -64 -12.5t-43 -31t-24.5 -42t-12.5 -41.5t-3 -34v-296h-85v522h85v-96q15 46 59.5 77.5t115.5 31.5q139 0 180 -125q15 53 63.5 89
t129.5 36z" />
    <glyph glyph-name="n" unicode="n" horiz-adv-x="596" 
d="M328 534q98 0 152.5 -61.5t54.5 -177.5v-295h-85v282q0 30 -6.5 57.5t-21.5 55.5t-46 45t-74 17q-44 0 -77.5 -18.5t-49.5 -46t-23 -52t-7 -44.5v-296h-85v521h85v-96q20 45 64.5 77t118.5 32z" />
    <glyph glyph-name="o" unicode="o" horiz-adv-x="614" 
d="M307 535q115 0 191 -77.5t76 -195.5t-76 -196t-191 -78t-191 77.5t-76 196.5q0 118 76 195.5t191 77.5zM307 65q82 0 132.5 54.5t50.5 142.5q0 86 -50.5 140.5t-132.5 54.5q-81 0 -132 -54.5t-51 -141.5t51 -141.5t132 -54.5z" />
    <glyph glyph-name="p" unicode="p" horiz-adv-x="591" 
d="M303 -14q-115 0 -177 94v-312h-85v752h85v-79q64 93 176 93q111 0 179.5 -77.5t68.5 -197.5q0 -119 -68.5 -196t-178.5 -77zM292 455q-69 0 -115.5 -40t-52.5 -103q-4 -13 -4 -71q0 -78 47.5 -128t125.5 -50q79 0 125.5 54t46.5 142q0 89 -46.5 142.5t-126.5 53.5z" />
    <glyph glyph-name="q" unicode="q" horiz-adv-x="595" 
d="M290 -14q-110 0 -178.5 77t-68.5 196q0 120 68.5 197.5t179.5 77.5q112 0 176 -93v79h85v-752h-85v312q-62 -94 -177 -94zM301 455q-80 0 -126.5 -53.5t-46.5 -142.5q0 -88 46.5 -142t125.5 -54q78 0 125.5 50t47.5 128q0 58 -4 71q-6 63 -52.5 103t-115.5 40z" />
    <glyph glyph-name="r" unicode="r" horiz-adv-x="408" 
d="M316 535q12 0 34 -2v-87q-31 7 -57 7q-47 0 -79 -19t-46 -49.5t-19.5 -54.5t-5.5 -47v-283h-85v522h84v-96q15 46 60 77.5t114 31.5z" />
    <glyph glyph-name="s" unicode="s" horiz-adv-x="498" 
d="M368 371q-19 91 -122 91q-61 0 -86 -27t-25 -55q0 -31 30.5 -47.5t94.5 -30.5q37 -8 56 -13t50 -17.5t46.5 -27t28 -40t12.5 -58.5q0 -74 -53.5 -116t-142.5 -42q-97 0 -151.5 48.5t-61.5 116.5h84q6 -35 36 -63.5t91 -28.5q50 0 83 21.5t33 63.5q0 36 -28 52.5t-96 33.5
q-108 26 -153 54.5t-45 92.5q0 26 9 51.5t30 50t60.5 40t93.5 15.5q99 0 150.5 -48.5t58.5 -116.5h-83z" />
    <glyph glyph-name="t" unicode="t" horiz-adv-x="395" 
d="M213 451v-278q0 -57 18 -81.5t63 -24.5q26 0 57 9v-75q-31 -12 -72 -12q-73 0 -112 39.5t-39 111.5v311h-85v72h43q17 0 29.5 12.5t12.5 29.5v97h85v-139h122v-72h-122z" />
    <glyph glyph-name="u" unicode="u" horiz-adv-x="595" 
d="M267 -13q-98 0 -152.5 61.5t-54.5 177.5v295h85v-282q0 -30 6.5 -57.5t21.5 -55.5t46 -45t74 -17q44 0 77.5 18.5t49.5 46t23 52t7 44.5v296h85v-521h-85v96q-20 -45 -64.5 -77t-118.5 -32z" />
    <glyph glyph-name="v" unicode="v" horiz-adv-x="571" 
d="M516 523l-185 -523h-91l-185 523h86l144 -406l145 406h86z" />
    <glyph glyph-name="w" unicode="w" horiz-adv-x="947" 
d="M887 523l-182 -523h-89l-143 412l-143 -412h-89l-182 523h85l145 -413l144 413h79l144 -413l146 413h85z" />
    <glyph glyph-name="x" unicode="x" horiz-adv-x="595" 
d="M345 266l174 -266h-98l-124 191l-123 -191h-98l173 266l-168 257h99l117 -183l118 183h98z" />
    <glyph glyph-name="y" unicode="y" horiz-adv-x="575" 
d="M517 523q-42 -117 -139 -377t-139 -377h-86l100 276l-193 478h99q21 -56 124 -330q3 -7 10.5 -6.5t10.5 7.5l118 329h95z" />
    <glyph glyph-name="z" unicode="z" horiz-adv-x="518" 
d="M455 481l-276 -401h276v-80h-392v42l276 401h-276v80h392v-42z" />
    <glyph glyph-name="braceleft" unicode="{" horiz-adv-x="432" 
d="M396 833q-92 -2 -136 -48.5t-44 -156.5v-139v-11t-4.5 -24.5t-12.5 -31.5t-27 -26.5t-46 -14.5q42 -4 64.5 -31t23.5 -52l2 -25v-139q0 -110 44 -156.5t136 -48.5v-69q-47 1 -89 12t-80 35t-61 68.5t-23 104.5v165q-2 1 0 11t-3.5 26.5t-14.5 32t-32.5 26.5t-56.5 11v58
q33 0 56.5 11t33 27t14 31.5t4.5 26.5l-1 11v164q0 60 23 105t61 69t80 35.5t89 11.5v-69z" />
    <glyph glyph-name="bar" unicode="|" horiz-adv-x="242" 
d="M163 899h-84v-1042h84v1042z" />
    <glyph glyph-name="braceright" unicode="}" horiz-adv-x="432" 
d="M36 902q47 0 89 -11.5t80 -35.5t61 -69t23 -105v-164q2 -1 0 -11t3.5 -26.5t14.5 -32t32.5 -26.5t56.5 -11v-58q-33 0 -56.5 -11t-33 -27t-14 -31.5t-4.5 -26.5l1 -11v-165q0 -60 -23 -104.5t-61 -68.5t-80 -35t-89 -12v69q92 2 136 48.5t44 156.5v139v10.5t4.5 24.5
t12.5 31.5t27 26t46 15.5q-42 4 -64.5 31t-23.5 52l-2 25v139q0 110 -44 156.5t-136 48.5v69z" />
    <glyph glyph-name="asciitilde" unicode="~" horiz-adv-x="679" 
d="M629 340q-71 -106 -176 -106q-45 0 -122 38t-108 38q-19 0 -37 -5.5t-32 -15.5t-23 -18t-17.5 -17t-9.5 -10l-54 43q19 40 68 73t108 33q46 0 125.5 -38t106.5 -38q58 0 117 66z" />
    <glyph glyph-name="exclamdown" unicode="&#xa1;" horiz-adv-x="261" 
d="M130 655q24 0 40 16.5t16 39.5t-16 39.5t-40 16.5q-23 0 -39 -16.5t-16 -39.5t16 -39.5t39 -16.5zM165 605h-68l-14 -617h95z" />
    <glyph glyph-name="cent" unicode="&#xa2;" horiz-adv-x="583" 
d="M336 196q47 7 82 38t49 78h86q-19 -80 -78 -133t-139 -64v-127h-85v128q-97 14 -159 88.5t-62 180.5t62 180.5t159 88.5v113h85v-112q80 -11 139 -64t78 -133h-87q-14 47 -48.5 77.5t-81.5 37.5v-377zM113 384q0 -72 38 -122.5t100 -63.5v373q-61 -13 -99.5 -64
t-38.5 -123z" />
    <glyph glyph-name="sterling" unicode="&#xa3;" horiz-adv-x="636" 
d="M593 200q-4 -54 -21.5 -93.5t-38.5 -59.5t-50 -31t-47 -13.5t-38 -2.5h-355v84q52 9 86 64.5t28 104.5q-4 28 -9 49h-87v79h63q-16 47 -22 80q-6 37 2.5 78t32 80t74 64.5t118.5 25.5q61 0 106 -20.5t65.5 -49.5t32 -58.5t12.5 -50.5l1 -20l-76 -17q-7 57 -27 85
q-37 52 -115 52q-57 0 -92.5 -28t-45.5 -65t-2 -75q1 -5 4.5 -18t8.5 -31.5t8 -31.5h241v-79h-226q6 -22 8 -44q5 -59 -18 -109.5t-64 -69.5h224q23 0 41.5 4t42.5 16.5t39.5 44t18.5 78.5z" />
    <glyph glyph-name="currency" unicode="&#xa4;" horiz-adv-x="751" 
d="M607 315q0 -73 -43 -133l121 -121l-55 -56l-122 122q-58 -44 -133 -44q-74 0 -133 44l-121 -122l-56 56l121 121q-43 60 -43 133q0 74 43 134l-121 121l56 56l121 -122q60 43 133 43q75 0 133 -43l122 122l55 -56l-121 -121q43 -60 43 -134zM375 478q-68 0 -114 -48
q-48 -48 -48 -115t48 -115q47 -47 114 -47q66 0 115 47q49 49 47 115q0 66 -47 115q-48 48 -115 48z" />
    <glyph glyph-name="yen" unicode="&#xa5;" horiz-adv-x="597" 
d="M378 413h181v-67h-218v-98h218v-72h-218v-176h-85v176h-218v72h218v98h-218v67h181l-174 284h87l166 -272l168 272h86z" />
    <glyph glyph-name="brokenbar" unicode="&#xa6;" horiz-adv-x="241" 
d="M162 898v-326h-83v326h83zM79 181h83v-325h-83v325z" />
    <glyph glyph-name="section" unicode="&#xa7;" horiz-adv-x="546" 
d="M382 104q48 -28 71 -61t23 -82q0 -81 -52.5 -134.5t-142.5 -53.5q-88 0 -143 53t-60 142h85q5 -47 34 -79t83 -32q53 0 79.5 30.5t27.5 69.5q0 23 -10 41t-31.5 31.5t-37.5 20.5t-44 17l-30 10t-29 11t-30.5 13.5t-26.5 15.5t-26.5 20t-20 23.5t-17.5 29t-9.5 34
t-4.5 41.5q0 100 93 154q-93 55 -93 143q0 81 52.5 134.5t142.5 53.5q89 0 143.5 -53t59.5 -142h-86q-6 48 -35.5 79t-81.5 31t-78.5 -30.5t-26.5 -68.5q0 -35 23.5 -58.5t58.5 -34.5t76 -27.5t76 -35t58.5 -58t23.5 -95.5q0 -100 -94 -153zM158 268q0 -41 35 -75.5
t87 -43.5q42 1 75 31.5t33 74.5q0 41 -36 75.5t-88 43.5q-41 0 -73.5 -31t-32.5 -75z" />
    <glyph glyph-name="dieresis" unicode="&#xa8;" horiz-adv-x="481" 
d="M181 661q0 22 -16 37.5t-38 15.5t-37 -15.5t-15 -37.5t15 -37.5t37 -15.5t38 15.5t16 37.5zM352 714q-22 0 -37.5 -15.5t-15.5 -37.5t15.5 -37.5t37.5 -15.5t38 15.5t16 37.5t-16 37.5t-38 15.5z" />
    <glyph glyph-name="copyright" unicode="&#xa9;" horiz-adv-x="867" 
d="M433 767q161 0 275 -114t114 -275t-114 -275.5t-275 -114.5t-275 114.5t-114 275.5t114 275t275 114zM433 695q-131 0 -224.5 -93t-93.5 -224q0 -132 93.5 -225t224.5 -93t224 93t93 225q0 131 -93 224t-224 93zM437 243q81 0 110 75h66q-18 -60 -65 -97t-111 -37
q-80 0 -132 55t-52 139q0 83 52 138t132 55q65 0 112 -37t64 -96h-66q-14 34 -42.5 54t-67.5 20q-55 0 -88 -37.5t-33 -97.5t33 -97t88 -37z" />
    <glyph glyph-name="guillemotleft" unicode="&#xab;" horiz-adv-x="605" 
d="M264 522h92l-170 -224l170 -224h-92l-170 224zM418 522h92l-170 -224l170 -224h-92l-170 224z" />
    <glyph glyph-name="logicalnot" unicode="&#xac;" horiz-adv-x="658" 
d="M609 469v-299h-81v218h-479v81h560z" />
    <glyph glyph-name="registered" unicode="&#xae;" horiz-adv-x="866" 
d="M433 767q161 0 275 -114t114 -275t-114 -275.5t-275 -114.5t-275 114.5t-114 275.5t114 275t275 114zM433 696q-131 0 -224 -93.5t-93 -224.5q0 -132 93 -225t224 -93t224.5 93t93.5 225q0 131 -93.5 224.5t-224.5 93.5zM464 327l-34 -1l148 -129h-76l-122 102v-102h-59
v370h126q56 0 87 -33.5t31 -87.5q0 -49 -25.5 -80.5t-75.5 -38.5zM380 375h59q32 0 49 19.5t17 51.5t-17 51.5t-49 19.5h-59v-142z" />
    <glyph glyph-name="degree" unicode="&#xb0;" horiz-adv-x="444" 
d="M222 771q76 0 126.5 -49t50.5 -122t-50.5 -122t-126.5 -49t-126.5 49t-50.5 122t50.5 122t126.5 49zM222 498q46 0 74.5 28.5t28.5 73.5q0 46 -28.5 74.5t-74.5 28.5t-74.5 -28.5t-28.5 -74.5q0 -45 28.5 -73.5t74.5 -28.5z" />
    <glyph glyph-name="plusminus" unicode="&#xb1;" horiz-adv-x="569" 
d="M527 325h-200v-133h-84v133h-201v85h201v131h84v-131h200v-85zM42 161v-84h485v84h-485z" />
    <glyph glyph-name="uni00B2" unicode="&#xb2;" horiz-adv-x="359" 
d="M305 651q0 -36 -20.5 -70.5t-47 -59t-59.5 -59t-50 -65.5h169v-47h-245q11 47 58 104q23 29 62 69.5t49 52.5q33 41 33 77q0 29 -19.5 48t-53.5 19t-54 -21t-23 -59h-48q0 51 33 89.5t93 38.5q55 0 89 -34t34 -83z" />
    <glyph glyph-name="uni00B3" unicode="&#xb3;" horiz-adv-x="376" 
d="M202 591q55 -6 91.5 -38t36.5 -82q0 -52 -35 -93.5t-105 -41.5q-65 0 -100 34t-44 78l41 10q7 -33 31.5 -57.5t70.5 -24.5q48 0 74.5 27.5t26.5 64.5t-26.5 59.5t-68.5 25.5q-10 1 -20.5 0t-18.5 -2.5t-9 -1.5l-10 31l133 136h-200v38h252v-38z" />
    <glyph glyph-name="acute" unicode="&#xb4;" horiz-adv-x="314" 
d="M157 731h104l-133 -158h-75z" />
    <glyph glyph-name="uni00B5" unicode="&#xb5;" horiz-adv-x="577" 
d="M525 521v-521h-84v96q-19 -44 -64 -76.5t-119 -32.5q-86 0 -120 63v-227h-87v698h84v-282q0 -29 6.5 -57t21.5 -56t45.5 -45t73.5 -17q45 0 78.5 18.5t49.5 46.5t23 52.5t7 44.5v295h85z" />
    <glyph glyph-name="paragraph" unicode="&#xb6;" horiz-adv-x="711" 
d="M629 755v-84h-77v-900h-83v900h-104v-900h-83v580q-83 2 -142 61t-59 141q0 83 59 142.5t142 59.5h347z" />
    <glyph glyph-name="periodcentered" unicode="&#xb7;" horiz-adv-x="256" 
d="M184 453q0 24 -16.5 40.5t-39.5 16.5q-24 0 -40.5 -16.5t-16.5 -40.5q0 -23 16.5 -39.5t40.5 -16.5q23 0 39.5 16.5t16.5 39.5z" />
    <glyph glyph-name="cedilla" unicode="&#xb8;" horiz-adv-x="343" 
d="M220 0l-28 -52q8 2 24 -0.5t37 -10t36 -29.5t14 -55q-1 -28 -14 -48t-29 -29.5t-38 -15t-32 -6t-18 -0.5q-10 0 -27.5 2.5t-50 16.5t-55.5 37l40 51q50 -36 84 -39q28 -3 44 9t17 27q2 16 -11 27.5t-35 10.5l-36 -6l-34 46l36 64h76z" />
    <glyph glyph-name="uni00B9" unicode="&#xb9;" horiz-adv-x="214" 
d="M64 681q23 0 38.5 15t15.5 37v21h48v-410h-48v289h-70v48h16z" />
    <glyph glyph-name="guillemotright" unicode="&#xbb;" horiz-adv-x="605" 
d="M356 298l-170 -224h-92l170 224l-170 224h92zM510 298l-170 -224h-92l170 224l-170 224h92z" />
    <glyph glyph-name="onequarter" unicode="&#xbc;" horiz-adv-x="772" 
d="M65 621q22 0 38 15t16 37v20h48v-409h-48v289h-70v48h16zM156 0h64l361 693h-63zM723 109h-46v-109h-49v109h-195v49l195 253h49v-253h46v-49zM628 158v173l-136 -173h136z" />
    <glyph glyph-name="onehalf" unicode="&#xbd;" horiz-adv-x="791" 
d="M71 621q23 0 38.5 15t15.5 37v21h49v-411h-49v290h-69v48h15zM163 0h63l362 693h-64zM736 301q0 -36 -20.5 -70.5t-47 -59t-59.5 -59t-50 -65.5h169v-47h-245q11 47 58 104q23 29 62 69.5t49 52.5q33 41 33 77q0 29 -19.5 48t-53.5 19t-54 -21t-23 -59h-48q0 51 33 89.5
t93 38.5q55 0 89 -34t34 -83z" />
    <glyph glyph-name="threequarters" unicode="&#xbe;" horiz-adv-x="862" 
d="M210 532q55 -5 90 -37.5t35 -82.5q0 -53 -35 -95t-106 -42q-64 0 -99.5 34.5t-44.5 77.5l48 11q7 -30 29.5 -53t65.5 -23q44 0 69 26t25 62q0 35 -25 56t-65 23q-11 0 -23 -1.5t-20 -3t-9 -1.5l-11 37q8 8 22 21t43.5 41t48.5 47t18 19h-192v46h253v-45zM244 0h64
l361 693h-63zM811 109h-46v-109h-49v109h-195v49l195 253h49v-253h46v-49zM716 158v173l-136 -173h136z" />
    <glyph glyph-name="questiondown" unicode="&#xbf;" horiz-adv-x="578" 
d="M275 656q25 0 42.5 17t17.5 43t-17.5 43t-42.5 17q-26 0 -43.5 -17.5t-17.5 -42.5t17.5 -42.5t43.5 -17.5zM234 517q0 -33 17 -62t34.5 -44t52.5 -41q7 -5 11 -8q63 -47 84.5 -79t19.5 -73q-1 -24 -10.5 -48t-28 -48t-53 -39t-79.5 -15q-46 0 -79 15t-51 41.5t-26.5 56.5
t-8.5 64q0 29 1 31h-84q-2 -18 -2 -41q0 -29 4.5 -57t20 -64t41.5 -62t73.5 -44.5t110.5 -18.5q58 0 104.5 15t75.5 38.5t48.5 54.5t27 60t7.5 57q0 106 -110 194q-9 7 -24.5 18t-22.5 16t-18 13.5t-16 12.5t-13 10.5t-11 11t-7.5 10t-6.5 10.5t-3.5 11t-2.5 12v62h-76v-70z
" />
    <glyph glyph-name="Agrave" unicode="&#xc0;" horiz-adv-x="741" 
d="M400 803h-75l-128 134h104zM533 182h-326l-64 -182h-87l265 752h98l265 -752h-87zM503 267l-132 381l-134 -381h266z" />
    <glyph glyph-name="Aacute" unicode="&#xc1;" horiz-adv-x="741" 
d="M433 937h104l-128 -134h-75zM533 182h-326l-64 -182h-87l265 752h98l265 -752h-87zM503 267l-132 381l-134 -381h266z" />
    <glyph glyph-name="Acircumflex" unicode="&#xc2;" horiz-adv-x="741" 
d="M522 803h-79l-74 82l-74 -82h-79l105 134h96zM533 182h-326l-64 -182h-87l265 752h98l265 -752h-87zM503 267l-132 381l-134 -381h266z" />
    <glyph glyph-name="Atilde" unicode="&#xc3;" horiz-adv-x="741" 
d="M489 949q-4 -54 -48 -54q-24 0 -71 28t-86 28q-95 0 -101 -123h62q4 53 48 53q25 0 71.5 -27.5t85.5 -27.5q95 0 101 123h-62zM533 182h-326l-64 -182h-87l265 752h98l265 -752h-87zM503 267l-132 381l-134 -381h266z" />
    <glyph glyph-name="Adieresis" unicode="&#xc4;" horiz-adv-x="741" 
d="M255 888q0 22 -16 38t-38 16t-37.5 -16t-15.5 -38t15.5 -37.5t37.5 -15.5t38 15.5t16 37.5zM598 888q0 22 -16 38t-38 16t-37.5 -16t-15.5 -38t15.5 -37.5t37.5 -15.5t38 15.5t16 37.5zM533 182h-326l-64 -182h-87l265 752h98l265 -752h-87zM503 267l-132 381l-134 -381
h266z" />
    <glyph glyph-name="Aring" unicode="&#xc5;" horiz-adv-x="741" 
d="M684 0h-87l-63 183h-327l-64 -183h-86l260 742q-28 13 -45.5 39.5t-17.5 58.5q0 49 34 82.5t82 33.5t82 -33.5t34 -82.5q0 -32 -17.5 -58.5t-45.5 -39.5zM370 905q-27 0 -46 -19t-19 -46t19 -45.5t46 -18.5t46 18.5t19 45.5q0 28 -19 46.5t-46 18.5zM504 267l-134 382
l-133 -382h267z" />
    <glyph glyph-name="AE" unicode="&#xc6;" horiz-adv-x="880" 
d="M448 671v-247h323v-80h-323v-264h374v-80h-456v182h-159l-64 -182h-86l264 752h501v-81h-374zM366 266v368l-129 -368h129z" />
    <glyph glyph-name="Ccedilla" unicode="&#xc7;" horiz-adv-x="752" 
d="M386 72q86 0 148.5 43t95.5 116h93q-37 -101 -115.5 -166t-188.5 -74l-32 -57q55 4 85 -24t28 -73q-2 -36 -35 -62.5t-88 -25.5q-13 0 -26 2.5t-23.5 5t-21 7.5t-17.5 8.5t-15 9t-12 8.5t-9.5 8t-6.5 5l34 40q25 -21 53.5 -30.5t50 -7.5t36.5 12.5t16 27.5q2 29 -20 39
t-46 6l-23 -5l-29 40l36 65q-146 11 -235.5 119t-89.5 269q0 171 99 281t257 110q120 0 208.5 -65.5t129.5 -176.5h-94q-34 73 -96.5 115.5t-148.5 42.5q-123 0 -195.5 -85.5t-72.5 -221.5q0 -135 73 -220.5t197 -85.5z" />
    <glyph glyph-name="Egrave" unicode="&#xc8;" horiz-adv-x="536" 
d="M344 803h-75l-128 134h104zM122 671v-246h323v-81h-323v-263h374v-81h-456v753h456v-82h-374z" />
    <glyph glyph-name="Eacute" unicode="&#xc9;" horiz-adv-x="536" 
d="M271 937h104l-128 -134h-75zM122 671v-246h323v-81h-323v-263h374v-81h-456v753h456v-82h-374z" />
    <glyph glyph-name="Ecircumflex" unicode="&#xca;" horiz-adv-x="544" 
d="M408 803h-79l-74 82l-74 -82h-79l105 134h96zM126 671v-246h323v-81h-323v-263h374v-81h-456v753h456v-82h-374z" />
    <glyph glyph-name="Edieresis" unicode="&#xcb;" horiz-adv-x="594" 
d="M181 888q0 22 -16 38t-38 16t-37.5 -16t-15.5 -38t15.5 -37.5t37.5 -15.5t38 15.5t16 37.5zM524 888q0 22 -16 38t-38 16t-37.5 -16t-15.5 -38t15.5 -37.5t37.5 -15.5t38 15.5t16 37.5zM151 671v-246h323v-81h-323v-263h374v-81h-456v753h456v-82h-374z" />
    <glyph glyph-name="Igrave" unicode="&#xcc;" horiz-adv-x="331" 
d="M262 803h-75l-128 134h104zM271 752h-85v-752h85v752z" />
    <glyph glyph-name="Iacute" unicode="&#xcd;" horiz-adv-x="330" 
d="M165 937h104l-128 -134h-75zM146 752h-85v-752h85v752z" />
    <glyph glyph-name="Icircumflex" unicode="&#xce;" horiz-adv-x="415" 
d="M360 803h-79l-74 82l-74 -82h-79l105 134h96zM250 752h-85v-752h85v752z" />
    <glyph glyph-name="Idieresis" unicode="&#xcf;" horiz-adv-x="559" 
d="M161 888q0 22 -16 38t-38 16t-37.5 -16t-15.5 -38t15.5 -37.5t37.5 -15.5t38 15.5t16 37.5zM504 888q0 22 -16 38t-38 16t-37.5 -16t-15.5 -38t15.5 -37.5t37.5 -15.5t38 15.5t16 37.5zM322 752h-85v-752h85v752z" />
    <glyph glyph-name="Eth" unicode="&#xd0;" horiz-adv-x="787" 
d="M408 753q167 0 258.5 -103.5t91.5 -269.5q0 -170 -94 -275t-256 -105h-219v342h-161v85h161v326h219zM408 85q127 0 194 80.5t67 214.5q0 130 -65 208.5t-196 78.5h-135v-240h163v-85h-163v-257h135z" />
    <glyph glyph-name="Ntilde" unicode="&#xd1;" horiz-adv-x="713" 
d="M478 949q-4 -54 -48 -54q-24 0 -71 28t-86 28q-95 0 -101 -123h62q4 53 48 53q25 0 71.5 -27.5t85.5 -27.5q95 0 101 123h-62zM662 752v-752h-87l-439 617v-617h-85v752h88l438 -617v617h85z" />
    <glyph glyph-name="Ograve" unicode="&#xd2;" horiz-adv-x="816" 
d="M450 803h-75l-128 134h104zM408 768q162 0 264.5 -110.5t102.5 -280.5q0 -169 -102.5 -279t-264.5 -110t-264.5 110t-102.5 279q0 171 102.5 281t264.5 110zM408 71q127 0 203.5 86t76.5 220q0 135 -76.5 221t-203.5 86t-204 -86t-77 -221t76.5 -220.5t204.5 -85.5z" />
    <glyph glyph-name="Oacute" unicode="&#xd3;" horiz-adv-x="816" 
d="M466 937h104l-128 -134h-75zM408 768q162 0 264.5 -110.5t102.5 -280.5q0 -169 -102.5 -279t-264.5 -110t-264.5 110t-102.5 279q0 171 102.5 281t264.5 110zM408 71q127 0 203.5 86t76.5 220q0 135 -76.5 221t-203.5 86t-204 -86t-77 -221t76.5 -220.5t204.5 -85.5z" />
    <glyph glyph-name="Ocircumflex" unicode="&#xd4;" horiz-adv-x="816" 
d="M561 803h-79l-74 82l-74 -82h-79l105 134h96zM408 768q162 0 264.5 -110.5t102.5 -280.5q0 -169 -102.5 -279t-264.5 -110t-264.5 110t-102.5 279q0 171 102.5 281t264.5 110zM408 71q127 0 203.5 86t76.5 220q0 135 -76.5 221t-203.5 86t-204 -86t-77 -221t76.5 -220.5
t204.5 -85.5z" />
    <glyph glyph-name="Otilde" unicode="&#xd5;" horiz-adv-x="816" 
d="M527 949q-4 -54 -48 -54q-24 0 -71 28t-86 28q-95 0 -101 -123h62q4 53 48 53q25 0 71.5 -27.5t85.5 -27.5q95 0 101 123h-62zM408 768q162 0 264.5 -110.5t102.5 -280.5q0 -169 -102.5 -279t-264.5 -110t-264.5 110t-102.5 279q0 171 102.5 281t264.5 110zM408 71
q127 0 203.5 86t76.5 220q0 135 -76.5 221t-203.5 86t-204 -86t-77 -221t76.5 -220.5t204.5 -85.5z" />
    <glyph glyph-name="Odieresis" unicode="&#xd6;" horiz-adv-x="816" 
d="M295 888q0 22 -16 38t-38 16t-37.5 -16t-15.5 -38t15.5 -37.5t37.5 -15.5t38 15.5t16 37.5zM638 888q0 22 -16 38t-38 16t-37.5 -16t-15.5 -38t15.5 -37.5t37.5 -15.5t38 15.5t16 37.5zM408 768q162 0 264.5 -110.5t102.5 -280.5q0 -169 -102.5 -279t-264.5 -110
t-264.5 110t-102.5 279q0 171 102.5 281t264.5 110zM408 71q127 0 203.5 86t76.5 220q0 135 -76.5 221t-203.5 86t-204 -86t-77 -221t76.5 -220.5t204.5 -85.5z" />
    <glyph glyph-name="multiply" unicode="&#xd7;" horiz-adv-x="522" 
d="M463 458l-142 -142l142 -143l-60 -60l-142 143l-143 -143l-59 60l142 143l-142 142l59 60l143 -143l142 143z" />
    <glyph glyph-name="Oslash" unicode="&#xd8;" horiz-adv-x="846" 
d="M691 651q98 -107 98 -274q0 -169 -102.5 -279t-264.5 -110q-116 0 -204 60l-93 -119l-66 53l95 121q-98 109 -98 275q0 170 102 280t264 110q114 0 204 -60l93 118l67 -53zM142 377q0 -124 67 -203l365 467q-67 43 -152 43q-127 0 -203.5 -86t-76.5 -221zM422 71
q127 0 204 85.5t77 220.5q0 123 -68 204l-364 -466q64 -44 151 -44z" />
    <glyph glyph-name="Ugrave" unicode="&#xd9;" horiz-adv-x="713" 
d="M385 803h-75l-128 134h104zM650 754v-464v-17t-5 -42t-14.5 -59t-31 -62.5t-51.5 -59.5t-80 -42t-112 -17t-112 16.5t-80 43t-51.5 58t-31 63.5t-14.5 58.5t-5 43.5v16v464h84v-464v-12t3.5 -30t10.5 -42.5t22 -45t36.5 -42.5t57.5 -30t80 -12t79.5 12t57 30.5t37 41.5
t22.5 46t10.5 41.5t3.5 30.5v12v464h84z" />
    <glyph glyph-name="Uacute" unicode="&#xda;" horiz-adv-x="713" 
d="M410 937h104l-128 -134h-75zM650 754v-464v-17t-5 -42t-14.5 -59t-31 -62.5t-51.5 -59.5t-80 -42t-112 -17t-112 16.5t-80 43t-51.5 58t-31 63.5t-14.5 58.5t-5 43.5v16v464h84v-464v-12t3.5 -30t10.5 -42.5t22 -45t36.5 -42.5t57.5 -30t80 -12t79.5 12t57 30.5t37 41.5
t22.5 46t10.5 41.5t3.5 30.5v12v464h84z" />
    <glyph glyph-name="Ucircumflex" unicode="&#xdb;" horiz-adv-x="713" 
d="M510 803h-79l-74 82l-74 -82h-79l105 134h96zM650 754v-464v-17t-5 -42t-14.5 -59t-31 -62.5t-51.5 -59.5t-80 -42t-112 -17t-112 16.5t-80 43t-51.5 58t-31 63.5t-14.5 58.5t-5 43.5v16v464h84v-464v-12t3.5 -30t10.5 -42.5t22 -45t36.5 -42.5t57.5 -30t80 -12t79.5 12
t57 30.5t37 41.5t22.5 46t10.5 41.5t3.5 30.5v12v464h84z" />
    <glyph glyph-name="Udieresis" unicode="&#xdc;" horiz-adv-x="713" 
d="M237 884q0 22 -16 38t-38 16t-37.5 -16t-15.5 -38t15.5 -37.5t37.5 -15.5t38 15.5t16 37.5zM580 884q0 22 -16 38t-38 16t-37.5 -16t-15.5 -38t15.5 -37.5t37.5 -15.5t38 15.5t16 37.5zM650 754v-464v-17t-5 -42t-14.5 -59t-31 -62.5t-51.5 -59.5t-80 -42t-112 -17
t-112 16.5t-80 43t-51.5 58t-31 63.5t-14.5 58.5t-5 43.5v16v464h84v-464v-12t3.5 -30t10.5 -42.5t22 -45t36.5 -42.5t57.5 -30t80 -12t79.5 12t57 30.5t37 41.5t22.5 46t10.5 41.5t3.5 30.5v12v464h84z" />
    <glyph glyph-name="Yacute" unicode="&#xdd;" horiz-adv-x="688" 
d="M409 937h104l-128 -134h-75zM533 752h97l-244 -437v-315h-84v315l-244 437h97l189 -345z" />
    <glyph glyph-name="Thorn" unicode="&#xde;" horiz-adv-x="586" 
d="M306 629q114 0 176 -67.5t62 -176.5q0 -110 -62.5 -178t-175.5 -68h-179v-139h-85v767h86v-138h178zM310 221q71 0 111.5 45t40.5 119t-40 118t-112 44h-182l-1 -326h183z" />
    <glyph glyph-name="germandbls" unicode="&#xdf;" horiz-adv-x="619" 
d="M409 399q162 -35 162 -179q0 -102 -76 -167t-189 -65q-38 0 -78 10l34 79q30 -5 42 -5q74 0 122.5 40.5t48.5 109.5q0 57 -41.5 90t-113.5 42v83q54 7 85 35t31 77q0 61 -45.5 96.5t-113.5 35.5t-106 -38.5t-38 -105.5v-537h-86v539q0 106 59.5 167t167.5 61
q111 0 183.5 -61.5t72.5 -154.5q0 -118 -121 -152z" />
    <glyph glyph-name="agrave" unicode="&#xe0;" 
d="M328 573h-75l-133 158h104zM488 147q0 -78 60 -78v-69q-1 1 -10 0t-25 2.5t-32 9t-31.5 20.5t-23.5 35q-23 -34 -77.5 -57t-105.5 -23q-98 0 -149.5 43.5t-51.5 113.5q0 61 47 103.5t162 60.5q20 4 58 6.5t65 3.5h28v33q-1 42 -27.5 74t-92.5 32q-100 0 -126 -81l-84 22
q50 136 210 136q106 0 156 -55t50 -134v-198zM403 251l-123 -8q-48 -4 -80 -16q-69 -23 -69 -79q0 -48 41.5 -68.5t90.5 -15.5q59 4 100 40q40 36 40 57v90z" />
    <glyph glyph-name="aacute" unicode="&#xe1;" 
d="M341 731h104l-133 -158h-75zM488 147q0 -78 60 -78v-69q-1 1 -10 0t-25 2.5t-32 9t-31.5 20.5t-23.5 35q-23 -34 -77.5 -57t-105.5 -23q-98 0 -149.5 43.5t-51.5 113.5q0 61 47 103.5t162 60.5q20 4 58 6.5t65 3.5h28v33q-1 42 -27.5 74t-92.5 32q-100 0 -126 -81l-84 22
q50 136 210 136q106 0 156 -55t50 -134v-198zM403 251l-123 -8q-48 -4 -80 -16q-69 -23 -69 -79q0 -48 41.5 -68.5t90.5 -15.5q59 4 100 40q40 36 40 57v90z" />
    <glyph glyph-name="acircumflex" unicode="&#xe2;" 
d="M330 730l112 -158h-80l-81 97l-80 -97h-80l112 158h97zM488 147q0 -78 60 -78v-69q-1 1 -10 0t-25 2.5t-32 9t-31.5 20.5t-23.5 35q-23 -34 -77.5 -57t-105.5 -23q-98 0 -149.5 43.5t-51.5 113.5q0 61 47 103.5t162 60.5q20 4 58 6.5t65 3.5h28v33q-1 42 -27.5 74
t-92.5 32q-100 0 -126 -81l-84 22q50 136 210 136q106 0 156 -55t50 -134v-198zM403 251l-123 -8q-48 -4 -80 -16q-69 -23 -69 -79q0 -48 41.5 -68.5t90.5 -15.5q59 4 100 40q40 36 40 57v90z" />
    <glyph glyph-name="atilde" unicode="&#xe3;" 
d="M405 719q-4 -54 -48 -54q-24 0 -71 28t-86 28q-95 0 -101 -123h62q4 53 48 53q25 0 71.5 -27.5t85.5 -27.5q95 0 101 123h-62zM488 147q0 -78 60 -78v-69q-1 1 -10 0t-25 2.5t-32 9t-31.5 20.5t-23.5 35q-23 -34 -77.5 -57t-105.5 -23q-98 0 -149.5 43.5t-51.5 113.5
q0 61 47 103.5t162 60.5q20 4 58 6.5t65 3.5h28v33q-1 42 -27.5 74t-92.5 32q-100 0 -126 -81l-84 22q50 136 210 136q106 0 156 -55t50 -134v-198zM403 251l-123 -8q-48 -4 -80 -16q-69 -23 -69 -79q0 -48 41.5 -68.5t90.5 -15.5q59 4 100 40q40 36 40 57v90z" />
    <glyph glyph-name="adieresis" unicode="&#xe4;" 
d="M225 658q0 22 -16 37.5t-38 15.5t-37 -15.5t-15 -37.5t15 -37.5t37 -15.5t38 15.5t16 37.5zM396 711q-22 0 -37.5 -15.5t-15.5 -37.5t15.5 -37.5t37.5 -15.5t38 15.5t16 37.5t-16 37.5t-38 15.5zM488 147q0 -78 60 -78v-69q-1 1 -10 0t-25 2.5t-32 9t-31.5 20.5t-23.5 35
q-23 -34 -77.5 -57t-105.5 -23q-98 0 -149.5 43.5t-51.5 113.5q0 61 47 103.5t162 60.5q20 4 58 6.5t65 3.5h28v33q-1 42 -27.5 74t-92.5 32q-100 0 -126 -81l-84 22q50 136 210 136q106 0 156 -55t50 -134v-198zM403 251l-123 -8q-48 -4 -80 -16q-69 -23 -69 -79
q0 -48 41.5 -68.5t90.5 -15.5q59 4 100 40q40 36 40 57v90z" />
    <glyph glyph-name="aring" unicode="&#xe5;" 
d="M271 795q48 0 81.5 -33.5t33.5 -81.5t-33.5 -82t-81.5 -34t-82 34t-34 82t34 81.5t82 33.5zM271 745q-27 0 -46 -19t-19 -46q0 -28 19 -47t46 -19q28 0 46.5 19t18.5 47q0 27 -18.5 46t-46.5 19zM488 147q0 -78 60 -78v-69q-1 1 -10 0t-25 2.5t-32 9t-31.5 20.5t-23.5 35
q-23 -34 -77.5 -57t-105.5 -23q-98 0 -149.5 43.5t-51.5 113.5q0 61 47 103.5t162 60.5q20 4 58 6.5t65 3.5h28v33q-1 42 -27.5 74t-92.5 32q-100 0 -126 -81l-84 22q50 136 210 136q106 0 156 -55t50 -134v-198zM403 251l-123 -8q-48 -4 -80 -16q-69 -23 -69 -79
q0 -48 41.5 -68.5t90.5 -15.5q59 4 100 40q40 36 40 57v90z" />
    <glyph glyph-name="ae" unicode="&#xe6;" horiz-adv-x="950" 
d="M922 260q0 -21 -1 -33h-443q8 -73 57 -116.5t121 -43.5q54 0 95.5 25t63.5 69h89q-28 -79 -94.5 -125.5t-153.5 -46.5q-71 0 -129 33.5t-90 90.5q-15 -56 -66 -89.5t-140 -33.5q-98 0 -149 43t-51 114q0 142 208 165q20 4 58 6t66 2l28 1q-1 30 -2 43q-9 95 -119 95
q-102 0 -125 -81l-85 22q23 65 76.5 100.5t132.5 35.5q72 0 119.5 -29t60.5 -81q32 51 86.5 80.5t120.5 29.5q114 0 190 -78.5t76 -197.5zM533 413q-21 -21 -38 -53q-13 -30 -18 -66v-3h358q-3 39 -18 69q-17 32 -38 53q-50 45 -123 45q-72 0 -123 -45zM384 161q1 2 7 88
q-13 -2 -70.5 -5.5t-74.5 -5.5q-24 -3 -41.5 -7.5t-39.5 -14t-34 -27t-12 -42.5q0 -49 40.5 -69.5t89.5 -16.5q114 8 135 100z" />
    <glyph glyph-name="ccedilla" unicode="&#xe7;" horiz-adv-x="583" 
d="M296 66q62 0 107.5 33t63.5 90h86q-20 -81 -79.5 -134.5t-141.5 -63.5l-27 -51q12 2 29.5 -0.5t37.5 -11t33.5 -30t12.5 -52.5q-1 -28 -17 -48t-39 -28.5t-39.5 -11.5t-29.5 -3q-23 0 -61 12t-68 42l33 42q42 -36 88 -40q30 -3 49 10t21 30q1 21 -13 33t-39 12l-37 -4
l-29 39l33 59q-105 10 -172.5 85.5t-67.5 186.5q0 118 76 196.5t190 78.5q95 0 165 -55.5t92 -146.5h-87q-17 57 -62.5 90t-107.5 33q-82 0 -132.5 -54.5t-50.5 -141.5q0 -88 50.5 -142t132.5 -54z" />
    <glyph glyph-name="egrave" unicode="&#xe8;" horiz-adv-x="609" 
d="M341 573h-75l-133 158h104zM570 260q0 -21 -2 -34h-443q9 -72 57.5 -116.5t120.5 -44.5q54 0 95.5 26t63.5 70h90q-29 -79 -95.5 -126t-153.5 -47q-114 0 -189.5 77.5t-75.5 196.5q0 118 75.5 196t189.5 78t190.5 -79t76.5 -197zM482 291q-7 75 -56 121t-123 46
q-73 0 -122 -46t-57 -121h358z" />
    <glyph glyph-name="eacute" unicode="&#xe9;" horiz-adv-x="609" 
d="M367 731h104l-133 -158h-75zM570 260q0 -21 -2 -34h-443q9 -72 57.5 -116.5t120.5 -44.5q54 0 95.5 26t63.5 70h90q-29 -79 -95.5 -126t-153.5 -47q-114 0 -189.5 77.5t-75.5 196.5q0 118 75.5 196t189.5 78t190.5 -79t76.5 -197zM482 291q-7 75 -56 121t-123 46
q-73 0 -122 -46t-57 -121h358z" />
    <glyph glyph-name="ecircumflex" unicode="&#xea;" horiz-adv-x="609" 
d="M352 730l112 -158h-80l-81 97l-80 -97h-80l112 158h97zM570 260q0 -21 -2 -34h-443q9 -72 57.5 -116.5t120.5 -44.5q54 0 95.5 26t63.5 70h90q-29 -79 -95.5 -126t-153.5 -47q-114 0 -189.5 77.5t-75.5 196.5q0 118 75.5 196t189.5 78t190.5 -79t76.5 -197zM482 291
q-7 75 -56 121t-123 46q-73 0 -122 -46t-57 -121h358z" />
    <glyph glyph-name="edieresis" unicode="&#xeb;" horiz-adv-x="609" 
d="M244 658q0 22 -16 37.5t-38 15.5t-37 -15.5t-15 -37.5t15 -37.5t37 -15.5t38 15.5t16 37.5zM415 711q-22 0 -37.5 -15.5t-15.5 -37.5t15.5 -37.5t37.5 -15.5t38 15.5t16 37.5t-16 37.5t-38 15.5zM570 260q0 -21 -2 -34h-443q9 -72 57.5 -116.5t120.5 -44.5q54 0 95.5 26
t63.5 70h90q-29 -79 -95.5 -126t-153.5 -47q-114 0 -189.5 77.5t-75.5 196.5q0 118 75.5 196t189.5 78t190.5 -79t76.5 -197zM482 291q-7 75 -56 121t-123 46q-73 0 -122 -46t-57 -121h358z" />
    <glyph glyph-name="igrave" unicode="&#xec;" horiz-adv-x="324" 
d="M266 573h-75l-133 158h104zM266 522h-84v-522h84v522z" />
    <glyph glyph-name="iacute" unicode="&#xed;" horiz-adv-x="324" 
d="M164 731h104l-133 -158h-75zM139 522h-84v-522h84v522z" />
    <glyph glyph-name="icircumflex" unicode="&#xee;" horiz-adv-x="420" 
d="M258 730l112 -158h-80l-81 97l-80 -97h-80l112 158h97zM253 522h-84v-522h84v522z" />
    <glyph glyph-name="idieresis" unicode="&#xef;" horiz-adv-x="445" 
d="M163 658q0 22 -16 37.5t-38 15.5t-37 -15.5t-15 -37.5t15 -37.5t37 -15.5t38 15.5t16 37.5zM334 711q-22 0 -37.5 -15.5t-15.5 -37.5t15.5 -37.5t37.5 -15.5t38 15.5t16 37.5t-16 37.5t-38 15.5zM264 522h-84v-522h84v522z" />
    <glyph glyph-name="eth" unicode="&#xf0;" horiz-adv-x="668" 
d="M536 651q76 -99 76 -273q0 -99 -25.5 -176t-68.5 -122.5t-96.5 -68t-114.5 -22.5q-114 0 -184 71t-70 174q0 102 69.5 164.5t172.5 62.5q55 0 110.5 -20t84 -39.5t36.5 -30.5q-4 46 -6.5 69t-18.5 78.5t-40 89.5l-157 -90l-24 43l141 81q-47 44 -117 44q-46 0 -86 -14.5
t-57 -29.5l-17 -14l-52 56q3 3 8.5 9t25 20.5t41.5 25.5t59 20t77 9q116 0 199 -79l88 50l24 -43zM313 74q53 1 94 24t63.5 59t35 69.5t16.5 67.5q-121 83 -224 83q-70 0 -113.5 -42t-43.5 -102t42.5 -110.5t129.5 -48.5z" />
    <glyph glyph-name="ntilde" unicode="&#xf1;" horiz-adv-x="596" 
d="M414 721q-4 -54 -48 -54q-24 0 -71 28t-86 28q-95 0 -101 -123h62q4 53 48 53q25 0 71.5 -27.5t85.5 -27.5q95 0 101 123h-62zM328 534q98 0 152.5 -61.5t54.5 -177.5v-295h-85v282q0 30 -6.5 57.5t-21.5 55.5t-46 45t-74 17q-44 0 -77.5 -18.5t-49.5 -46t-23 -52
t-7 -44.5v-296h-85v521h85v-96q20 45 64.5 77t118.5 32z" />
    <glyph glyph-name="ograve" unicode="&#xf2;" horiz-adv-x="614" 
d="M341 573h-75l-133 158h104zM307 535q115 0 191 -77.5t76 -195.5t-76 -196t-191 -78t-191 77.5t-76 196.5q0 118 76 195.5t191 77.5zM307 65q82 0 132.5 54.5t50.5 142.5q0 86 -50.5 140.5t-132.5 54.5q-81 0 -132 -54.5t-51 -141.5t51 -141.5t132 -54.5z" />
    <glyph glyph-name="oacute" unicode="&#xf3;" horiz-adv-x="614" 
d="M364 731h104l-133 -158h-75zM307 535q115 0 191 -77.5t76 -195.5t-76 -196t-191 -78t-191 77.5t-76 196.5q0 118 76 195.5t191 77.5zM307 65q82 0 132.5 54.5t50.5 142.5q0 86 -50.5 140.5t-132.5 54.5q-81 0 -132 -54.5t-51 -141.5t51 -141.5t132 -54.5z" />
    <glyph glyph-name="ocircumflex" unicode="&#xf4;" horiz-adv-x="614" 
d="M356 730l112 -158h-80l-81 97l-80 -97h-80l112 158h97zM307 535q115 0 191 -77.5t76 -195.5t-76 -196t-191 -78t-191 77.5t-76 196.5q0 118 76 195.5t191 77.5zM307 65q82 0 132.5 54.5t50.5 142.5q0 86 -50.5 140.5t-132.5 54.5q-81 0 -132 -54.5t-51 -141.5t51 -141.5
t132 -54.5z" />
    <glyph glyph-name="otilde" unicode="&#xf5;" horiz-adv-x="614" 
d="M413 719q-4 -54 -48 -54q-24 0 -71 28t-86 28q-95 0 -101 -123h62q4 53 48 53q25 0 71.5 -27.5t85.5 -27.5q95 0 101 123h-62zM307 535q115 0 191 -77.5t76 -195.5t-76 -196t-191 -78t-191 77.5t-76 196.5q0 118 76 195.5t191 77.5zM307 65q82 0 132.5 54.5t50.5 142.5
q0 86 -50.5 140.5t-132.5 54.5q-81 0 -132 -54.5t-51 -141.5t51 -141.5t132 -54.5z" />
    <glyph glyph-name="odieresis" unicode="&#xf6;" horiz-adv-x="614" 
d="M247 658q0 22 -16 37.5t-38 15.5t-37 -15.5t-15 -37.5t15 -37.5t37 -15.5t38 15.5t16 37.5zM418 711q-22 0 -37.5 -15.5t-15.5 -37.5t15.5 -37.5t37.5 -15.5t38 15.5t16 37.5t-16 37.5t-38 15.5zM307 535q115 0 191 -77.5t76 -195.5t-76 -196t-191 -78t-191 77.5
t-76 196.5q0 118 76 195.5t191 77.5zM307 65q82 0 132.5 54.5t50.5 142.5q0 86 -50.5 140.5t-132.5 54.5q-81 0 -132 -54.5t-51 -141.5t51 -141.5t132 -54.5z" />
    <glyph glyph-name="divide" unicode="&#xf7;" horiz-adv-x="576" 
d="M288 578q-24 0 -40.5 -16.5t-16.5 -40.5q0 -23 16.5 -40t40.5 -17q23 0 40 17t17 40q0 24 -17 40.5t-40 16.5zM24 360v-85h528v85h-528zM345 114q0 24 -17 40.5t-40 16.5q-24 0 -40.5 -16.5t-16.5 -40.5q0 -23 16.5 -39.5t40.5 -16.5q23 0 40 16.5t17 39.5z" />
    <glyph glyph-name="oslash" unicode="&#xf8;" horiz-adv-x="665" 
d="M539 440q60 -74 60 -178q0 -119 -76 -196.5t-191 -77.5q-79 0 -143 39l-69 -81l-65 55l70 83q-59 75 -59 178q0 118 76 195.5t190 78.5q79 0 143 -39l69 82l66 -56zM150 262q0 -67 29 -114l244 288q-41 22 -91 22q-81 0 -131.5 -55t-50.5 -141zM515 262q0 68 -30 114
l-244 -288q40 -23 91 -23q82 0 132.5 55t50.5 142z" />
    <glyph glyph-name="ugrave" unicode="&#xf9;" horiz-adv-x="595" 
d="M336 573h-75l-133 158h104zM267 -13q-98 0 -152.5 61.5t-54.5 177.5v295h85v-282q0 -30 6.5 -57.5t21.5 -55.5t46 -45t74 -17q44 0 77.5 18.5t49.5 46t23 52t7 44.5v296h85v-521h-85v96q-20 -45 -64.5 -77t-118.5 -32z" />
    <glyph glyph-name="uacute" unicode="&#xfa;" horiz-adv-x="595" 
d="M349 731h104l-133 -158h-75zM267 -13q-98 0 -152.5 61.5t-54.5 177.5v295h85v-282q0 -30 6.5 -57.5t21.5 -55.5t46 -45t74 -17q44 0 77.5 18.5t49.5 46t23 52t7 44.5v296h85v-521h-85v96q-20 -45 -64.5 -77t-118.5 -32z" />
    <glyph glyph-name="ucircumflex" unicode="&#xfb;" horiz-adv-x="595" 
d="M341 730l112 -158h-80l-81 97l-80 -97h-80l112 158h97zM267 -13q-98 0 -152.5 61.5t-54.5 177.5v295h85v-282q0 -30 6.5 -57.5t21.5 -55.5t46 -45t74 -17q44 0 77.5 18.5t49.5 46t23 52t7 44.5v296h85v-521h-85v96q-20 -45 -64.5 -77t-118.5 -32z" />
    <glyph glyph-name="udieresis" unicode="&#xfc;" horiz-adv-x="595" 
d="M234 658q0 22 -16 37.5t-38 15.5t-37 -15.5t-15 -37.5t15 -37.5t37 -15.5t38 15.5t16 37.5zM405 711q-22 0 -37.5 -15.5t-15.5 -37.5t15.5 -37.5t37.5 -15.5t38 15.5t16 37.5t-16 37.5t-38 15.5zM267 -13q-98 0 -152.5 61.5t-54.5 177.5v295h85v-282q0 -30 6.5 -57.5
t21.5 -55.5t46 -45t74 -17q44 0 77.5 18.5t49.5 46t23 52t7 44.5v296h85v-521h-85v96q-20 -45 -64.5 -77t-118.5 -32z" />
    <glyph glyph-name="yacute" unicode="&#xfd;" horiz-adv-x="575" 
d="M337 731h104l-133 -158h-75zM517 523q-42 -117 -139 -377t-139 -377h-86l100 276l-193 478h99q21 -56 124 -330q3 -7 10.5 -6.5t10.5 7.5l118 329h95z" />
    <glyph glyph-name="thorn" unicode="&#xfe;" horiz-adv-x="587" 
d="M300 529q111 0 179.5 -77t68.5 -197t-68.5 -197t-181.5 -77q-58 0 -103 25.5t-66 68.5v-312h-90v991h85v-318q63 93 176 93zM290 59q80 0 126.5 53.5t46.5 141.5t-46.5 142.5t-125.5 54.5t-125.5 -53.5t-46.5 -144.5t46.5 -142.5t124.5 -51.5z" />
    <glyph glyph-name="ydieresis" unicode="&#xff;" horiz-adv-x="575" 
d="M231 658q0 22 -16 37.5t-38 15.5t-37 -15.5t-15 -37.5t15 -37.5t37 -15.5t38 15.5t16 37.5zM402 711q-22 0 -37.5 -15.5t-15.5 -37.5t15.5 -37.5t37.5 -15.5t38 15.5t16 37.5t-16 37.5t-38 15.5zM517 523q-42 -117 -139 -377t-139 -377h-86l100 276l-193 478h99
q21 -56 124 -330q3 -7 10.5 -6.5t10.5 7.5l118 329h95z" />
    <glyph glyph-name="dotlessi" unicode="&#x131;" horiz-adv-x="257" 
d="M170 522h-84v-522h84v522z" />
    <glyph glyph-name="Lslash" unicode="&#x141;" horiz-adv-x="609" 
d="M578 84v-84h-438v331l-110 -37v76l110 37v346h84v-318l167 56v-76l-167 -56v-275h354z" />
    <glyph glyph-name="lslash" unicode="&#x142;" horiz-adv-x="342" 
d="M312 398l-99 -43v-355h-84v319l-99 -43v76l99 42v359h84v-322l99 42v-75z" />
    <glyph glyph-name="OE" unicode="&#x152;" horiz-adv-x="1158" 
d="M755 671v-246h324v-82h-324v-262h375v-81h-456v141q-43 -73 -116 -114t-165 -41q-162 0 -264 110t-102 280q0 171 102 280.5t264 109.5q92 0 165 -41t116 -113v140h456v-81h-375zM393 70q124 0 200.5 81.5t79.5 218.5l1 12q2 128 -76.5 214t-205.5 86q-126 0 -203 -85.5
t-77 -220.5t77 -220.5t204 -85.5z" />
    <glyph glyph-name="oe" unicode="&#x153;" horiz-adv-x="1039" 
d="M1013 259q0 -21 -1 -34h-443q8 -72 57 -116.5t121 -44.5q54 0 95.5 26t63.5 70h89q-27 -79 -93.5 -125.5t-154.5 -46.5q-76 0 -136 37t-91 102q-30 -64 -90.5 -101.5t-137.5 -37.5q-114 0 -190 77.5t-76 195.5q0 119 76 196.5t190 78.5q77 -1 137.5 -38.5t90.5 -101.5
q31 64 91.5 102t135.5 38q114 0 190 -79t76 -198zM292 457q-81 0 -132 -54.5t-51 -141.5t51 -142t132 -55q82 0 132.5 55t50.5 142t-50.5 141.5t-132.5 54.5zM926 290q-7 74 -56 120t-123 46q-73 0 -122 -46t-57 -120h358z" />
    <glyph glyph-name="Scaron" unicode="&#x160;" horiz-adv-x="670" 
d="M483 938l-109 -135h-89l-109 135h81l73 -77l72 77h81zM338 424q150 -35 217.5 -80t67.5 -136q0 -103 -75 -162t-200 -59q-131 0 -210 64t-91 167h84q12 -60 64 -105.5t152 -45.5q94 0 142.5 40.5t48.5 95.5q0 26 -13.5 47.5t-30.5 34.5t-49 25.5t-53.5 18.5t-59.5 15
q-153 37 -216 80.5t-62 128.5q2 93 72 153.5t198 60.5q127 0 204 -61.5t92 -169.5h-83q-15 65 -65.5 108.5t-148.5 43.5q-95 0 -140 -40t-45 -94q0 -53 46.5 -79t153.5 -51z" />
    <glyph glyph-name="scaron" unicode="&#x161;" horiz-adv-x="498" 
d="M395 727l-108 -149h-91l-108 149h81l72 -83l73 83h81zM368 371q-19 91 -122 91q-61 0 -86 -27t-25 -55q0 -31 30.5 -47.5t94.5 -30.5q37 -8 56 -13t50 -17.5t46.5 -27t28 -40t12.5 -58.5q0 -74 -53.5 -116t-142.5 -42q-97 0 -151.5 48.5t-61.5 116.5h84q6 -35 36 -63.5
t91 -28.5q50 0 83 21.5t33 63.5q0 36 -28 52.5t-96 33.5q-108 26 -153 54.5t-45 92.5q0 26 9 51.5t30 50t60.5 40t93.5 15.5q99 0 150.5 -48.5t58.5 -116.5h-83z" />
    <glyph glyph-name="Ydieresis" unicode="&#x178;" horiz-adv-x="688" 
d="M227 882q0 22 -16 38t-38 16t-37.5 -16t-15.5 -38t15.5 -37.5t37.5 -15.5t38 15.5t16 37.5zM570 882q0 22 -16 38t-38 16t-37.5 -16t-15.5 -38t15.5 -37.5t37.5 -15.5t38 15.5t16 37.5zM533 752h97l-244 -437v-315h-84v315l-244 437h97l189 -345z" />
    <glyph glyph-name="Zcaron" unicode="&#x17d;" horiz-adv-x="691" 
d="M483 938l-109 -135h-89l-109 135h81l73 -77l72 77h81zM633 752v-83l-470 -588h470v-81h-576v82l469 588h-468v82h575z" />
    <glyph glyph-name="zcaron" unicode="&#x17e;" horiz-adv-x="508" 
d="M401 727l-108 -149h-91l-108 149h81l72 -83l73 83h81zM450 481l-276 -401h276v-80h-392v42l276 401h-276v80h392v-42z" />
    <glyph glyph-name="circumflex" unicode="&#x2c6;" horiz-adv-x="444" 
d="M270 731l112 -158h-80l-81 97l-80 -97h-80l112 158h97z" />
    <glyph glyph-name="ring" unicode="&#x2da;" horiz-adv-x="339" 
d="M169 801q51 0 87 -36t36 -87q0 -50 -36 -86t-87 -36t-87 36t-36 86q0 51 36 87t87 36zM169 606q30 0 51 21.5t21 50.5t-21 50.5t-51 21.5t-50.5 -21t-20.5 -51t20.5 -51t50.5 -21z" />
    <glyph glyph-name="tilde" unicode="&#x2dc;" horiz-adv-x="478" 
d="M361 717q-4 -54 -48 -54q-24 0 -71 28t-86 28q-95 0 -101 -123h62q4 53 48 53q25 0 71.5 -27.5t85.5 -27.5q95 0 101 123h-62z" />
    <glyph glyph-name="endash" unicode="&#x2013;" horiz-adv-x="712" 
d="M58 358v-85h596v85h-596z" />
    <glyph glyph-name="emdash" unicode="&#x2014;" horiz-adv-x="818" 
d="M58 360v-85h702v85h-702z" />
    <glyph glyph-name="quoteleft" unicode="&#x2018;" horiz-adv-x="272" 
d="M125 481q-63 0 -63 84q0 13 2.5 29.5t11.5 43.5t24 49t43.5 42t66.5 26v-45q-25 -8 -54.5 -43t-32.5 -73q25 0 42 -17t17 -40t-17 -39.5t-40 -16.5z" />
    <glyph glyph-name="quoteright" unicode="&#x2019;" horiz-adv-x="272" 
d="M146 755q63 0 63 -84q0 -13 -2.5 -29.5t-11.5 -43.5t-24 -49t-43.5 -42t-66.5 -26v45q25 8 54.5 43t32.5 73q-25 0 -42 17t-17 40t17 39.5t40 16.5z" />
    <glyph glyph-name="quotesinglbase" unicode="&#x201a;" horiz-adv-x="272" 
d="M146 111q63 0 63 -84q0 -13 -2.5 -29.5t-11.5 -43.5t-24 -49t-43.5 -42t-66.5 -26v45q25 8 54.5 43t32.5 73q-25 0 -42 17t-17 40t17 39.5t40 16.5z" />
    <glyph glyph-name="quotedblleft" unicode="&#x201c;" horiz-adv-x="502" 
d="M160 481q-63 0 -63 84q0 13 2.5 29.5t11.5 43.5t24 49t43.5 42t66.5 26v-45q-25 -8 -54.5 -43t-32.5 -73q25 0 42 -17t17 -40t-17 -39.5t-40 -16.5zM321 481q-63 0 -63 84q0 13 2.5 29.5t11.5 43.5t24 49t43.5 42t66.5 26v-45q-25 -8 -54.5 -43t-32.5 -73q25 0 42 -17
t17 -40t-17 -39.5t-40 -16.5z" />
    <glyph glyph-name="quotedblright" unicode="&#x201d;" horiz-adv-x="502" 
d="M181 755q63 0 63 -84q0 -13 -2.5 -29.5t-11.5 -43.5t-24 -49t-43.5 -42t-66.5 -26v45q25 8 54.5 43t32.5 73q-25 0 -42 17t-17 40t17 39.5t40 16.5zM342 755q63 0 63 -84q0 -13 -2.5 -29.5t-11.5 -43.5t-24 -49t-43.5 -42t-66.5 -26v45q25 8 54.5 43t32.5 73
q-25 0 -42 17t-17 40t17 39.5t40 16.5z" />
    <glyph glyph-name="quotedblbase" unicode="&#x201e;" horiz-adv-x="502" 
d="M174 111q63 0 63 -84q0 -13 -2.5 -29.5t-11.5 -43.5t-24 -49t-43.5 -42t-66.5 -26v45q25 8 54.5 43t32.5 73q-25 0 -42 17t-17 40t17 39.5t40 16.5zM348 111q63 0 63 -84q0 -13 -2.5 -29.5t-11.5 -43.5t-24 -49t-43.5 -42t-66.5 -26v45q25 8 54.5 43t32.5 73
q-25 0 -42 17t-17 40t17 39.5t40 16.5z" />
    <glyph glyph-name="dagger" unicode="&#x2020;" horiz-adv-x="509" 
d="M463 491h-167v-345h-84v345h-167v84h167v185h84v-185h167v-84z" />
    <glyph glyph-name="daggerdbl" unicode="&#x2021;" horiz-adv-x="518" 
d="M301 491v-221h166v-85h-166v-185h-85v185h-166v85h166v221h-166v85h166v185h85v-185h166v-85h-166z" />
    <glyph glyph-name="bullet" unicode="&#x2022;" horiz-adv-x="552" 
d="M483 344q0 86 -61 146.5t-147 60.5t-146.5 -60.5t-60.5 -146.5t60.5 -147t146.5 -61t147 61t61 147z" />
    <glyph glyph-name="ellipsis" unicode="&#x2026;" horiz-adv-x="684" 
d="M580 54q0 23 -16.5 39.5t-39.5 16.5q-24 0 -40.5 -16.5t-16.5 -39.5q0 -24 16.5 -40.5t40.5 -16.5q23 0 39.5 16.5t16.5 40.5zM398 49q0 24 -16.5 40.5t-39.5 16.5q-24 0 -40.5 -16t-16.5 -41q0 -23 16.5 -39.5t40.5 -16.5t40 16.5t16 39.5zM216 47q0 24 -16.5 40.5
t-39.5 16.5q-24 0 -40.5 -16.5t-16.5 -40.5q0 -23 16.5 -39.5t40.5 -16.5q23 0 39.5 16.5t16.5 39.5z" />
    <glyph glyph-name="perthousand" unicode="&#x2030;" horiz-adv-x="1214" 
d="M203 766q78 0 129.5 -52.5t51.5 -132.5q0 -81 -51.5 -133.5t-129.5 -52.5t-130 52.5t-52 133.5q0 80 52 132.5t130 52.5zM778 753h-78l-570 -753h78zM203 457q51 0 83 34t32 89t-32 88.5t-83 33.5q-52 0 -83.5 -33.5t-31.5 -88.5t31.5 -89t83.5 -34zM1012 358
q78 0 129.5 -52.5t51.5 -132.5q0 -81 -51.5 -133.5t-129.5 -52.5q-51 0 -91.5 24t-61.5 66q-21 -42 -61.5 -66t-91.5 -24q-78 0 -130 52.5t-52 133.5q0 80 52 132.5t130 52.5q50 0 91 -24.5t62 -65.5q21 41 62 65.5t91 24.5zM706 49q51 0 83 34.5t32 88.5q0 55 -32 88.5
t-83 33.5q-52 0 -83.5 -33.5t-31.5 -88.5q0 -54 32 -88.5t83 -34.5zM1012 49q51 0 83 34.5t32 88.5q0 55 -32 88.5t-83 33.5q-52 0 -83.5 -33.5t-31.5 -88.5q0 -54 32 -88.5t83 -34.5z" />
    <glyph glyph-name="guilsinglleft" unicode="&#x2039;" horiz-adv-x="382" 
d="M230 522h92l-170 -224l170 -224h-92l-170 224z" />
    <glyph glyph-name="guilsinglright" unicode="&#x203a;" horiz-adv-x="382" 
d="M322 298l-170 -224h-92l170 224l-170 224h92z" />
    <glyph glyph-name="fraction" unicode="&#x2044;" horiz-adv-x="493" 
d="M38 -49h78l338 872h-78z" />
    <glyph glyph-name="Euro" unicode="&#x20ac;" horiz-adv-x="731" 
d="M691 72q-88 -83 -222 -83q-124 0 -211 72t-112 191h-108v75h96q0 4 -0.5 12t-0.5 11q0 4 0.5 11.5t0.5 11.5h-96v75h108q25 119 112 191t211 72q134 0 223 -83l-46 -74q-65 76 -177 76q-89 0 -150.5 -49.5t-82.5 -132.5h346q-1 -1 -23 -37t-23 -38h-317v-23v-23h291
q-1 -2 -22.5 -38t-22.5 -37h-229q21 -83 82.5 -132t150.5 -49q109 0 177 74z" />
    <glyph glyph-name="trademark" unicode="&#x2122;" horiz-adv-x="967" 
d="M57 754h316v-57h-127v-338h-56v338h-133v57zM910 754v-395h-57v282l-145 -282h-57l-145 282v-282h-56v395h58l172 -336l171 336h59z" />
    <glyph glyph-name="arrowleft" unicode="&#x2190;" horiz-adv-x="668" 
d="M642 352h-453l106 -107l-60 -60l-209 209l209 210l60 -60l-106 -107h453v-85z" />
    <glyph glyph-name="arrowup" unicode="&#x2191;" horiz-adv-x="512" 
d="M214 77l-1 453l-107 -107l-60 61l209 209l210 -209l-60 -60l-107 105v-452h-84z" />
    <glyph glyph-name="arrowright" unicode="&#x2192;" horiz-adv-x="668" 
d="M26 437h453l-106 107l60 60l209 -210l-209 -209l-60 60l106 107h-453v85z" />
    <glyph glyph-name="arrowdown" unicode="&#x2193;" horiz-adv-x="512" 
d="M298 710v-452l107 105l60 -60l-210 -209l-209 209l60 61l107 -107l1 453h84z" />
    <glyph glyph-name="uni2196" unicode="&#x2196;" horiz-adv-x="541" 
d="M443 146l-319 320l-2 -150h-85l1 296h296v-85h-151l320 -321z" />
    <glyph glyph-name="uni2197" unicode="&#x2197;" horiz-adv-x="540" 
d="M37 203l320 321h-151v85h296l1 -296h-85l-2 150l-319 -320z" />
    <glyph glyph-name="uni2198" unicode="&#x2198;" horiz-adv-x="542" 
d="M98 635l321 -320v151h85v-296l-296 -1v85l150 2l-320 319z" />
    <glyph glyph-name="uni2199" unicode="&#x2199;" horiz-adv-x="542" 
d="M504 575l-320 -319l150 -2v-85l-296 1v296h85v-151l321 320z" />
    <glyph glyph-name="minus" unicode="&#x2212;" horiz-adv-x="644" 
d="M58 359v-85h528v85h-528z" />
    <glyph glyph-name="filledbox" unicode="&#x25a0;" horiz-adv-x="815" 
d="M770 -1v771h-725v-771h725z" />
    <glyph glyph-name="uni25A1" unicode="&#x25a1;" horiz-adv-x="822" 
d="M775 770h-729v-770h729v770zM130 685h560v-600h-560v600z" />
    <glyph glyph-name="triagup" unicode="&#x25b2;" horiz-adv-x="926" 
d="M913 0l-450 780l-450 -780h900z" />
    <glyph glyph-name="uni25B3" unicode="&#x25b3;" horiz-adv-x="933" 
d="M466 782l-452 -782h904zM466 613l304 -529h-610z" />
    <glyph glyph-name="circle" unicode="&#x25cb;" horiz-adv-x="830" 
d="M414 -4q78 0 151 31q68 27 125 83q54 55 83 124q30 72 30 151t-30 151q-30 70 -83 124q-54 53 -125 83q-73 31 -151 31q-77 0 -151 -31q-69 -29 -124 -83q-53 -54 -83 -124q-30 -72 -30 -151q0 -81 30 -151q29 -69 83 -124q55 -55 124 -83q74 -31 151 -31zM199 600
q42 42 96 65q57 24 119 24t119 -24q53 -22 96 -65q42 -42 65 -97q24 -55 24 -118t-24 -119q-23 -55 -65 -97t-97 -65q-57 -23 -118 -23t-118 23q-55 23 -97 65q-43 45 -65 97q-24 56 -24 119t24 118q22 52 65 97z" />
    <glyph glyph-name="uni25CF" unicode="&#x25cf;" horiz-adv-x="848" 
d="M424 -6q79 0 153 31q71 30 126 85q54 54 84 125q31 72 31 154q0 81 -31 153q-30 71 -84 125q-52 54 -126 85q-71 31 -153 31t-154 -31t-125 -85q-56 -56 -84 -125q-31 -72 -31 -153q0 -82 31 -154q28 -69 84 -125q55 -55 125 -85q76 -31 154 -31z" />
    <glyph glyph-name="uni2713" unicode="&#x2713;" horiz-adv-x="812" 
d="M814 727l-67 53l-514 -649l-171 197l-64 -55l239 -275z" />
    <glyph glyph-name="uni2715" unicode="&#x2715;" horiz-adv-x="847" 
d="M484 384l324 -324l-60 -60l-324 325l-325 -325l-60 60l325 324l-325 325l60 60l325 -325l324 325l60 -60z" />
    <glyph glyph-name="uni2780" unicode="&#x2780;" horiz-adv-x="834" 
d="M418 -11q78 0 149 31q64 27 123 82q52 52 83 123q29 72 29 149q0 78 -29 150q-33 76 -83 123q-53 53 -123 82q-71 31 -149 31q-76 0 -152 -31q-65 -27 -120 -82q-51 -50 -83 -123q-30 -67 -30 -150q0 -82 30 -149q31 -71 83 -123q53 -54 120 -82q76 -31 152 -31zM418 703
q134 0 230 -96q97 -97 97 -233q0 -135 -97 -232q-96 -96 -230 -96q-136 0 -232 96q-96 98 -96 232q0 135 96 233q96 96 232 96zM358 513q24 0 40.5 15.5t16.5 39.5v24h49v-437h-49v309h-73v49h16z" />
    <glyph glyph-name="uni2781" unicode="&#x2781;" horiz-adv-x="834" 
d="M418 -11q78 0 149 31q64 27 123 82q52 52 83 123q29 72 29 149q0 78 -29 150q-33 76 -83 123q-53 53 -123 82q-71 31 -149 31q-76 0 -152 -31q-65 -27 -120 -82q-51 -50 -83 -123q-30 -67 -30 -150q0 -82 30 -149q31 -71 83 -123q53 -54 120 -82q76 -31 152 -31zM418 703
q134 0 230 -96q97 -97 97 -233q0 -135 -97 -232q-96 -96 -230 -96q-136 0 -232 96q-96 98 -96 232q0 135 96 233q96 96 232 96zM560 473q0 -38 -22 -74.5t-50 -62t-63 -62t-53 -69.5h179v-50h-260q11 46 63 111q24 31 65.5 74.5t50.5 54.5q36 45 35 81q0 31 -20.5 51
t-55.5 20q-37 0 -58.5 -22t-24.5 -63h-50q0 54 35 95t98 41q59 0 95 -36t36 -89z" />
    <glyph glyph-name="uni2782" unicode="&#x2782;" horiz-adv-x="834" 
d="M418 -11q78 0 149 31q64 27 123 82q52 52 83 123q29 72 29 149q0 78 -29 150q-33 76 -83 123q-53 53 -123 82q-71 31 -149 31q-76 0 -152 -31q-65 -27 -120 -82q-51 -50 -83 -123q-30 -67 -30 -150q0 -82 30 -149q31 -71 83 -123q53 -54 120 -82q76 -31 152 -31zM418 703
q134 0 230 -96q97 -97 97 -233q0 -135 -97 -232q-96 -96 -230 -96q-136 0 -232 96q-96 98 -96 232q0 135 96 233q96 96 232 96zM432 420q58 -7 94.5 -41t36.5 -86q0 -57 -37 -101t-112 -44q-68 0 -105 35.5t-48 81.5l51 13q7 -32 31.5 -56t69.5 -24q47 0 73.5 27t26.5 65
q0 37 -27 59.5t-69 24.5q-11 0 -24 -1.5t-21 -3.5t-10 -1l-11 38q9 9 23.5 23t45.5 43.5t50.5 49.5t18.5 21h-202v48h269v-48z" />
    <glyph glyph-name="uni2783" unicode="&#x2783;" horiz-adv-x="834" 
d="M418 -11q78 0 149 31q64 27 123 82q52 52 83 123q29 72 29 149q0 78 -29 150q-33 76 -83 123q-53 53 -123 82q-71 31 -149 31q-76 0 -152 -31q-65 -27 -120 -82q-51 -50 -83 -123q-30 -67 -30 -150q0 -82 30 -149q31 -71 83 -123q53 -54 120 -82q76 -31 152 -31zM418 703
q134 0 230 -96q97 -97 97 -233q0 -135 -97 -232q-96 -96 -230 -96q-136 0 -232 96q-96 98 -96 232q0 135 96 233q96 96 232 96zM542 273h-48v-117h-50v117h-209v50l209 270h50v-270h48v-50zM444 323v191l-151 -191h151z" />
    <glyph glyph-name="uni2784" unicode="&#x2784;" horiz-adv-x="834" 
d="M418 -11q78 0 149 31q64 27 123 82q52 52 83 123q29 72 29 149q0 78 -29 150q-33 76 -83 123q-53 53 -123 82q-71 31 -149 31q-76 0 -152 -31q-65 -27 -120 -82q-51 -50 -83 -123q-30 -67 -30 -150q0 -82 30 -149q31 -71 83 -123q53 -54 120 -82q76 -31 152 -31zM418 703
q134 0 230 -96q97 -97 97 -233q0 -135 -97 -232q-96 -96 -230 -96q-136 0 -232 96q-96 98 -96 232q0 135 96 233q96 96 232 96zM432 438q66 0 104 -37.5t38 -98.5q0 -62 -37.5 -107t-112.5 -45q-67 0 -104.5 35.5t-48.5 81.5l50 11q6 -29 30.5 -54.5t70.5 -25.5t74 29t28 73
q0 40 -25 65t-72 25q-24 0 -46.5 -7t-33.5 -14l-11 -7l-50 11l20 220h242v-50h-197l-12 -126q38 21 93 21z" />
    <glyph glyph-name="uni2785" unicode="&#x2785;" horiz-adv-x="834" 
d="M418 -11q78 0 149 31q64 27 123 82q52 52 83 123q29 72 29 149q0 78 -29 150q-33 76 -83 123q-53 53 -123 82q-71 31 -149 31q-76 0 -152 -31q-65 -27 -120 -82q-51 -50 -83 -123q-30 -67 -30 -150q0 -82 30 -149q31 -71 83 -123q53 -54 120 -82q76 -31 152 -31zM418 703
q134 0 230 -96q97 -97 97 -233q0 -135 -97 -232q-96 -96 -230 -96q-136 0 -232 96q-96 98 -96 232q0 135 96 233q96 96 232 96zM483 591l-115 -193q30 22 64 21q63 -2 94.5 -37.5t31.5 -91.5q0 -60 -36 -101t-107 -41q-66 0 -101.5 42.5t-35.5 98.5q0 13 1 24.5t4.5 22.5
t5.5 18.5t7 17.5t7.5 14.5t8.5 14.5t7 12l108 178h56zM417 196q42 0 66.5 25.5t24.5 66.5t-25 65.5t-63 24.5q-37 0 -64.5 -24t-27.5 -66q0 -40 24 -66t65 -26z" />
    <glyph glyph-name="uni2787" unicode="&#x2787;" horiz-adv-x="834" 
d="M418 -11q78 0 149 31q64 27 123 82q52 52 83 123q29 72 29 149q0 78 -29 150q-33 76 -83 123q-53 53 -123 82q-71 31 -149 31q-76 0 -152 -31q-65 -27 -120 -82q-51 -50 -83 -123q-30 -67 -30 -150q0 -82 30 -149q31 -71 83 -123q53 -54 120 -82q76 -31 152 -31zM418 703
q134 0 230 -96q97 -97 97 -233q0 -135 -97 -232q-96 -96 -230 -96q-136 0 -232 96q-96 98 -96 232q0 135 96 233q96 96 232 96zM292 485q0 49 35.5 82.5t88.5 33.5t89 -33.5t36 -82.5q0 -62 -54 -93v-1q33 -15 53 -43.5t20 -65.5q0 -56 -41.5 -94t-102.5 -38q-60 0 -102 38
t-42 94q0 37 19.5 66t53.5 43v1q-53 31 -53 93zM416 551q-30 0 -49.5 -19.5t-19.5 -49.5q0 -29 19.5 -48t49.5 -19t49.5 19t19.5 48q0 30 -19.5 49.5t-49.5 19.5zM416 200q37 0 61.5 23.5t24.5 58.5q0 37 -24 60.5t-62 23.5t-62 -23.5t-24 -60.5q0 -35 24.5 -58.5
t61.5 -23.5z" />
    <glyph glyph-name="uni2788" unicode="&#x2788;" horiz-adv-x="834" 
d="M418 -11q78 0 149 31q64 27 123 82q52 52 83 123q29 72 29 149q0 78 -29 150q-33 76 -83 123q-53 53 -123 82q-71 31 -149 31q-76 0 -152 -31q-65 -27 -120 -82q-51 -50 -83 -123q-30 -67 -30 -150q0 -82 30 -149q31 -71 83 -123q53 -54 120 -82q76 -31 152 -31zM418 703
q134 0 230 -96q97 -97 97 -233q0 -135 -97 -232q-96 -96 -230 -96q-136 0 -232 96q-96 98 -96 232q0 135 96 233q96 96 232 96zM353 148l115 193q-30 -22 -64 -21q-64 2 -95 37.5t-31 91.5q0 61 35.5 101.5t106.5 40.5q66 0 102 -43t36 -98q0 -13 -1 -24.5t-4.5 -22.5
t-5.5 -18.5t-7 -17.5t-7.5 -14.5t-8.5 -14.5t-7 -12l-108 -178h-56zM419 543q-42 0 -66.5 -25.5t-24.5 -66.5t24.5 -65.5t62.5 -24.5t65.5 23.5t27.5 66.5q0 40 -24 66t-65 26z" />
    <glyph glyph-name="uni2BC5" unicode="&#x2bc5;" horiz-adv-x="528" 
d="M113 284l151 149l148 -148l60 59l-208 210l-209 -211z" />
    <glyph glyph-name="uni2BC6" unicode="&#x2bc6;" horiz-adv-x="528" 
d="M55 495l209 -211l208 210l-60 59l-148 -148l-151 149z" />
    <glyph glyph-name="uni2BC7" unicode="&#x2bc7;" horiz-adv-x="369" 
d="M319 245l-149 150l149 149l-59 60l-210 -209l210 -209z" />
    <glyph glyph-name="uni2BC8" unicode="&#x2bc8;" horiz-adv-x="369" 
d="M109 186l210 209l-210 209l-59 -60l149 -149l-149 -150z" />
    <glyph glyph-name="NULL" horiz-adv-x="0" 
 />
    <glyph glyph-name="a.alt" 
d="M287 534q115 0 177 -95v86h85v-525h-85v78q-63 -92 -176 -92q-111 0 -179.5 77t-68.5 197t68.5 197t178.5 77zM297 456q-79 0 -125.5 -54t-46.5 -142t46.5 -142t126.5 -54q69 0 115.5 40t52.5 103q3 15 3 72q0 78 -47 127.5t-125 49.5z" />
    <glyph glyph-name="agrave.alt" 
d="M328 573h-75l-133 158h104zM287 534q115 0 177 -95v86h85v-525h-85v78q-63 -92 -176 -92q-111 0 -179.5 77t-68.5 197t68.5 197t178.5 77zM297 456q-79 0 -125.5 -54t-46.5 -142t46.5 -142t126.5 -54q69 0 115.5 40t52.5 103q3 15 3 72q0 78 -47 127.5t-125 49.5z" />
    <glyph glyph-name="aacute.alt" 
d="M341 731h104l-133 -158h-75zM287 534q115 0 177 -95v86h85v-525h-85v78q-63 -92 -176 -92q-111 0 -179.5 77t-68.5 197t68.5 197t178.5 77zM297 456q-79 0 -125.5 -54t-46.5 -142t46.5 -142t126.5 -54q69 0 115.5 40t52.5 103q3 15 3 72q0 78 -47 127.5t-125 49.5z" />
    <glyph glyph-name="acircumflex.alt" 
d="M336 730l112 -158h-80l-81 97l-80 -97h-80l112 158h97zM287 534q115 0 177 -95v86h85v-525h-85v78q-63 -92 -176 -92q-111 0 -179.5 77t-68.5 197t68.5 197t178.5 77zM297 456q-79 0 -125.5 -54t-46.5 -142t46.5 -142t126.5 -54q69 0 115.5 40t52.5 103q3 15 3 72
q0 78 -47 127.5t-125 49.5z" />
    <glyph glyph-name="atilde.alt" 
d="M405 719q-4 -54 -48 -54q-24 0 -71 28t-86 28q-95 0 -101 -123h62q4 53 48 53q25 0 71.5 -27.5t85.5 -27.5q95 0 101 123h-62zM287 534q115 0 177 -95v86h85v-525h-85v78q-63 -92 -176 -92q-111 0 -179.5 77t-68.5 197t68.5 197t178.5 77zM297 456q-79 0 -125.5 -54
t-46.5 -142t46.5 -142t126.5 -54q69 0 115.5 40t52.5 103q3 15 3 72q0 78 -47 127.5t-125 49.5z" />
    <glyph glyph-name="adieresis.alt" 
d="M241 658q0 22 -16 37.5t-38 15.5t-37 -15.5t-15 -37.5t15 -37.5t37 -15.5t38 15.5t16 37.5zM412 711q-22 0 -37.5 -15.5t-15.5 -37.5t15.5 -37.5t37.5 -15.5t38 15.5t16 37.5t-16 37.5t-38 15.5zM287 534q115 0 177 -95v86h85v-525h-85v78q-63 -92 -176 -92
q-111 0 -179.5 77t-68.5 197t68.5 197t178.5 77zM297 456q-79 0 -125.5 -54t-46.5 -142t46.5 -142t126.5 -54q69 0 115.5 40t52.5 103q3 15 3 72q0 78 -47 127.5t-125 49.5z" />
    <glyph glyph-name="aring.alt" 
d="M271 795q48 0 81.5 -33.5t33.5 -81.5t-33.5 -82t-81.5 -34t-82 34t-34 82t34 81.5t82 33.5zM271 745q-27 0 -46 -19t-19 -46q0 -28 19 -47t46 -19q28 0 46.5 19t18.5 47q0 27 -18.5 46t-46.5 19zM287 534q115 0 177 -95v86h85v-525h-85v78q-63 -92 -176 -92
q-111 0 -179.5 77t-68.5 197t68.5 197t178.5 77zM297 456q-79 0 -125.5 -54t-46.5 -142t46.5 -142t126.5 -54q69 0 115.5 40t52.5 103q3 15 3 72q0 78 -47 127.5t-125 49.5z" />
    <glyph glyph-name="ae.alt" horiz-adv-x="1044" 
d="M1006 258q0 -21 -1 -34h-443q9 -72 57.5 -116.5t120.5 -44.5q53 0 95 26t64 70h90q-29 -79 -95.5 -126t-153.5 -47q-61 0 -111.5 26t-80.5 72v-84h-84v79q-63 -93 -177 -93q-111 0 -179 77t-68 197t68.5 197t178.5 77q115 0 177 -95v87h84v-91q30 46 80.5 72.5
t111.5 26.5q114 0 190 -79t76 -197zM919 290q-7 74 -56 120t-123 46q-73 1 -122 -45.5t-57 -120.5h358zM297 456q-79 0 -126 -54t-47 -142t47 -142t126 -54q69 0 116 40.5t53 103.5q3 14 3 71q0 77 -47.5 127t-124.5 50z" />
    <glyph glyph-name="uni278" horiz-adv-x="834" 
d="M418 -11q78 0 149 31q64 27 123 82q52 52 83 123q29 72 29 149q0 78 -29 150q-33 76 -83 123q-53 53 -123 82q-71 31 -149 31q-76 0 -152 -31q-65 -27 -120 -82q-51 -50 -83 -123q-30 -67 -30 -150q0 -82 30 -149q31 -71 83 -123q53 -54 120 -82q76 -31 152 -31zM418 703
q134 0 230 -96q97 -97 97 -233q0 -135 -97 -232q-96 -96 -230 -96q-136 0 -232 96q-96 98 -96 232q0 135 96 233q96 96 232 96zM406 154q51 214 156 387v50h-265v-49h205q-41 -73 -85 -183.5t-65 -204.5h54z" />
    <glyph glyph-name="u.alt" horiz-adv-x="584" 
d="M524 521v-289q0 -246 -232 -246t-232 246v289h84v-278q0 -30 6.5 -58t21.5 -56.5t46 -45.5t74 -17t74 17t46 45.5t21.5 56.5t6.5 58v278h84z" />
    <glyph glyph-name="ugrave.alt" horiz-adv-x="584" 
d="M332 573h-75l-133 158h104zM524 521v-289q0 -246 -232 -246t-232 246v289h84v-278q0 -30 6.5 -58t21.5 -56.5t46 -45.5t74 -17t74 17t46 45.5t21.5 56.5t6.5 58v278h84z" />
    <glyph glyph-name="uacute.alt" horiz-adv-x="584" 
d="M345 731h104l-133 -158h-75zM524 521v-289q0 -246 -232 -246t-232 246v289h84v-278q0 -30 6.5 -58t21.5 -56.5t46 -45.5t74 -17t74 17t46 45.5t21.5 56.5t6.5 58v278h84z" />
    <glyph glyph-name="ucircumflex.alt" horiz-adv-x="584" 
d="M337 730l112 -158h-80l-81 97l-80 -97h-80l112 158h97zM524 521v-289q0 -246 -232 -246t-232 246v289h84v-278q0 -30 6.5 -58t21.5 -56.5t46 -45.5t74 -17t74 17t46 45.5t21.5 56.5t6.5 58v278h84z" />
    <glyph glyph-name="udieresis.alt" horiz-adv-x="584" 
d="M230 658q0 22 -16 37.5t-38 15.5t-37 -15.5t-15 -37.5t15 -37.5t37 -15.5t38 15.5t16 37.5zM401 711q-22 0 -37.5 -15.5t-15.5 -37.5t15.5 -37.5t37.5 -15.5t38 15.5t16 37.5t-16 37.5t-38 15.5zM524 521v-289q0 -246 -232 -246t-232 246v289h84v-278q0 -30 6.5 -58
t21.5 -56.5t46 -45.5t74 -17t74 17t46 45.5t21.5 56.5t6.5 58v278h84z" />
    </font>
</defs>
</svg>
