<?xml version="1.0" standalone="no"?>
<!DOCTYPE svg PUBLIC "-//W3C//DTD SVG 1.1//EN" "http://www.w3.org/Graphics/SVG/1.1/DTD/svg11.dtd" >
<svg xmlns="http://www.w3.org/2000/svg" xmlns:xlink="http://www.w3.org/1999/xlink" version="1.1">
<metadata>
Created by FontForge 20170731 at Sun Dec 17 01:58:01 2017
 By ,,,
Copyright (c) 2017 by Nicolas Desle. All rights reserved.
</metadata>
<defs>
<font id="Brasley-Regular" horiz-adv-x="590" >
  <font-face 
    font-family="Brasley"
    font-weight="400"
    font-stretch="normal"
    units-per-em="1000"
    panose-1="0 0 0 0 0 0 0 0 0 0"
    ascent="750"
    descent="-250"
    x-height="521"
    cap-height="752"
    bbox="-4 -251.04 1230 952"
    underline-thickness="50"
    underline-position="-200"
    unicode-range="U+000D-FB04"
  />
<missing-glyph horiz-adv-x="500" 
 />
    <glyph glyph-name="ff" unicode="ff" horiz-adv-x="749" 
d="M618 709q-108 0 -108 -128v-86h157v-54h-157v-441h-62v441h-273v-441h-63v441h-62v54h62v120q0 70 44 110.5t118 40.5q54 0 90 -21l-18 -49q-35 13 -63 13q-108 0 -108 -128v-86h273v120q0 71 43.5 111t117.5 40q54 0 90 -21l-17 -49q-35 13 -64 13z" />
    <glyph glyph-name="fi" unicode="fi" horiz-adv-x="666" 
d="M561 496v-496h-62v442h-285v-442h-61v442h-63v54h63v119q0 71 44 111.5t117 40.5q51 0 91 -21l-18 -49q-31 12 -63 12q-110 0 -110 -128v-85h347zM530 766q-19 0 -32 -13t-13 -32t13 -32t32 -13t32 13t13 32t-13 32t-32 13z" />
    <glyph glyph-name="fl" unicode="fl" horiz-adv-x="650" 
d="M558 753v-753h-62v441h-279v-441h-63v441h-63v54h63v120q0 70 44.5 111t117.5 41q49 0 91 -21l-19 -50q-28 13 -64 13q-107 0 -107 -128v-86h279v258h62z" />
    <glyph glyph-name="ffi" unicode="ffi" horiz-adv-x="999" 
d="M555 496h346v-496h-62v442h-284v-442h-62v442h-286v-442h-61v442h-63v54h63v120q0 71 43.5 111t117.5 40q54 0 90 -21l-18 -49q-30 12 -62 12q-110 0 -110 -127v-86h286v120q0 71 43.5 111t117.5 40q55 0 91 -21l-18 -49q-31 12 -62 12q-110 0 -110 -127v-86zM870 767
q19 0 32 -13.5t13 -31.5q0 -19 -13 -32t-32 -13t-32 13t-13 32q0 18 13 31.5t32 13.5z" />
    <glyph glyph-name="ffl" unicode="ffl" horiz-adv-x="981" 
d="M889 753v-753h-62v441h-279v-441h-62v441h-268v-441h-63v441h-63v55h63v119q0 71 44 111.5t118 40.5q50 0 90 -21l-18 -49q-32 12 -64 12q-107 0 -107 -128v-85h268v119q0 71 44 111.5t118 40.5q50 0 90 -21l-18 -49q-32 12 -64 12q-108 0 -108 -128v-85h279v257h62z" />
    <glyph glyph-name=".notdef" horiz-adv-x="500" 
 />
    <glyph glyph-name=".null" horiz-adv-x="0" 
 />
    <glyph glyph-name="nonmarkingreturn" horiz-adv-x="333" 
 />
    <glyph glyph-name="CR" unicode="&#xd;" horiz-adv-x="500" 
 />
    <glyph glyph-name="space" unicode=" " horiz-adv-x="247" 
 />
    <glyph glyph-name="exclam" unicode="!" horiz-adv-x="266" 
d="M168 767h-70l9 -648h51zM132 72q-17 0 -29 -12.5t-12 -29.5t12 -29.5t29 -12.5q18 0 30 12.5t12 29.5t-12 29.5t-30 12.5z" />
    <glyph glyph-name="quotedbl" unicode="&#x22;" horiz-adv-x="497" 
d="M137 639q0 -29 1 -32l22 -220h33l22 222q1 3 1 30q0 13 -12.5 23t-26.5 10q-15 0 -27.5 -10t-12.5 -23zM279 639q0 -26 2 -32l21 -220h34l22 222l1 30q0 13 -12.5 23t-26.5 10q-15 0 -28 -10t-13 -23z" />
    <glyph glyph-name="numbersign" unicode="#" horiz-adv-x="818" 
d="M593 453l-47 -224h175v-58h-187l-37 -171h-58l37 171h-223l-36 -171h-59l37 171h-157v58h169l47 224l-158 -1v59h171l37 172h58l-36 -172h222l37 172h58l-37 -172h174v-58h-187zM535 453h-222l-47 -224h222z" />
    <glyph glyph-name="dollar" unicode="$" horiz-adv-x="609" 
d="M340 366q51 -12 86 -25t69 -34t51 -53t17 -75q0 -81 -57 -133.5t-166 -57.5v-104h-63v105q-104 9 -163.5 66.5t-67.5 141.5h59q8 -56 50 -99t122 -51v277q-123 31 -174 69.5t-50 110.5q2 77 58 129.5t166 58.5v103h63v-104q94 -8 153 -64t70 -145h-58q-9 61 -51.5 101.5
t-113.5 49.5v-267zM277 635q-82 -4 -124 -42t-42 -89q0 -47 37 -72.5t129 -49.5v253zM340 45q83 4 123.5 42.5t40.5 89.5q0 30 -14 52.5t-41 37.5t-50.5 23.5t-58.5 17.5v-263z" />
    <glyph glyph-name="percent" unicode="%" horiz-adv-x="958" 
d="M228 766q78 0 129.5 -52.5t51.5 -132.5q0 -81 -51.5 -133.5t-129.5 -52.5t-130 52.5t-52 133.5q0 80 52 132.5t130 52.5zM793 753h-59l-570 -753h58zM228 443q57 0 94 38.5t37 99.5q0 60 -37 98t-94 38q-58 0 -95 -38t-37 -98q0 -61 36.5 -99.5t95.5 -38.5zM730 358
q78 0 130 -52.5t52 -132.5q0 -81 -52 -133.5t-130 -52.5t-130 52.5t-52 133.5q0 80 52 132.5t130 52.5zM730 309q-58 0 -94.5 -38t-36.5 -98q0 -61 37 -99.5t94 -38.5t94.5 39t37.5 99t-37 98t-95 38z" />
    <glyph glyph-name="ampersand" unicode="&#x26;" horiz-adv-x="752" 
d="M680 0h-81l-101 107q-8 -8 -27 -30q-52 -52 -97.5 -72t-106.5 -20q-75 0 -135 52t-60 128q0 38 10.5 70t28.5 55t34 38t34 29q5 3 7 5l41 31l-29 31q-33 32 -61 79t-28 96q0 65 47 115t133 50q91 0 139.5 -50t48.5 -110q0 -83 -72 -141q-30 -27 -95 -75l188 -197l85 95
h73l-119 -136zM290 712q-52 0 -86.5 -34.5t-34.5 -81.5q0 -64 75 -139l29 -29q72 55 85 67q61 50 61 112q0 42 -36 73.5t-93 31.5zM434 120l25 28l-194 205q-2 -2 -20 -16t-20 -15q-49 -38 -70 -70t-21 -81q0 -53 43 -91t94 -38q46 0 81.5 16t81.5 62z" />
    <glyph glyph-name="quotesingle" unicode="'" horiz-adv-x="251" 
d="M85 639q0 -26 2 -32l21 -220h34l22 222l1 30q0 13 -12.5 23t-26.5 10q-15 0 -28 -10t-13 -23z" />
    <glyph glyph-name="parenleft" unicode="(" horiz-adv-x="373" 
d="M270 908q-99 -104 -154.5 -241t-55.5 -290t55.5 -290t154.5 -241l43 36q-90 95 -143.5 224.5t-53.5 270.5t53.5 270.5t143.5 223.5z" />
    <glyph glyph-name="parenright" unicode=")" horiz-adv-x="373" 
d="M60 871q90 -94 143.5 -223.5t53.5 -270.5t-53.5 -270.5t-143.5 -224.5l43 -36q99 104 154.5 241t55.5 290t-55.5 290t-154.5 241z" />
    <glyph glyph-name="asterisk" unicode="*" horiz-adv-x="496" 
d="M295 552l107 -126l-51 -38l-101 131l-101 -133l-50 39l105 124l-158 50l20 61l155 -60l-6 167h65l-5 -164l155 59l20 -60z" />
    <glyph glyph-name="plus" unicode="+" horiz-adv-x="537" 
d="M511 285h-211v-211h-63v211h-211v63h211v211h63v-211h211v-63z" />
    <glyph glyph-name="comma" unicode="," horiz-adv-x="277" 
d="M153 84q48 0 48 -67q0 -20 -5.5 -43.5t-18.5 -50t-40 -47.5t-63 -28v34q30 11 54.5 48t26.5 68q-19 0 -32.5 13t-13.5 30t12.5 30t31.5 13z" />
    <glyph glyph-name="hyphen" unicode="-" horiz-adv-x="482" 
d="M61 348v-65h359v65h-359z" />
    <glyph glyph-name="period" unicode="." horiz-adv-x="261" 
d="M173 42q0 19 -12.5 31.5t-29.5 12.5q-19 0 -31.5 -12.5t-12.5 -31.5q0 -18 12.5 -30.5t31.5 -12.5q17 0 29.5 13t12.5 30z" />
    <glyph glyph-name="slash" unicode="/" horiz-adv-x="567" 
d="M513 753h-63l-397 -753h65z" />
    <glyph glyph-name="zero" unicode="0" horiz-adv-x="671" 
d="M335 711q129 0 208.5 -101.5t79.5 -258.5q0 -158 -79.5 -259.5t-208.5 -101.5q-128 0 -207.5 101.5t-79.5 259.5q0 157 79.5 258.5t207.5 101.5zM335 49q105 0 167 84.5t62 217.5t-62 217.5t-167 84.5q-104 0 -166.5 -84.5t-62.5 -217.5t62.5 -217.5t166.5 -84.5z" />
    <glyph glyph-name="one" unicode="1" horiz-adv-x="317" 
d="M97 562q39 0 65 23.5t26 60.5v51h58v-697h-58v504h-118v58h27z" />
    <glyph glyph-name="two" unicode="2" horiz-adv-x="548" 
d="M484 513q0 -52 -23 -100.5t-61 -90.5t-78.5 -81t-86 -88t-73.5 -94h308v-59h-406q16 62 105 164q41 48 107 116t86 93q59 77 58 143q0 57 -37 95t-102 38q-66 0 -104.5 -41.5t-41.5 -111.5h-60q0 87 53.5 150t153.5 63q93 0 147.5 -56.5t54.5 -139.5z" />
    <glyph glyph-name="three" unicode="3" horiz-adv-x="581" 
d="M309 417q96 -10 159 -63t63 -140q0 -38 -13 -76t-39.5 -72t-75 -55.5t-110.5 -21.5q-58 0 -103.5 18t-73 47.5t-43.5 59.5t-24 63l61 15q14 -59 57.5 -101.5t124.5 -42.5q86 0 132.5 48.5t46.5 113.5q0 64 -46.5 104t-118.5 46q-20 1 -34 0t-28 -3t-16 -2l-14 46l227 239
h-352v58h429v-56z" />
    <glyph glyph-name="four" unicode="4" horiz-adv-x="566" 
d="M526 197h-79v-197h-58v197h-349v59l349 442h58v-442h79v-59zM389 256v348l-279 -348h279z" />
    <glyph glyph-name="five" unicode="5" horiz-adv-x="581" 
d="M306 446q107 0 167 -58.5t60 -155.5q0 -99 -62 -170.5t-179 -71.5q-107 0 -167.5 57.5t-77.5 130.5l59 13q11 -52 56 -97.5t127 -45.5q83 0 133.5 50.5t50.5 130.5q0 72 -44 115.5t-127 43.5q-43 0 -84.5 -12t-61.5 -24l-21 -11l-60 13l30 345h385v-58h-332l-18 -235
q69 40 166 40z" />
    <glyph glyph-name="six" unicode="6" horiz-adv-x="530" 
d="M348 699l-196 -327q59 52 128 51q100 -2 154 -59.5t54 -148.5q0 -96 -59 -160.5t-168 -64.5q-103 0 -161.5 66.5t-58.5 157.5q1 46 14 88.5t22.5 59.5t31.5 51l172 286h67zM263 48q75 0 120 46t45 119t-44.5 116.5t-112.5 43.5q-67 0 -118.5 -41.5t-51.5 -118.5
q0 -73 44 -119t118 -46z" />
    <glyph glyph-name="seven" unicode="7" horiz-adv-x="503" 
d="M212 0q42 182 110.5 352t140.5 287v58h-424v-57h354q-66 -111 -137 -293.5t-108 -346.5h64z" />
    <glyph glyph-name="eight" unicode="8" horiz-adv-x="576" 
d="M95 528q0 77 56 130t136 53q82 0 137.5 -53t55.5 -130q0 -50 -26 -90.5t-69 -61.5l-2 -2q58 -22 93 -70t35 -110q0 -87 -64.5 -146.5t-159.5 -59.5q-93 0 -158 59.5t-65 146.5q0 62 35 110t92 69l-3 3q-42 21 -67.5 62t-25.5 90zM287 651q-54 0 -90 -35.5t-36 -89.5
q0 -53 36 -89t90 -36q55 0 91.5 36t36.5 89q0 54 -36.5 89.5t-91.5 35.5zM287 48q67 0 112 42t45 105q0 64 -44.5 106t-112.5 42q-67 0 -111.5 -42t-44.5 -106q0 -63 44.5 -105t111.5 -42z" />
    <glyph glyph-name="nine" unicode="9" horiz-adv-x="530" 
d="M181 0l196 327q-59 -52 -128 -51q-100 2 -154 59.5t-54 148.5q0 96 59 160.5t168 64.5q103 0 161.5 -66.5t58.5 -157.5q-1 -46 -14 -88.5t-22.5 -59.5t-31.5 -51l-172 -286h-67zM266 651q-75 0 -120 -46t-45 -119t44.5 -116.5t112.5 -43.5q67 0 118.5 41.5t51.5 118.5
q0 73 -44 119t-118 46z" />
    <glyph glyph-name="colon" unicode=":" horiz-adv-x="268" 
d="M177 473q0 19 -12 31t-30 12q-19 0 -31.5 -12t-12.5 -31q0 -18 12.5 -30.5t31.5 -12.5q18 0 30 12.5t12 30.5zM177 56q0 18 -12 30.5t-30 12.5q-19 0 -31.5 -12.5t-12.5 -30.5t12.5 -31t31.5 -13q18 0 30 13t12 31z" />
    <glyph glyph-name="semicolon" unicode=";" horiz-adv-x="276" 
d="M196 473q0 19 -12 31t-30 12q-19 0 -31.5 -12t-12.5 -31q0 -18 12.5 -30.5t31.5 -12.5q18 0 30 12.5t12 30.5zM153 84q48 0 48 -67q0 -20 -5.5 -43.5t-18.5 -50t-40 -47.5t-63 -28v34q30 11 54.5 48t26.5 68q-19 0 -32.5 13t-13.5 30t12.5 30t31.5 13z" />
    <glyph glyph-name="less" unicode="&#x3c;" horiz-adv-x="563" 
d="M522 515v-63l-401 -154l401 -154v-63l-482 184v65z" />
    <glyph glyph-name="equal" unicode="=" horiz-adv-x="692" 
d="M62 443v-64h567v64h-567zM62 208v-64h567v64h-567z" />
    <glyph glyph-name="greater" unicode="&#x3e;" horiz-adv-x="564" 
d="M523 330v-65l-482 -184v63l401 154l-401 154v63z" />
    <glyph glyph-name="question" unicode="?" horiz-adv-x="580" 
d="M248 235l1 -90h56v85q1 9 3.5 17t9 16t12 14t19 16.5t23 17t30 21t34.5 24.5q110 87 110 193q0 37 -13.5 73.5t-41.5 72t-82 58t-126 22.5q-63 0 -110.5 -18t-73.5 -44.5t-41.5 -62.5t-20 -64t-4.5 -58l2 -39h61v5q0 6 -0.5 13.5t-0.5 12.5q0 36 8.5 67t27.5 62t58 49
t94 18q52 0 91.5 -16.5t61 -43.5t31.5 -55t11 -56q2 -40 -20 -76.5t-83 -82.5q-7 -5 -27.5 -20t-28 -20.5t-22.5 -18t-21 -20.5t-14 -20.5t-11 -25t-3 -26.5zM279 71q-19 0 -32 -12.5t-13 -31.5t13 -32t32 -13t31.5 13t12.5 32t-12.5 31.5t-31.5 12.5z" />
    <glyph glyph-name="at" unicode="@" horiz-adv-x="870" 
d="M436 767q166 0 276 -112.5t103 -278.5q-3 -83 -41.5 -139t-91.5 -61q-27 -2 -47 9t-28 23.5t-16 31t-9 20.5q-49 -91 -162 -91q-88 0 -141 57.5t-53 151.5q0 93 53 150.5t141 57.5q103 0 149 -80v73h48v-297q0 -30 17.5 -47t44.5 -12q38 6 64 47.5t26 107.5
q0 151 -93.5 245t-238.5 94q-144 0 -237.5 -96t-93.5 -243q0 -148 94 -244t240 -96q91 0 159 41l40 -34q-88 -57 -202 -57q-165 0 -274.5 111t-109.5 279t109.5 278.5t273.5 110.5zM420 215q68 0 108.5 44.5t40.5 118.5q0 73 -40 117.5t-109 44.5q-68 0 -107 -44t-39 -118
q0 -75 38.5 -119t107.5 -44z" />
    <glyph glyph-name="A" unicode="A" horiz-adv-x="741" 
d="M540 193h-338l-68 -193h-64l264 752h72l264 -752h-63zM517 255l-146 420l-148 -420h294z" />
    <glyph glyph-name="B" unicode="B" horiz-adv-x="604" 
d="M443 387q49 -18 78.5 -65t29.5 -114q0 -90 -54 -149t-152 -59h-293v752h250q101 0 157 -59.5t56 -150.5q0 -109 -72 -155zM113 413h251q38 0 64 37t26 92q0 65 -40 107.5t-110 42.5h-191v-279zM344 60q69 0 108.5 42t39.5 107q0 59 -32.5 100.5t-78.5 41.5h-268v-291h231
z" />
    <glyph glyph-name="C" unicode="C" horiz-adv-x="771" 
d="M395 48q95 0 165 49.5t104 131.5h68q-40 -109 -128 -175.5t-210 -66.5q-159 0 -257.5 109.5t-98.5 279.5q0 171 99 281t257 110q120 0 208.5 -65.5t129.5 -176.5h-69q-35 82 -104.5 130.5t-164.5 48.5q-133 0 -213 -92t-80 -236t80.5 -236t213.5 -92z" />
    <glyph glyph-name="D" unicode="D" horiz-adv-x="671" 
d="M269 752q170 0 260.5 -103t90.5 -268q0 -171 -94 -276t-257 -105h-218v752h218zM270 63q136 0 210 86.5t74 231.5q0 139 -70.5 223.5t-213.5 84.5h-157v-626h157z" />
    <glyph glyph-name="E" unicode="E" horiz-adv-x="578" 
d="M122 693v-281h344v-60h-344v-292h395v-60h-456v753h456v-60h-395z" />
    <glyph glyph-name="F" unicode="F" horiz-adv-x="541" 
d="M104 690v-285h336v-63h-336v-342h-62v752h456v-62h-394z" />
    <glyph glyph-name="G" unicode="G" horiz-adv-x="794" 
d="M383 378h372q0 -23 -1 -35q-7 -154 -105.5 -254.5t-251.5 -100.5q-160 0 -259 109.5t-99 279.5q0 171 98.5 281t258.5 110q121 0 209 -65.5t127 -177.5h-68q-34 82 -103.5 131t-164.5 49q-134 0 -213.5 -92t-79.5 -236t80 -235.5t214 -91.5q119 0 196.5 73t93.5 194h-304
v61z" />
    <glyph glyph-name="H" unicode="H" horiz-adv-x="658" 
d="M597 752v-752h-62v362h-412v-362h-62v752h62v-328h412v328h62z" />
    <glyph glyph-name="I" unicode="I" horiz-adv-x="250" 
d="M156 752h-63v-752h63v752z" />
    <glyph glyph-name="J" unicode="J" horiz-adv-x="531" 
d="M433 753h61v-521q0 -111 -56 -178t-165 -67q-61 0 -108.5 22t-74 58t-40 78t-13.5 87h60q3 -81 45.5 -133.5t127.5 -52.5t124 52t39 141v514z" />
    <glyph glyph-name="K" unicode="K" horiz-adv-x="669" 
d="M513 0l-376 340v-340h-62v754h62v-336l359 336h80l-395 -375l412 -379h-80z" />
    <glyph glyph-name="L" unicode="L" horiz-adv-x="518" 
d="M478 62v-62h-439v752h63v-690h376z" />
    <glyph glyph-name="M" unicode="M" horiz-adv-x="972" 
d="M914 752v-752h-62v636l-334 -636h-63l-334 636v-636h-63v752h69l359 -684l358 684h70z" />
    <glyph glyph-name="N" unicode="N" horiz-adv-x="731" 
d="M671 752v-752h-65l-484 653v-653h-62v752h64l484 -652v652h63z" />
    <glyph glyph-name="O" unicode="O" horiz-adv-x="816" 
d="M408 768q162 0 264.5 -110.5t102.5 -280.5q0 -169 -102.5 -279t-264.5 -110t-264.5 110t-102.5 279q0 171 102.5 281t264.5 110zM407 49q136 0 220 92.5t84 235.5q0 144 -83.5 236t-220.5 92q-136 0 -219.5 -91.5t-83.5 -236.5q0 -144 83.5 -236t219.5 -92z" />
    <glyph glyph-name="P" unicode="P" horiz-adv-x="587" 
d="M305 752q114 0 176 -67t62 -177q0 -109 -62.5 -177t-175.5 -68h-198v-263h-63v752h261zM308 323q83 0 129 51t46 134t-46 133.5t-129 50.5h-200l-1 -369h201z" />
    <glyph glyph-name="Q" unicode="Q" horiz-adv-x="828" 
d="M741 -49l-110 110q-93 -73 -222 -73q-162 0 -264 110t-102 280t102 280t264 110t264.5 -110t102.5 -280q0 -168 -101 -277l109 -108zM105 378q0 -144 84 -236t220 -92q137 0 220.5 92t83.5 236t-83.5 236t-220.5 92q-136 0 -220 -92t-84 -236z" />
    <glyph glyph-name="R" unicode="R" horiz-adv-x="651" 
d="M338 262h-106l354 -262h-95l-354 262v-262h-62v752h252q114 0 176.5 -67.5t62.5 -176.5q0 -106 -59.5 -172.5t-168.5 -73.5zM137 325h193q82 0 127.5 50.5t45.5 132.5t-45.5 132t-127.5 50h-192z" />
    <glyph glyph-name="S" unicode="S" horiz-adv-x="670" 
d="M343 411q54 -13 90.5 -23.5t74.5 -28t60 -38t36 -51.5t14 -70q0 -97 -71.5 -155t-196.5 -58q-133 0 -210.5 64.5t-88.5 166.5h62q11 -71 68.5 -121.5t167.5 -50.5q103 0 155.5 44.5t52.5 105.5q0 30 -14.5 54.5t-34 39.5t-54 28.5t-58 20t-63.5 15.5q-151 36 -213.5 78.5
t-61.5 125.5q2 90 71.5 149.5t196.5 59.5t202.5 -62t90.5 -170h-61q-15 77 -71 125t-161 48q-103 0 -154.5 -44.5t-51.5 -106.5q0 -59 51 -88.5t172 -57.5z" />
    <glyph glyph-name="T" unicode="T" horiz-adv-x="649" 
d="M616 689h-260v-689h-63v689h-261v63h584v-63z" />
    <glyph glyph-name="U" unicode="U" horiz-adv-x="713" 
d="M650 754v-464v-17t-5 -42t-14.5 -59t-31 -62.5t-51.5 -59.5t-80 -42t-112 -17t-112 16.5t-80 43t-51.5 58t-31 63.5t-14.5 58.5t-5 43.5v16v464h63v-463v-13.5t4 -33.5t11.5 -47.5t24 -49.5t40.5 -47t63 -33.5t88 -13.5q67 0 115.5 24.5t70 59.5t33.5 70t13 59v25v463h62
z" />
    <glyph glyph-name="V" unicode="V" horiz-adv-x="823" 
d="M753 752l-306 -752h-72l-306 752h71l271 -677l270 677h72z" />
    <glyph glyph-name="W" unicode="W" horiz-adv-x="1301" 
d="M1230 752l-264 -752h-72l-243 663l-243 -663h-73l-263 752h72l227 -670l241 670h78l240 -670l228 670h72z" />
    <glyph glyph-name="X" unicode="X" horiz-adv-x="681" 
d="M596 752l-221 -376l221 -376h-70l-186 316l-186 -316h-70l221 376l-221 376h70l186 -317l186 317h70z" />
    <glyph glyph-name="Y" unicode="Y" horiz-adv-x="688" 
d="M543 752h72l-241 -428v-324h-62v324l-240 428h72l199 -359z" />
    <glyph glyph-name="Z" unicode="Z" horiz-adv-x="691" 
d="M633 752v-62l-497 -630h497v-60h-576v61l497 630h-496v61h575z" />
    <glyph glyph-name="bracketleft" unicode="[" horiz-adv-x="401" 
d="M119 840v-923h222v-60h-282v1043h282v-60h-222z" />
    <glyph glyph-name="backslash" unicode="\" horiz-adv-x="566" 
d="M448 0h65l-397 753h-63z" />
    <glyph glyph-name="bracketright" unicode="]" horiz-adv-x="400" 
d="M59 840v60h282v-1043h-282v60h222v923h-222z" />
    <glyph glyph-name="asciicircum" unicode="^" 
d="M269 718h56l190 -367h-67l-151 275l-155 -275h-67z" />
    <glyph glyph-name="underscore" unicode="_" horiz-adv-x="684" 
d="M58 0v-63h568v63h-568z" />
    <glyph glyph-name="grave" unicode="`" horiz-adv-x="314" 
d="M243 573h-57l-116 158h77z" />
    <glyph glyph-name="a" unicode="a" 
d="M484 137q0 -14 2.5 -30t17 -35.5t39.5 -19.5v-52h-9t-22 3.5t-29.5 10.5t-27 22t-19.5 36q-18 -30 -70.5 -57t-121.5 -27q-99 0 -148 43.5t-49 111.5q0 145 218 161l156 7v44q-1 22 -7 41t-20.5 39t-43 31.5t-68.5 11.5q-32 0 -57.5 -8.5t-39 -17.5t-26 -26.5t-15 -24
t-8.5 -20.5l-61 17q51 137 207 137q100 0 151 -51.5t51 -133.5v-213zM421 258l-149 -7q-53 -2 -88 -17q-73 -25 -73 -91q0 -57 47 -80.5t103 -20.5q67 4 115 42q45 32 45 59v115z" />
    <glyph glyph-name="b" unicode="b" horiz-adv-x="591" 
d="M299 534q111 0 180.5 -77.5t69.5 -197.5t-69 -196.5t-181 -76.5q-131 0 -195 111v-97h-62v752h62v-331q64 113 195 113zM293 476q-84 0 -138 -54.5t-54 -134.5q0 -68 2 -80q9 -71 61 -117.5t129 -46.5q88 0 141 60.5t53 155.5q0 96 -53 156.5t-141 60.5z" />
    <glyph glyph-name="c" unicode="c" horiz-adv-x="596" 
d="M302 46q71 0 122.5 39t70.5 105h64q-22 -91 -92 -146.5t-165 -55.5q-114 0 -190 78t-76 197q0 118 76 196t190 78q95 0 165 -55.5t92 -146.5h-64q-20 66 -71.5 104.5t-121.5 38.5q-90 0 -147.5 -61t-57.5 -156q0 -94 57.5 -154.5t147.5 -60.5z" />
    <glyph glyph-name="d" unicode="d" 
d="M291 534q131 0 195 -113v331h62v-752h-62v97q-64 -111 -195 -111q-112 0 -181 76.5t-69 196.5t69.5 197.5t180.5 77.5zM297 476q-88 0 -141 -60.5t-53 -156.5q0 -95 53 -155.5t141 -60.5q77 0 129 46.5t61 117.5q2 12 2 80q0 80 -54 134.5t-138 54.5z" />
    <glyph glyph-name="e" unicode="e" horiz-adv-x="609" 
d="M570 261q0 -18 -1 -26h-467q8 -83 64 -135.5t138 -52.5q61 0 109.5 30.5t72.5 83.5h66q-28 -78 -95 -125t-154 -47q-114 0 -189 77.5t-75 196.5q0 118 75.5 196t189.5 78t190 -78.5t76 -197.5zM506 285q-6 86 -62 139.5t-140 54.5q-85 -1 -141 -55t-61 -139h404z" />
    <glyph glyph-name="f" unicode="f" horiz-adv-x="394" 
d="M273 709q-109 0 -109 -128v-86h157v-54h-157v-441h-62v441h-63v54h63v120q0 71 44 111.5t118 40.5q50 0 90 -21l-18 -50q-35 13 -63 13z" />
    <glyph glyph-name="g" unicode="g" horiz-adv-x="612" 
d="M559 523v-513q-2 -112 -76.5 -185t-185.5 -73q-84 0 -148 43t-95 117l60 17q50 -119 181 -119q91 0 146 58.5t55 153.5v79q-62 -112 -195 -112q-111 0 -180 77t-69 196q0 120 69 197.5t181 77.5q133 0 194 -112l11 98h52zM308 478q-88 0 -141 -60t-53 -156t53 -156
t141 -60q77 0 128.5 46t61.5 117q2 14 2 81q0 80 -54 134t-138 54z" />
    <glyph glyph-name="h" unicode="h" horiz-adv-x="574" 
d="M114 412q22 54 70.5 88.5t125.5 34.5q101 0 156.5 -63.5t55.5 -187.5v-284h-62v275q0 87 -40 144.5t-125 57.5q-46 0 -82.5 -18t-57 -46t-30.5 -57t-10 -56v-300h-63v753h62v-341z" />
    <glyph glyph-name="i" unicode="i" horiz-adv-x="257" 
d="M128 749q-19 0 -32 -13t-13 -32t13 -32t32 -13t32 13t13 32t-13 32t-32 13zM159 522h-62v-522h62v522z" />
    <glyph glyph-name="j" unicode="j" horiz-adv-x="297" 
d="M249 712q0 18 -13 31.5t-32 13.5t-32.5 -13.5t-13.5 -31.5q0 -19 13.5 -32t32.5 -13t32 13t13 32zM173 531h62v-615q0 -72 -44.5 -112t-118.5 -40q-7 0 -25 2v57h21q105 3 105 120v588z" />
    <glyph glyph-name="k" unicode="k" horiz-adv-x="553" 
d="M384 0l-193 216l-45 -51v-165h-62v753h62v-479q0 -5 5 -6.5t8 2.5l219 250h78l-227 -259l240 -261h-85z" />
    <glyph glyph-name="l" unicode="l" horiz-adv-x="244" 
d="M153 753h-63v-753h63v753z" />
    <glyph glyph-name="m" unicode="m" horiz-adv-x="952" 
d="M690 535q102 0 151 -62.5t49 -188.5v-284h-62v275q0 202 -154 202q-84 0 -124.5 -48.5t-42.5 -118.5v-310h-63v313q-1 69 -39 116.5t-117 47.5q-46 0 -80 -18t-51.5 -46t-25.5 -57t-8 -57v-299h-62v522h62v-109q17 57 64 89.5t119 32.5q150 0 186 -140q14 63 64 101.5
t134 38.5z" />
    <glyph glyph-name="n" unicode="n" horiz-adv-x="596" 
d="M321 534q101 0 156.5 -64t55.5 -187v-283h-62v275q0 87 -40 144t-126 57q-46 0 -82.5 -18t-56.5 -45.5t-30 -57t-10 -56.5v-299h-63v521h62v-109q23 54 71 88t125 34z" />
    <glyph glyph-name="o" unicode="o" horiz-adv-x="614" 
d="M307 535q115 0 190.5 -77.5t75.5 -195.5t-75.5 -196t-190.5 -78q-114 0 -190 77.5t-76 196.5q0 118 76 195.5t190 77.5zM307 45q90 0 147.5 61t57.5 156t-57.5 155.5t-147.5 60.5t-147 -61t-57 -156t57 -155.5t147 -60.5z" />
    <glyph glyph-name="p" unicode="p" horiz-adv-x="591" 
d="M299 -14q-132 0 -195 112v-330h-62v752h62v-98q65 112 195 112q112 0 181 -77.5t69 -197.5q0 -119 -69.5 -196t-180.5 -77zM293 475q-78 0 -132 -46.5t-58 -116.5q-2 -6 -2 -81q0 -80 54 -134t138 -54q88 0 141 60.5t53 156.5t-53 155.5t-141 59.5z" />
    <glyph glyph-name="q" unicode="q" horiz-adv-x="595" 
d="M294 -14q-111 0 -180.5 77t-69.5 196q0 120 69 197.5t181 77.5q130 0 195 -112v98h62v-752h-62v330q-63 -112 -195 -112zM300 475q-88 0 -141 -59.5t-53 -155.5t53 -156.5t141 -60.5q84 0 138 54t54 134q0 75 -2 81q-4 70 -58 116.5t-132 46.5z" />
    <glyph glyph-name="r" unicode="r" horiz-adv-x="408" 
d="M310 535q11 0 31 -2v-64q-28 5 -46 5q-38 0 -68.5 -12.5t-48 -32t-29.5 -45t-16 -48.5t-4 -45v-291h-63v521h62v-108q17 57 64.5 89.5t117.5 32.5z" />
    <glyph glyph-name="s" unicode="s" horiz-adv-x="498" 
d="M389 372q-22 109 -143 109q-40 0 -68 -11.5t-40 -29t-17 -31.5t-5 -26q0 -37 34.5 -55.5t107.5 -35.5q39 -8 57 -12.5t49.5 -17t46.5 -26t27.5 -38t12.5 -56.5q0 -71 -52 -112.5t-140 -41.5q-100 0 -153 50t-59 115h62q6 -41 41.5 -76t106.5 -35q56 0 95 25t39 76
q0 42 -30.5 59.5t-112.5 37.5q-108 26 -151.5 54t-43.5 89q0 20 7.5 43t26 49.5t59 43.5t96.5 17q54 0 95 -15.5t64 -41t35 -52.5t15 -56z" />
    <glyph glyph-name="t" unicode="t" horiz-adv-x="395" 
d="M194 469v-303q0 -65 21 -92t73 -27q29 0 58 9v-56q-31 -11 -70 -11q-72 0 -108 39.5t-36 111.5v329h-84v54h51q13 0 23 9.5t10 23.5v106h62v-139h129v-54h-129z" />
    <glyph glyph-name="u" unicode="u" horiz-adv-x="595" 
d="M274 -13q-101 0 -156.5 64t-55.5 187v283h62v-275q0 -87 40 -144t126 -57q46 0 82.5 18t56.5 45.5t30 57t10 56.5v299h63v-521h-62v109q-23 -54 -71 -88t-125 -34z" />
    <glyph glyph-name="v" unicode="v" horiz-adv-x="571" 
d="M505 523l-185 -523h-70l-185 523h64l156 -439l156 439h64z" />
    <glyph glyph-name="w" unicode="w" horiz-adv-x="947" 
d="M879 523l-183 -523h-68l-154 440l-154 -440h-68l-184 523h63l157 -444l156 444h59l157 -443l156 443h63z" />
    <glyph glyph-name="x" unicode="x" horiz-adv-x="595" 
d="M333 264l172 -264h-72l-136 209l-134 -209h-73l172 264l-168 259h72l131 -203l132 203h73z" />
    <glyph glyph-name="y" unicode="y" horiz-adv-x="575" 
d="M504 523q-43 -117 -139 -377t-139 -377h-64l100 274q-53 138 -189 480h73l135 -365q3 -7 10.5 -6.5t10.5 7.5l133 364h69z" />
    <glyph glyph-name="z" unicode="z" horiz-adv-x="518" 
d="M452 489l-303 -429h303v-60h-387v34l303 429h-303v60h387v-34z" />
    <glyph glyph-name="braceleft" unicode="{" horiz-adv-x="432" 
d="M395 850q-95 -3 -146 -51.5t-51 -159.5v-151v-10.5t-4 -23.5t-11.5 -30.5t-25.5 -26.5t-43 -17q25 -3 43 -15.5t25.5 -27.5t11.5 -29.5t4 -24.5v-10v-151q0 -111 51 -159.5t146 -51.5v-51q-36 0 -70 7t-67.5 23.5t-58 41t-40 64t-15.5 88.5v166q-2 1 0 11.5t-3.5 27
t-14.5 32t-32.5 27t-56.5 11.5v42q33 0 56.5 11.5t33 27.5t14 32t3.5 28v11v167q0 61 22.5 106t61 69t80 36t87.5 13v-52z" />
    <glyph glyph-name="bar" unicode="|" horiz-adv-x="242" 
d="M152 899h-62v-1042h62v1042z" />
    <glyph glyph-name="braceright" unicode="}" horiz-adv-x="432" 
d="M37 902q46 -1 87.5 -13t80 -36t61 -69t22.5 -106v-167q2 -1 0 -11.5t3.5 -27t14.5 -32.5t32.5 -27.5t56.5 -11.5v-42q-33 0 -56.5 -11t-33 -27.5t-14 -32.5t-3.5 -27v-11v-166q0 -49 -15.5 -88.5t-40 -64t-58 -41t-67.5 -23.5t-70 -7v51q95 3 146 51.5t51 159.5v151v10.5
t4 23.5t11.5 30.5t25.5 26.5t43 16q-25 4 -43 16.5t-25.5 27.5t-11.5 29.5t-4 24.5v10v151q0 111 -51 159.5t-146 51.5v52z" />
    <glyph glyph-name="asciitilde" unicode="~" horiz-adv-x="679" 
d="M625 345q-13 -20 -31 -39t-57.5 -40t-82.5 -21q-40 0 -119.5 37.5t-112.5 37.5q-14 0 -28 -3t-26 -8.5t-21.5 -11.5t-18.5 -14t-14.5 -13t-12 -12t-7.5 -8l-40 32q21 39 68 69.5t103 30.5q43 0 124 -38t110 -38q61 0 126 70z" />
    <glyph glyph-name="exclamdown" unicode="&#xa1;" horiz-adv-x="261" 
d="M130 683q18 0 30 12.5t12 29.5t-12 29.5t-30 12.5q-17 0 -29 -12.5t-12 -29.5t12 -29.5t29 -12.5zM156 636h-51l-9 -648h70z" />
    <glyph glyph-name="cent" unicode="&#xa2;" horiz-adv-x="583" 
d="M326 174q59 6 103.5 43t60.5 95h63q-20 -83 -81 -136.5t-146 -61.5v-126h-63v127q-101 11 -167 86t-66 184t66 184.5t167 86.5v111h63v-111q85 -8 146.5 -61.5t80.5 -136.5h-64q-16 58 -60 95t-103 43v-422zM92 385q0 -85 47.5 -142.5t123.5 -67.5v419q-75 -9 -123 -67
t-48 -142z" />
    <glyph glyph-name="sterling" unicode="&#xa3;" horiz-adv-x="636" 
d="M593 200q-4 -54 -21.5 -93.5t-38.5 -59.5t-49.5 -31t-46.5 -13.5t-38 -2.5h-356v66q54 10 88 71t26 115q-3 20 -12 59h-85v59h67q-19 61 -24 91q-6 23 -2.5 50.5t10.5 55t26 53t44 45.5t63.5 32t84.5 12q45 0 81 -11t58 -28.5t38.5 -39t23.5 -42.5t11 -38.5t5 -28.5v-11
l-56 -13q-6 61 -30 95q-41 58 -131 58q-67 0 -108 -32.5t-52 -74t-3 -82.5q2 -11 24 -91h259v-59h-247q9 -33 11 -56q7 -68 -19 -121t-72 -75h258q19 0 34 2t38 11t39 24.5t29 46.5t16 74z" />
    <glyph glyph-name="currency" unicode="&#xa4;" horiz-adv-x="751" 
d="M607 314q0 -80 -49 -141l120 -120l-41 -42l-121 121q-61 -50 -141 -50t-141 50l-121 -121l-41 42l120 120q-50 61 -50 141t50 142l-120 120l41 42l121 -121q61 50 141 50t141 -50l121 121l41 -42l-120 -120q49 -63 49 -142zM375 495q-76 0 -128 -54q-52 -52 -52 -127
t52 -127q53 -53 128 -53q74 0 127 53q54 54 52 128q0 74 -52 126q-52 54 -127 54z" />
    <glyph glyph-name="yen" unicode="&#xa5;" horiz-adv-x="597" 
d="M358 404h201v-50h-229v-116h229v-53h-229v-185h-63v185h-229v53h229v116h-229v50h200l-189 293h65l184 -284l186 284h64z" />
    <glyph glyph-name="brokenbar" unicode="&#xa6;" horiz-adv-x="241" 
d="M151 898v-326h-61v326h61zM90 181h61v-325h-61v325z" />
    <glyph glyph-name="section" unicode="&#xa7;" horiz-adv-x="546" 
d="M357 104q55 -29 81.5 -62.5t26.5 -84.5q0 -75 -49 -125.5t-134 -50.5t-137 51t-55 136h63q3 -52 36 -88.5t92 -36.5q58 0 88 34t30 78q0 25 -10 44t-31.5 33.5t-39 23.5t-49.5 21q-92 35 -124 58q-64 47 -64 130q0 106 108 154q-53 28 -80.5 61.5t-27.5 85.5
q0 75 49.5 125.5t134.5 50.5t136.5 -51.5t55.5 -135.5h-63q-4 54 -37 89.5t-91 35.5t-88 -34t-30 -78q0 -36 23.5 -61.5t58.5 -38.5t76.5 -30t76.5 -35.5t58.5 -56t23.5 -89.5q0 -106 -108 -153zM146 268q0 -47 38 -80.5t94 -48.5q46 1 84.5 33.5t38.5 83.5q0 47 -38.5 80.5
t-94.5 47.5q-45 0 -83.5 -32.5t-38.5 -83.5z" />
    <glyph glyph-name="dieresis" unicode="&#xa8;" horiz-adv-x="481" 
d="M181 661q0 22 -16 37.5t-38 15.5t-37 -15.5t-15 -37.5t15 -37.5t37 -15.5t38 15.5t16 37.5zM352 714q-22 0 -37.5 -15.5t-15.5 -37.5t15.5 -37.5t37.5 -15.5t38 15.5t16 37.5t-16 37.5t-38 15.5z" />
    <glyph glyph-name="copyright" unicode="&#xa9;" horiz-adv-x="867" 
d="M433 767q161 0 275 -114t114 -275t-114 -275.5t-275 -114.5t-275 114.5t-114 275.5t114 275t275 114zM433 713q-139 0 -237 -98t-98 -237t98 -237.5t237 -98.5t237 98.5t98 237.5t-98 237t-237 98zM437 233q86 0 120 81h51q-18 -57 -63.5 -92t-107.5 -35q-78 0 -128.5 54
t-50.5 136q0 83 50 137t129 54q63 0 108 -35t63 -92h-51q-15 37 -46.5 58.5t-73.5 21.5q-59 0 -94.5 -40t-35.5 -104t35.5 -104t94.5 -40z" />
    <glyph glyph-name="guillemotleft" unicode="&#xab;" horiz-adv-x="605" 
d="M294 522h68l-170 -224l170 -224h-68l-170 224zM412 522h68l-170 -224l170 -224h-68l-170 224z" />
    <glyph glyph-name="logicalnot" unicode="&#xac;" horiz-adv-x="658" 
d="M604 462v-289h-61v229h-489v60h550z" />
    <glyph glyph-name="registered" unicode="&#xae;" horiz-adv-x="866" 
d="M432 767q161 0 275.5 -114t114.5 -275t-114.5 -275.5t-275.5 -114.5t-275 114.5t-114 275.5t114 275t275 114zM432 713q-139 0 -236.5 -98t-97.5 -237t97.5 -237.5t236.5 -98.5t237.5 98.5t98.5 237.5t-98.5 237t-237.5 98zM457 326h-3q-3 -1 -14 -1.5t-30 -0.5l162 -129
h-61l-143 109v-109h-46v370h124q56 0 87 -33t31 -88q0 -50 -27 -82t-80 -36zM368 364h73q36 0 56 22t20 59q0 36 -20 58t-56 22h-72z" />
    <glyph glyph-name="degree" unicode="&#xb0;" horiz-adv-x="444" 
d="M222 771q76 0 126.5 -49t50.5 -122t-50.5 -122t-126.5 -49t-126.5 49t-50.5 122t50.5 122t126.5 49zM222 481q53 0 87 33.5t34 85.5t-34 86t-87 34t-87 -33.5t-34 -86.5q0 -52 34 -85.5t87 -33.5z" />
    <glyph glyph-name="plusminus" unicode="&#xb1;" horiz-adv-x="569" 
d="M527 316h-211v-143h-62v143h-212v63h212v142h62v-142h211v-63zM42 141v-63h485v63h-485z" />
    <glyph glyph-name="uni00B2" unicode="&#xb2;" horiz-adv-x="359" 
d="M305 652q0 -37 -21.5 -73.5t-49.5 -62t-63.5 -62.5t-54.5 -69h181v-35h-239q9 35 62 97q23 27 62 67t51 56q35 45 35 84q0 34 -22 56.5t-60 22.5q-39 0 -61.5 -25t-24.5 -66h-36q0 51 32 88.5t90 37.5q55 0 87 -33t32 -83z" />
    <glyph glyph-name="uni00B3" unicode="&#xb3;" horiz-adv-x="376" 
d="M196 587q57 -6 95.5 -37t38.5 -82q0 -50 -35 -91t-105 -41q-64 0 -98.5 34t-45.5 78l31 7q22 -88 112 -88q53 0 82 29.5t29 69.5q0 39 -28.5 63t-72.5 29q-11 1 -27 0l-17 -2l-6 23l134 146h-214v29h253v-28z" />
    <glyph glyph-name="acute" unicode="&#xb4;" horiz-adv-x="314" 
d="M172 731h77l-128 -158h-57z" />
    <glyph glyph-name="uni00B5" unicode="&#xb5;" horiz-adv-x="577" 
d="M523 521v-521h-63v110q-21 -53 -69 -88t-125 -35q-112 0 -149 91v-255h-64v698h62v-274q0 -88 40 -145t126 -57q46 0 82.5 18t56.5 45.5t30 57t10 56.5v299h63z" />
    <glyph glyph-name="paragraph" unicode="&#xb6;" horiz-adv-x="711" 
d="M609 756v-62h-77v-922h-61v922h-107v-922h-61v580q-83 2 -142 61t-59 141q0 83 59 142.5t142 59.5h306z" />
    <glyph glyph-name="periodcentered" unicode="&#xb7;" horiz-adv-x="256" 
d="M171 454q0 19 -12.5 31.5t-29.5 12.5q-19 0 -31.5 -12.5t-12.5 -31.5q0 -18 12.5 -30.5t31.5 -12.5q17 0 29.5 13t12.5 30z" />
    <glyph glyph-name="cedilla" unicode="&#xb8;" horiz-adv-x="343" 
d="M212 0l-34 -68q23 5 49.5 -1t47.5 -30t18 -62q-3 -44 -42 -63t-77 -19q-25 0 -61 12t-64 39l25 32q44 -36 93 -40q32 -2 54 11.5t24 31.5q4 27 -13 40t-44 14l-39 -4l-24 33l38 74h49z" />
    <glyph glyph-name="uni00B9" unicode="&#xb9;" horiz-adv-x="214" 
d="M69 676q23 0 38.5 14t15.5 36v28h37v-410h-37v294h-70v38h16z" />
    <glyph glyph-name="guillemotright" unicode="&#xbb;" horiz-adv-x="605" 
d="M362 298l-170 -224h-68l170 224l-170 224h68zM480 298l-170 -224h-68l170 224l-170 224h68z" />
    <glyph glyph-name="onequarter" unicode="&#xbc;" horiz-adv-x="772" 
d="M68 616q22 0 38 14t16 36v27h37v-409h-37v294h-70v38h16zM162 0h48l361 693h-49zM719 113h-46v-113h-38v113h-203v40l203 258h38v-258h46v-40zM635 153v195l-156 -195h156z" />
    <glyph glyph-name="onehalf" unicode="&#xbd;" horiz-adv-x="791" 
d="M79 616q22 0 37.5 14t15.5 36v28h38v-411h-38v295h-69v38h16zM172 0h49l361 693h-49zM729 302q0 -37 -21.5 -73.5t-49.5 -62t-63.5 -62.5t-54.5 -69h181v-35h-239q9 35 62 97q23 27 62 67t51 56q35 45 35 84q0 34 -22 56.5t-60 22.5q-39 0 -61.5 -25t-24.5 -66h-36
q0 51 32 88.5t90 37.5q55 0 87 -33t32 -83z" />
    <glyph glyph-name="threequarters" unicode="&#xbe;" horiz-adv-x="909" 
d="M261 528q56 -6 93.5 -37t37.5 -82t-35 -92.5t-106 -41.5q-64 0 -98.5 34t-45.5 78l36 9q8 -35 34 -60.5t74 -25.5q50 0 77.5 29t27.5 67t-27.5 61.5t-69.5 27.5q-12 1 -20 0t-16.5 -2t-9.5 -1l-8 27l133 141h-207v34h253v-33zM244 0h48l361 693h-49zM801 113h-46v-113
h-38v113h-203v40l203 258h38v-258h46v-40zM717 153v195l-156 -195h156z" />
    <glyph glyph-name="questiondown" unicode="&#xbf;" horiz-adv-x="578" 
d="M278 686q19 0 31.5 12.5t12.5 31.5t-12.5 32t-31.5 13q-20 0 -32.5 -12.5t-12.5 -32.5q0 -19 13 -31.5t32 -12.5zM247 522q0 -14 3 -26.5t11 -25t14 -20.5t21 -20.5t22.5 -18t28 -20.5t27.5 -20q61 -46 83 -82.5t20 -76.5q-1 -28 -11 -56t-31.5 -55t-61 -43.5
t-91.5 -16.5q-55 0 -94 18t-58 49t-27.5 62t-8.5 67v12.5v12.5l1 6h-61q-2 -17 -2 -39q0 -30 4.5 -58t20 -64t41.5 -62.5t73.5 -44.5t110.5 -18q72 0 126 22.5t82 58t41.5 72t13.5 73.5q0 106 -110 193q-14 10 -34.5 24.5t-30 21t-23 17t-19 16.5t-12 14t-9 16t-3.5 17v85
h-56z" />
    <glyph glyph-name="Agrave" unicode="&#xc0;" horiz-adv-x="741" 
d="M334 803l-122 134h77l102 -134h-57zM540 193h-338l-68 -193h-64l264 752h72l264 -752h-63zM517 255l-146 420l-148 -420h294z" />
    <glyph glyph-name="Aacute" unicode="&#xc1;" horiz-adv-x="741" 
d="M343 803l102 134h77l-122 -134h-57zM540 193h-338l-68 -193h-64l264 752h72l264 -752h-63zM517 255l-146 420l-148 -420h294z" />
    <glyph glyph-name="Acircumflex" unicode="&#xc2;" horiz-adv-x="741" 
d="M508 803h-58l-80 95l-80 -95h-59l104 134h70zM540 193h-338l-68 -193h-64l264 752h72l264 -752h-63zM517 255l-146 420l-148 -420h294z" />
    <glyph glyph-name="Atilde" unicode="&#xc3;" horiz-adv-x="741" 
d="M503 944q-7 -58 -55 -58q-27 0 -76.5 29.5t-88.5 29.5q-89 0 -97 -111h47q8 58 55 58q30 0 78 -29.5t87 -29.5q89 0 97 111h-47zM540 193h-338l-68 -193h-64l264 752h72l264 -752h-63zM517 255l-146 420l-148 -420h294z" />
    <glyph glyph-name="Adieresis" unicode="&#xc4;" horiz-adv-x="741" 
d="M245 888q0 18 -12 30.5t-30 12.5q-17 0 -29.5 -12.5t-12.5 -30.5q0 -17 12 -29t30 -12t30 12t12 29zM586 888q0 17 -12.5 30t-29.5 13t-29.5 -13t-12.5 -30t12.5 -29t29.5 -12t29.5 12t12.5 29zM540 193h-338l-68 -193h-64l264 752h72l264 -752h-63zM517 255l-146 420
l-148 -420h294z" />
    <glyph glyph-name="Aring" unicode="&#xc5;" horiz-adv-x="741" 
d="M670 0h-63l-68 193h-337l-68 -193h-64l259 740q-31 10 -51 37.5t-20 62.5q0 46 33 79t79 33t79 -33t33 -79q0 -35 -20 -62.5t-52 -37.5zM371 913q-30 0 -51.5 -21t-21.5 -52q0 -30 21.5 -51t51.5 -21t50.5 21t20.5 51q0 31 -20.5 52t-50.5 21zM517 255l-146 420
l-148 -420h294z" />
    <glyph glyph-name="AE" unicode="&#xc6;" horiz-adv-x="880" 
d="M420 692v-281h344v-60h-344v-292h395v-59h-456v193h-163l-68 -193h-63l264 752h486v-60h-395zM359 254v401l-141 -401h141z" />
    <glyph glyph-name="Ccedilla" unicode="&#xc7;" horiz-adv-x="752" 
d="M386 50q95 0 164 49.5t104 131.5h69q-38 -104 -120 -169.5t-195 -71.5l-35 -65q55 6 87.5 -21.5t27.5 -74.5q-3 -33 -35 -57t-82 -23q-66 1 -128 51l27 31q28 -22 58.5 -31.5t54 -6.5t39.5 14.5t18 28.5q2 24 -9.5 37t-33 14.5t-31 0.5t-21.5 -3h-1l-24 34l37 71
q-147 10 -237.5 117.5t-90.5 270.5q0 171 99 281t257 110q120 0 208.5 -65.5t129.5 -176.5h-69q-35 82 -105 130.5t-165 48.5q-133 0 -212.5 -92t-79.5 -236t80 -236t214 -92z" />
    <glyph glyph-name="Egrave" unicode="&#xc8;" horiz-adv-x="578" 
d="M277 803l-122 134h77l102 -134h-57zM122 693v-281h344v-60h-344v-292h395v-60h-456v753h456v-60h-395z" />
    <glyph glyph-name="Eacute" unicode="&#xc9;" horiz-adv-x="578" 
d="M240 803l102 134h77l-122 -134h-57zM122 693v-281h344v-60h-344v-292h395v-60h-456v753h456v-60h-395z" />
    <glyph glyph-name="Ecircumflex" unicode="&#xca;" horiz-adv-x="578" 
d="M426 803h-58l-80 95l-80 -95h-59l104 134h70zM122 693v-281h344v-60h-344v-292h395v-60h-456v753h456v-60h-395z" />
    <glyph glyph-name="Edieresis" unicode="&#xcb;" horiz-adv-x="578" 
d="M162 888q0 18 -12 30.5t-30 12.5q-17 0 -29.5 -12.5t-12.5 -30.5q0 -17 12 -29t30 -12t30 12t12 29zM503 888q0 17 -12.5 30t-29.5 13t-29.5 -13t-12.5 -30t12.5 -29t29.5 -12t29.5 12t12.5 29zM122 693v-281h344v-60h-344v-292h395v-60h-456v753h456v-60h-395z" />
    <glyph glyph-name="Igrave" unicode="&#xcc;" horiz-adv-x="331" 
d="M194 803l-122 134h77l102 -134h-57zM259 752h-63v-752h63v752z" />
    <glyph glyph-name="Iacute" unicode="&#xcd;" horiz-adv-x="330" 
d="M77 803l102 134h77l-122 -134h-57zM136 752h-63v-752h63v752z" />
    <glyph glyph-name="Icircumflex" unicode="&#xce;" horiz-adv-x="415" 
d="M346 803h-58l-80 95l-80 -95h-59l104 134h70zM240 752h-63v-752h63v752z" />
    <glyph glyph-name="Idieresis" unicode="&#xcf;" horiz-adv-x="559" 
d="M151 888q0 18 -12 30.5t-30 12.5q-17 0 -29.5 -12.5t-12.5 -30.5q0 -17 12 -29t30 -12t30 12t12 29zM492 888q0 17 -12.5 30t-29.5 13t-29.5 -13t-12.5 -30t12.5 -29t29.5 -12t29.5 12t12.5 29zM311 752h-63v-752h63v752z" />
    <glyph glyph-name="Eth" unicode="&#xd0;" horiz-adv-x="787" 
d="M413 753q170 0 260.5 -103t90.5 -268q0 -171 -94 -276.5t-257 -105.5h-218v351h-173v62h173v340h218zM414 63q136 0 210 87t74 231q0 139 -70.5 224t-213.5 85h-157v-277h173v-62h-173v-288h157z" />
    <glyph glyph-name="Ntilde" unicode="&#xd1;" horiz-adv-x="731" 
d="M500 944q-7 -58 -55 -58q-27 0 -76.5 29.5t-88.5 29.5q-89 0 -97 -111h47q8 58 55 58q29 0 78 -29.5t87 -29.5q89 0 97 111h-47zM671 752v-752h-65l-484 653v-653h-62v752h64l484 -652v652h63z" />
    <glyph glyph-name="Ograve" unicode="&#xd2;" horiz-adv-x="816" 
d="M376 803l-122 134h77l102 -134h-57zM408 768q162 0 264.5 -110.5t102.5 -280.5q0 -169 -102.5 -279t-264.5 -110t-264.5 110t-102.5 279q0 171 102.5 281t264.5 110zM407 49q136 0 220 92.5t84 235.5q0 144 -83.5 236t-220.5 92q-136 0 -219.5 -91.5t-83.5 -236.5
q0 -144 83.5 -236t219.5 -92z" />
    <glyph glyph-name="Oacute" unicode="&#xd3;" horiz-adv-x="816" 
d="M376 803l102 134h77l-122 -134h-57zM408 768q162 0 264.5 -110.5t102.5 -280.5q0 -169 -102.5 -279t-264.5 -110t-264.5 110t-102.5 279q0 171 102.5 281t264.5 110zM407 49q136 0 220 92.5t84 235.5q0 144 -83.5 236t-220.5 92q-136 0 -219.5 -91.5t-83.5 -236.5
q0 -144 83.5 -236t219.5 -92z" />
    <glyph glyph-name="Ocircumflex" unicode="&#xd4;" horiz-adv-x="816" 
d="M546 803h-58l-80 95l-80 -95h-59l104 134h70zM408 768q162 0 264.5 -110.5t102.5 -280.5q0 -169 -102.5 -279t-264.5 -110t-264.5 110t-102.5 279q0 171 102.5 281t264.5 110zM407 49q136 0 220 92.5t84 235.5q0 144 -83.5 236t-220.5 92q-136 0 -219.5 -91.5
t-83.5 -236.5q0 -144 83.5 -236t219.5 -92z" />
    <glyph glyph-name="Otilde" unicode="&#xd5;" horiz-adv-x="816" 
d="M536 944q-7 -58 -55 -58q-27 0 -76.5 29.5t-88.5 29.5q-89 0 -97 -111h47q8 58 55 58q29 0 78 -29.5t87 -29.5q89 0 97 111h-47zM408 768q162 0 264.5 -110.5t102.5 -280.5q0 -169 -102.5 -279t-264.5 -110t-264.5 110t-102.5 279q0 171 102.5 281t264.5 110zM407 49
q136 0 220 92.5t84 235.5q0 144 -83.5 236t-220.5 92q-136 0 -219.5 -91.5t-83.5 -236.5q0 -144 83.5 -236t219.5 -92z" />
    <glyph glyph-name="Odieresis" unicode="&#xd6;" horiz-adv-x="816" 
d="M282 888q0 18 -12 30.5t-30 12.5q-17 0 -29.5 -12.5t-12.5 -30.5q0 -17 12 -29t30 -12t30 12t12 29zM623 888q0 17 -12.5 30t-29.5 13t-29.5 -13t-12.5 -30t12.5 -29t29.5 -12t29.5 12t12.5 29zM408 768q162 0 264.5 -110.5t102.5 -280.5q0 -169 -102.5 -279t-264.5 -110
t-264.5 110t-102.5 279q0 171 102.5 281t264.5 110zM407 49q136 0 220 92.5t84 235.5q0 144 -83.5 236t-220.5 92q-136 0 -219.5 -91.5t-83.5 -236.5q0 -144 83.5 -236t219.5 -92z" />
    <glyph glyph-name="multiply" unicode="&#xd7;" horiz-adv-x="522" 
d="M455 466l-150 -150l150 -151l-44 -44l-150 151l-151 -151l-44 44l151 151l-151 150l44 44l151 -150l150 150z" />
    <glyph glyph-name="Oslash" unicode="&#xd8;" horiz-adv-x="846" 
d="M683 660q106 -109 106 -283q0 -169 -102.5 -279t-264.5 -110q-124 0 -213 66l-92 -118l-49 39l94 120q-106 109 -106 283q0 170 102 280t264 110q120 0 213 -67l92 118l49 -39zM119 377q0 -144 83 -230l395 505q-76 54 -175 54q-136 0 -219.5 -92.5t-83.5 -236.5zM422 49
q136 0 220 92.5t84 235.5q0 142 -84 231l-394 -504q72 -55 174 -55z" />
    <glyph glyph-name="Ugrave" unicode="&#xd9;" horiz-adv-x="713" 
d="M331 803l-122 134h77l102 -134h-57zM650 754v-464v-17t-5 -42t-14.5 -59t-31 -62.5t-51.5 -59.5t-80 -42t-112 -17t-112 16.5t-80 43t-51.5 58t-31 63.5t-14.5 58.5t-5 43.5v16v464h63v-463v-13.5t4 -33.5t11.5 -47.5t24 -49.5t40.5 -47t63 -33.5t88 -13.5
q67 0 115.5 24.5t70 59.5t33.5 70t13 59v25v463h62z" />
    <glyph glyph-name="Uacute" unicode="&#xda;" horiz-adv-x="713" 
d="M320 803l102 134h77l-122 -134h-57zM650 754v-464v-17t-5 -42t-14.5 -59t-31 -62.5t-51.5 -59.5t-80 -42t-112 -17t-112 16.5t-80 43t-51.5 58t-31 63.5t-14.5 58.5t-5 43.5v16v464h63v-463v-13.5t4 -33.5t11.5 -47.5t24 -49.5t40.5 -47t63 -33.5t88 -13.5
q67 0 115.5 24.5t70 59.5t33.5 70t13 59v25v463h62z" />
    <glyph glyph-name="Ucircumflex" unicode="&#xdb;" horiz-adv-x="713" 
d="M496 803h-58l-80 95l-80 -95h-59l104 134h70zM650 754v-464v-17t-5 -42t-14.5 -59t-31 -62.5t-51.5 -59.5t-80 -42t-112 -17t-112 16.5t-80 43t-51.5 58t-31 63.5t-14.5 58.5t-5 43.5v16v464h63v-463v-13.5t4 -33.5t11.5 -47.5t24 -49.5t40.5 -47t63 -33.5t88 -13.5
q67 0 115.5 24.5t70 59.5t33.5 70t13 59v25v463h62z" />
    <glyph glyph-name="Udieresis" unicode="&#xdc;" horiz-adv-x="713" 
d="M227 888q0 18 -12 30.5t-30 12.5q-17 0 -29.5 -12.5t-12.5 -30.5q0 -17 12 -29t30 -12t30 12t12 29zM568 888q0 17 -12.5 30t-29.5 13t-29.5 -13t-12.5 -30t12.5 -29t29.5 -12t29.5 12t12.5 29zM650 754v-464v-17t-5 -42t-14.5 -59t-31 -62.5t-51.5 -59.5t-80 -42
t-112 -17t-112 16.5t-80 43t-51.5 58t-31 63.5t-14.5 58.5t-5 43.5v16v464h63v-463v-13.5t4 -33.5t11.5 -47.5t24 -49.5t40.5 -47t63 -33.5t88 -13.5q67 0 115.5 24.5t70 59.5t33.5 70t13 59v25v463h62z" />
    <glyph glyph-name="Yacute" unicode="&#xdd;" horiz-adv-x="688" 
d="M309 803l102 134h77l-122 -134h-57zM543 752h72l-241 -428v-324h-62v324l-240 428h72l199 -359z" />
    <glyph glyph-name="Thorn" unicode="&#xde;" horiz-adv-x="586" 
d="M305 629q114 0 176 -67.5t62 -176.5q0 -110 -62.5 -178t-175.5 -68h-199v-139h-63v767h64v-138h198zM307 200q83 0 129 50.5t46 134.5q0 83 -46 133t-129 50h-200l-1 -368h201z" />
    <glyph glyph-name="germandbls" unicode="&#xdf;" horiz-adv-x="619" 
d="M408 399q163 -36 163 -179q0 -102 -76.5 -167t-189.5 -65q-44 0 -77 10l24 58q24 -7 50 -7q85 0 142 47t57 125q0 120 -160 145v62q120 23 120 122q0 70 -54 112t-132 42t-121 -45t-43 -121v-538h-63v539q0 106 59.5 167t166.5 61q111 0 183 -61.5t72 -154.5
q0 -118 -121 -152z" />
    <glyph glyph-name="agrave" unicode="&#xe0;" 
d="M315 573h-57l-116 158h77zM484 137q0 -14 2.5 -30t17 -35.5t39.5 -19.5v-52h-9t-22 3.5t-29.5 10.5t-27 22t-19.5 36q-18 -30 -70.5 -57t-121.5 -27q-99 0 -148 43.5t-49 111.5q0 145 218 161l156 7v44q-1 22 -7 41t-20.5 39t-43 31.5t-68.5 11.5q-32 0 -57.5 -8.5
t-39 -17.5t-26 -26.5t-15 -24t-8.5 -20.5l-61 17q51 137 207 137q100 0 151 -51.5t51 -133.5v-213zM421 258l-149 -7q-53 -2 -88 -17q-73 -25 -73 -91q0 -57 47 -80.5t103 -20.5q67 4 115 42q45 32 45 59v115z" />
    <glyph glyph-name="aacute" unicode="&#xe1;" 
d="M348 731h77l-116 -158h-57zM484 137q0 -14 2.5 -30t17 -35.5t39.5 -19.5v-52h-9t-22 3.5t-29.5 10.5t-27 22t-19.5 36q-18 -30 -70.5 -57t-121.5 -27q-99 0 -148 43.5t-49 111.5q0 145 218 161l156 7v44q-1 22 -7 41t-20.5 39t-43 31.5t-68.5 11.5q-32 0 -57.5 -8.5
t-39 -17.5t-26 -26.5t-15 -24t-8.5 -20.5l-61 17q51 137 207 137q100 0 151 -51.5t51 -133.5v-213zM421 258l-149 -7q-53 -2 -88 -17q-73 -25 -73 -91q0 -57 47 -80.5t103 -20.5q67 4 115 42q45 32 45 59v115z" />
    <glyph glyph-name="acircumflex" unicode="&#xe2;" 
d="M316 730l114 -158h-60l-90 112l-89 -112h-60l113 158h72zM484 137q0 -14 2.5 -30t17 -35.5t39.5 -19.5v-52h-9t-22 3.5t-29.5 10.5t-27 22t-19.5 36q-18 -30 -70.5 -57t-121.5 -27q-99 0 -148 43.5t-49 111.5q0 145 218 161l156 7v44q-1 22 -7 41t-20.5 39t-43 31.5
t-68.5 11.5q-32 0 -57.5 -8.5t-39 -17.5t-26 -26.5t-15 -24t-8.5 -20.5l-61 17q51 137 207 137q100 0 151 -51.5t51 -133.5v-213zM421 258l-149 -7q-53 -2 -88 -17q-73 -25 -73 -91q0 -57 47 -80.5t103 -20.5q67 4 115 42q45 32 45 59v115z" />
    <glyph glyph-name="atilde" unicode="&#xe3;" 
d="M418 714q-7 -58 -55 -58q-27 0 -77 29.5t-89 29.5q-88 0 -96 -110h47q8 58 56 58q28 0 76.5 -29.5t87.5 -29.5q89 0 97 110h-47zM484 137q0 -14 2.5 -30t17 -35.5t39.5 -19.5v-52h-9t-22 3.5t-29.5 10.5t-27 22t-19.5 36q-18 -30 -70.5 -57t-121.5 -27q-99 0 -148 43.5
t-49 111.5q0 145 218 161l156 7v44q-1 22 -7 41t-20.5 39t-43 31.5t-68.5 11.5q-32 0 -57.5 -8.5t-39 -17.5t-26 -26.5t-15 -24t-8.5 -20.5l-61 17q51 137 207 137q100 0 151 -51.5t51 -133.5v-213zM421 258l-149 -7q-53 -2 -88 -17q-73 -25 -73 -91q0 -57 47 -80.5
t103 -20.5q67 4 115 42q45 32 45 59v115z" />
    <glyph glyph-name="adieresis" unicode="&#xe4;" 
d="M214 658q0 17 -12.5 29.5t-29.5 12.5q-18 0 -29.5 -12t-11.5 -30q0 -17 11.5 -29t29.5 -12q17 0 29.5 12t12.5 29zM397 700q-17 0 -29.5 -12.5t-12.5 -29.5t12.5 -29t29.5 -12t29.5 12t12.5 29t-12.5 29.5t-29.5 12.5zM484 137q0 -14 2.5 -30t17 -35.5t39.5 -19.5v-52h-9
t-22 3.5t-29.5 10.5t-27 22t-19.5 36q-18 -30 -70.5 -57t-121.5 -27q-99 0 -148 43.5t-49 111.5q0 145 218 161l156 7v44q-1 22 -7 41t-20.5 39t-43 31.5t-68.5 11.5q-32 0 -57.5 -8.5t-39 -17.5t-26 -26.5t-15 -24t-8.5 -20.5l-61 17q51 137 207 137q100 0 151 -51.5
t51 -133.5v-213zM421 258l-149 -7q-53 -2 -88 -17q-73 -25 -73 -91q0 -57 47 -80.5t103 -20.5q67 4 115 42q45 32 45 59v115z" />
    <glyph glyph-name="aring" unicode="&#xe5;" 
d="M282 795q48 0 81.5 -33.5t33.5 -81.5t-33.5 -82t-81.5 -34t-82 34t-34 82t34 81.5t82 33.5zM282 745q-27 0 -46 -19t-19 -46q0 -28 19 -47t46 -19q28 0 46.5 19t18.5 47q0 27 -18.5 46t-46.5 19zM484 137q0 -14 2.5 -30t17 -35.5t39.5 -19.5v-52h-9t-22 3.5t-29.5 10.5
t-27 22t-19.5 36q-18 -30 -70.5 -57t-121.5 -27q-99 0 -148 43.5t-49 111.5q0 145 218 161l156 7v44q-1 22 -7 41t-20.5 39t-43 31.5t-68.5 11.5q-32 0 -57.5 -8.5t-39 -17.5t-26 -26.5t-15 -24t-8.5 -20.5l-61 17q51 137 207 137q100 0 151 -51.5t51 -133.5v-213zM421 258
l-149 -7q-53 -2 -88 -17q-73 -25 -73 -91q0 -57 47 -80.5t103 -20.5q67 4 115 42q45 32 45 59v115z" />
    <glyph glyph-name="ae" unicode="&#xe6;" horiz-adv-x="950" 
d="M928 261v-26h-466q6 -83 62.5 -135.5t138.5 -52.5q61 0 109.5 31t72.5 84h66q-29 -79 -95 -125.5t-154 -46.5q-77 0 -137.5 38t-90.5 103q-9 -59 -56.5 -100t-155.5 -41q-101 0 -150 43.5t-49 111.5q0 147 217 161l157 7q0 45 -1 51q-3 48 -34 82t-102 34
q-114 0 -146 -97l-63 17q51 137 206 137q79 0 127 -34.5t58 -99.5q30 61 89 97.5t132 36.5q114 0 189.5 -78t75.5 -198zM522 424q-24 -24 -42 -60q-17 -38 -18 -77v-2h403q-5 50 -20 79q-12 30 -42 60q-56 54 -140 54q-82 3 -141 -54zM393 155l4 103q-119 -2 -164 -8
q-145 -12 -145 -105q0 -39 26.5 -64t57.5 -32t64 -5q78 4 114 36.5t43 74.5z" />
    <glyph glyph-name="ccedilla" unicode="&#xe7;" horiz-adv-x="583" 
d="M296 46q71 0 122.5 38.5t71.5 104.5h63q-20 -82 -80.5 -135.5t-144.5 -63.5l-30 -58q23 5 49.5 -1t47.5 -30t18 -62q-3 -44 -42 -63t-77 -19q-25 0 -61 12t-64 39l25 32q44 -36 93 -40q32 -2 54 11.5t24 31.5q4 27 -13 40t-44 14l-39 -4l-24 33l34 64q-108 5 -178.5 81.5
t-70.5 190.5q0 118 76 196.5t190 78.5q95 0 165 -55.5t92 -146.5h-64q-19 66 -70.5 104.5t-122.5 38.5q-90 0 -147.5 -60.5t-57.5 -155.5t57.5 -155.5t147.5 -60.5z" />
    <glyph glyph-name="egrave" unicode="&#xe8;" horiz-adv-x="609" 
d="M329 573h-57l-116 158h77zM570 261q0 -18 -1 -26h-467q8 -83 64 -135.5t138 -52.5q61 0 109.5 30.5t72.5 83.5h66q-28 -78 -95 -125t-154 -47q-114 0 -189 77.5t-75 196.5q0 118 75.5 196t189.5 78t190 -78.5t76 -197.5zM506 285q-6 86 -62 139.5t-140 54.5
q-85 -1 -141 -55t-61 -139h404z" />
    <glyph glyph-name="eacute" unicode="&#xe9;" horiz-adv-x="609" 
d="M370 731h77l-116 -158h-57zM570 261q0 -18 -1 -26h-467q8 -83 64 -135.5t138 -52.5q61 0 109.5 30.5t72.5 83.5h66q-28 -78 -95 -125t-154 -47q-114 0 -189 77.5t-75 196.5q0 118 75.5 196t189.5 78t190 -78.5t76 -197.5zM506 285q-6 86 -62 139.5t-140 54.5
q-85 -1 -141 -55t-61 -139h404z" />
    <glyph glyph-name="ecircumflex" unicode="&#xea;" horiz-adv-x="609" 
d="M341 730l114 -158h-60l-90 112l-89 -112h-60l113 158h72zM570 261q0 -18 -1 -26h-467q8 -83 64 -135.5t138 -52.5q61 0 109.5 30.5t72.5 83.5h66q-28 -78 -95 -125t-154 -47q-114 0 -189 77.5t-75 196.5q0 118 75.5 196t189.5 78t190 -78.5t76 -197.5zM506 285
q-6 86 -62 139.5t-140 54.5q-85 -1 -141 -55t-61 -139h404z" />
    <glyph glyph-name="edieresis" unicode="&#xeb;" horiz-adv-x="609" 
d="M233 658q0 17 -12.5 29.5t-29.5 12.5q-18 0 -29.5 -12t-11.5 -30q0 -17 11.5 -29t29.5 -12q17 0 29.5 12t12.5 29zM416 700q-17 0 -29.5 -12.5t-12.5 -29.5t12.5 -29t29.5 -12t29.5 12t12.5 29t-12.5 29.5t-29.5 12.5zM570 261q0 -18 -1 -26h-467q8 -83 64 -135.5
t138 -52.5q61 0 109.5 30.5t72.5 83.5h66q-28 -78 -95 -125t-154 -47q-114 0 -189 77.5t-75 196.5q0 118 75.5 196t189.5 78t190 -78.5t76 -197.5zM506 285q-6 86 -62 139.5t-140 54.5q-85 -1 -141 -55t-61 -139h404z" />
    <glyph glyph-name="igrave" unicode="&#xec;" horiz-adv-x="324" 
d="M246 573h-57l-116 158h77zM251 522h-62v-522h62v522z" />
    <glyph glyph-name="iacute" unicode="&#xed;" horiz-adv-x="324" 
d="M173 731h77l-116 -158h-57zM135 522h-62v-522h62v522z" />
    <glyph glyph-name="icircumflex" unicode="&#xee;" horiz-adv-x="420" 
d="M245 730l114 -158h-60l-90 112l-89 -112h-60l113 158h72zM242 522h-62v-522h62v522z" />
    <glyph glyph-name="idieresis" unicode="&#xef;" horiz-adv-x="445" 
d="M151 658q0 17 -12.5 29.5t-29.5 12.5q-18 0 -29.5 -12t-11.5 -30q0 -17 11.5 -29t29.5 -12q17 0 29.5 12t12.5 29zM334 700q-17 0 -29.5 -12.5t-12.5 -29.5t12.5 -29t29.5 -12t29.5 12t12.5 29t-12.5 29.5t-29.5 12.5zM252 522h-62v-522h62v522z" />
    <glyph glyph-name="eth" unicode="&#xf0;" horiz-adv-x="668" 
d="M533 655q73 -103 73 -278q0 -101 -26 -178t-70 -121.5t-96.5 -66.5t-111.5 -22q-110 0 -178 69.5t-68 169.5q0 99 66.5 158.5t166.5 59.5q57 0 119 -22.5t94.5 -43.5t38.5 -29q0 2 -0.5 18.5t-2 31.5t-4 38.5t-7 46t-11 46.5t-17 47.5t-23.5 42.5l-173 -99l-20 35l163 91
q-53 58 -138 58q-32 0 -62 -7t-49.5 -17t-34.5 -20t-22 -17l-6 -7l-40 40q3 4 8 10t24 21t41.5 27t60 21.5t79.5 9.5q119 0 199 -84l86 50l20 -34zM307 52q51 1 92.5 22t65.5 49t41 64t23.5 60.5t8.5 44.5q-12 9 -43.5 28t-94 41.5t-113.5 22.5q-79 0 -123 -48.5t-44 -108.5
q0 -27 10 -56t30.5 -57.5t58.5 -45.5t88 -16z" />
    <glyph glyph-name="ntilde" unicode="&#xf1;" horiz-adv-x="596" 
d="M424 714q-7 -58 -55 -58q-27 0 -77 29.5t-89 29.5q-88 0 -96 -110h47q8 58 56 58q28 0 76.5 -29.5t87.5 -29.5q89 0 97 110h-47zM321 534q101 0 156.5 -64t55.5 -187v-283h-62v275q0 87 -40 144t-126 57q-46 0 -82.5 -18t-56.5 -45.5t-30 -57t-10 -56.5v-299h-63v521h62
v-109q23 54 71 88t125 34z" />
    <glyph glyph-name="ograve" unicode="&#xf2;" horiz-adv-x="614" 
d="M331 573h-57l-116 158h77zM307 535q115 0 190.5 -77.5t75.5 -195.5t-75.5 -196t-190.5 -78q-114 0 -190 77.5t-76 196.5q0 118 76 195.5t190 77.5zM307 45q90 0 147.5 61t57.5 156t-57.5 155.5t-147.5 60.5t-147 -61t-57 -156t57 -155.5t147 -60.5z" />
    <glyph glyph-name="oacute" unicode="&#xf3;" horiz-adv-x="614" 
d="M372 731h77l-116 -158h-57zM307 535q115 0 190.5 -77.5t75.5 -195.5t-75.5 -196t-190.5 -78q-114 0 -190 77.5t-76 196.5q0 118 76 195.5t190 77.5zM307 45q90 0 147.5 61t57.5 156t-57.5 155.5t-147.5 60.5t-147 -61t-57 -156t57 -155.5t147 -60.5z" />
    <glyph glyph-name="ocircumflex" unicode="&#xf4;" horiz-adv-x="614" 
d="M343 730l114 -158h-60l-90 112l-89 -112h-60l113 158h72zM307 535q115 0 190.5 -77.5t75.5 -195.5t-75.5 -196t-190.5 -78q-114 0 -190 77.5t-76 196.5q0 118 76 195.5t190 77.5zM307 45q90 0 147.5 61t57.5 156t-57.5 155.5t-147.5 60.5t-147 -61t-57 -156t57 -155.5
t147 -60.5z" />
    <glyph glyph-name="otilde" unicode="&#xf5;" horiz-adv-x="614" 
d="M428 714q-7 -58 -55 -58q-27 0 -77 29.5t-89 29.5q-88 0 -96 -110h47q8 58 56 58q28 0 76.5 -29.5t87.5 -29.5q89 0 97 110h-47zM307 535q115 0 190.5 -77.5t75.5 -195.5t-75.5 -196t-190.5 -78q-114 0 -190 77.5t-76 196.5q0 118 76 195.5t190 77.5zM307 45
q90 0 147.5 61t57.5 156t-57.5 155.5t-147.5 60.5t-147 -61t-57 -156t57 -155.5t147 -60.5z" />
    <glyph glyph-name="odieresis" unicode="&#xf6;" horiz-adv-x="614" 
d="M235 658q0 17 -12.5 29.5t-29.5 12.5q-18 0 -29.5 -12t-11.5 -30q0 -17 11.5 -29t29.5 -12q17 0 29.5 12t12.5 29zM418 700q-17 0 -29.5 -12.5t-12.5 -29.5t12.5 -29t29.5 -12t29.5 12t12.5 29t-12.5 29.5t-29.5 12.5zM307 535q115 0 190.5 -77.5t75.5 -195.5t-75.5 -196
t-190.5 -78q-114 0 -190 77.5t-76 196.5q0 118 76 195.5t190 77.5zM307 45q90 0 147.5 61t57.5 156t-57.5 155.5t-147.5 60.5t-147 -61t-57 -156t57 -155.5t147 -60.5z" />
    <glyph glyph-name="divide" unicode="&#xf7;" horiz-adv-x="576" 
d="M288 563q-19 0 -31.5 -12.5t-12.5 -30.5t12.5 -30.5t31.5 -12.5q17 0 29.5 12.5t12.5 30.5t-12.5 30.5t-29.5 12.5zM24 348v-63h528v63h-528zM330 113q0 18 -12.5 30.5t-29.5 12.5q-19 0 -31.5 -12.5t-12.5 -30.5t12.5 -30.5t31.5 -12.5q17 0 29.5 12.5t12.5 30.5z" />
    <glyph glyph-name="oslash" unicode="&#xf8;" horiz-adv-x="665" 
d="M531 449q67 -77 67 -187q0 -118 -76 -196t-190 -78q-87 0 -153 46l-69 -81l-47 40l69 83q-66 74 -66 186q0 118 75.5 195.5t190.5 78.5q83 0 152 -45l68 80l49 -40zM127 261q0 -82 44 -139l275 323q-50 33 -114 33q-90 0 -147.5 -61t-57.5 -156zM536 262q0 83 -44 140
l-275 -323q49 -34 115 -34q90 1 147 61.5t57 155.5z" />
    <glyph glyph-name="ugrave" unicode="&#xf9;" horiz-adv-x="595" 
d="M332 573h-57l-116 158h77zM274 -13q-101 0 -156.5 64t-55.5 187v283h62v-275q0 -87 40 -144t126 -57q46 0 82.5 18t56.5 45.5t30 57t10 56.5v299h63v-521h-62v109q-23 -54 -71 -88t-125 -34z" />
    <glyph glyph-name="uacute" unicode="&#xfa;" horiz-adv-x="595" 
d="M354 731h77l-116 -158h-57zM274 -13q-101 0 -156.5 64t-55.5 187v283h62v-275q0 -87 40 -144t126 -57q46 0 82.5 18t56.5 45.5t30 57t10 56.5v299h63v-521h-62v109q-23 -54 -71 -88t-125 -34z" />
    <glyph glyph-name="ucircumflex" unicode="&#xfb;" horiz-adv-x="595" 
d="M330 730l114 -158h-60l-90 112l-89 -112h-60l113 158h72zM274 -13q-101 0 -156.5 64t-55.5 187v283h62v-275q0 -87 40 -144t126 -57q46 0 82.5 18t56.5 45.5t30 57t10 56.5v299h63v-521h-62v109q-23 -54 -71 -88t-125 -34z" />
    <glyph glyph-name="udieresis" unicode="&#xfc;" horiz-adv-x="595" 
d="M220 658q0 17 -12.5 29.5t-29.5 12.5q-18 0 -29.5 -12t-11.5 -30q0 -17 11.5 -29t29.5 -12q17 0 29.5 12t12.5 29zM403 700q-17 0 -29.5 -12.5t-12.5 -29.5t12.5 -29t29.5 -12t29.5 12t12.5 29t-12.5 29.5t-29.5 12.5zM274 -13q-101 0 -156.5 64t-55.5 187v283h62v-275
q0 -87 40 -144t126 -57q46 0 82.5 18t56.5 45.5t30 57t10 56.5v299h63v-521h-62v109q-23 -54 -71 -88t-125 -34z" />
    <glyph glyph-name="yacute" unicode="&#xfd;" horiz-adv-x="575" 
d="M346 731h77l-116 -158h-57zM504 523q-43 -117 -139 -377t-139 -377h-64l100 274q-53 138 -189 480h73l135 -365q3 -7 10.5 -6.5t10.5 7.5l133 364h69z" />
    <glyph glyph-name="thorn" unicode="&#xfe;" horiz-adv-x="587" 
d="M308 528q111 0 180.5 -77t69.5 -197t-69.5 -197t-182.5 -77q-64 0 -115 30.5t-75 81.5v-330h-65v991h62v-336q65 111 195 111zM302 38q88 0 141 60t53 155q0 96 -53 156.5t-140 60.5q-86 0 -139.5 -59.5t-53.5 -159.5q0 -101 53 -157t139 -56z" />
    <glyph glyph-name="ydieresis" unicode="&#xff;" horiz-adv-x="575" 
d="M230 658q0 17 -12.5 29.5t-29.5 12.5q-18 0 -29.5 -12t-11.5 -30q0 -17 11.5 -29t29.5 -12q17 0 29.5 12t12.5 29zM413 700q-17 0 -29.5 -12.5t-12.5 -29.5t12.5 -29t29.5 -12t29.5 12t12.5 29t-12.5 29.5t-29.5 12.5zM504 523q-43 -117 -139 -377t-139 -377h-64l100 274
q-53 138 -189 480h73l135 -365q3 -7 10.5 -6.5t10.5 7.5l133 364h69z" />
    <glyph glyph-name="dotlessi" unicode="&#x131;" horiz-adv-x="257" 
d="M159 522h-62v-522h62v522z" />
    <glyph glyph-name="Lslash" unicode="&#x141;" horiz-adv-x="609" 
d="M578 63v-63h-438v344l-109 -36v56l109 37v352h63v-331l172 58v-56l-172 -59v-302h375z" />
    <glyph glyph-name="lslash" unicode="&#x142;" horiz-adv-x="342" 
d="M312 409l-110 -48v-361h-62v335l-110 -48v57l110 47v362h62v-335l110 47v-56z" />
    <glyph glyph-name="OE" unicode="&#x152;" horiz-adv-x="1158" 
d="M746 692v-280h345v-61h-345v-291h396v-60h-456v177q-40 -88 -119.5 -139.5t-184.5 -51.5q-162 0 -264.5 110.5t-102.5 279.5q0 171 102 280.5t265 109.5q105 0 184.5 -51t119.5 -139v177h456v-61h-396zM383 48q130 0 213.5 86t88.5 235l1 15q2 135 -84 227.5t-222 92.5
q-134 0 -218 -92.5t-84 -235.5q0 -144 84 -236t221 -92z" />
    <glyph glyph-name="oe" unicode="&#x153;" horiz-adv-x="1039" 
d="M1022 259q0 -18 -1 -27h-466q7 -83 63 -135.5t138 -52.5q62 0 110.5 31.5t72.5 84.5h65q-28 -79 -94 -125.5t-154 -46.5q-83 0 -146 43.5t-90 116.5q-28 -74 -91.5 -117t-146.5 -43q-114 0 -190 77.5t-76 195.5t76 196t190 79q83 -1 146.5 -44.5t91.5 -116.5
q27 73 90.5 117t145.5 44q114 0 190 -79t76 -198zM282 477q-90 0 -147.5 -60.5t-57.5 -155.5t58 -156t147 -61q90 0 147 61t57 156t-57 155.5t-147 60.5zM958 283q-5 86 -61 140t-141 54q-83 0 -139.5 -54t-62.5 -140h404z" />
    <glyph glyph-name="Scaron" unicode="&#x160;" horiz-adv-x="670" 
d="M467 938l-108 -135h-61l-108 135h61l77 -86l78 86h61zM343 411q54 -13 90.5 -23.5t74.5 -28t60 -38t36 -51.5t14 -70q0 -97 -71.5 -155t-196.5 -58q-133 0 -210.5 64.5t-88.5 166.5h62q11 -71 68.5 -121.5t167.5 -50.5q103 0 155.5 44.5t52.5 105.5q0 30 -14.5 54.5
t-34 39.5t-54 28.5t-58 20t-63.5 15.5q-151 36 -213.5 78.5t-61.5 125.5q2 90 71.5 149.5t196.5 59.5t202.5 -62t90.5 -170h-61q-15 77 -71 125t-161 48q-103 0 -154.5 -44.5t-51.5 -106.5q0 -59 51 -88.5t172 -57.5z" />
    <glyph glyph-name="scaron" unicode="&#x161;" horiz-adv-x="498" 
d="M383 724l-109 -144h-60l-108 144h60l78 -90l78 90h61zM389 372q-22 109 -143 109q-40 0 -68 -11.5t-40 -29t-17 -31.5t-5 -26q0 -37 34.5 -55.5t107.5 -35.5q39 -8 57 -12.5t49.5 -17t46.5 -26t27.5 -38t12.5 -56.5q0 -71 -52 -112.5t-140 -41.5q-100 0 -153 50t-59 115
h62q6 -41 41.5 -76t106.5 -35q56 0 95 25t39 76q0 42 -30.5 59.5t-112.5 37.5q-108 26 -151.5 54t-43.5 89q0 20 7.5 43t26 49.5t59 43.5t96.5 17q54 0 95 -15.5t64 -41t35 -52.5t15 -56z" />
    <glyph glyph-name="Ydieresis" unicode="&#x178;" horiz-adv-x="688" 
d="M216 882q0 18 -12 30.5t-30 12.5q-17 0 -29.5 -12.5t-12.5 -30.5q0 -17 12 -29t30 -12t30 12t12 29zM557 882q0 17 -12.5 30t-29.5 13t-29.5 -13t-12.5 -30t12.5 -29t29.5 -12t29.5 12t12.5 29zM543 752h72l-241 -428v-324h-62v324l-240 428h72l199 -359z" />
    <glyph glyph-name="Zcaron" unicode="&#x17d;" horiz-adv-x="691" 
d="M469 938l-108 -135h-61l-108 135h61l77 -86l78 86h61zM633 752v-62l-497 -630h497v-60h-576v61l497 630h-496v61h575z" />
    <glyph glyph-name="zcaron" unicode="&#x17e;" horiz-adv-x="508" 
d="M386 722l-109 -144h-60l-108 144h60l78 -90l78 90h61zM447 489l-303 -429h303v-60h-387v34l303 429h-303v60h387v-34z" />
    <glyph glyph-name="circumflex" unicode="&#x2c6;" horiz-adv-x="444" 
d="M257 731l114 -158h-60l-90 112l-89 -112h-60l113 158h72z" />
    <glyph glyph-name="ring" unicode="&#x2da;" horiz-adv-x="339" 
d="M169 801q51 0 87 -36t36 -87q0 -50 -36 -86t-87 -36t-87 36t-36 86q0 51 36 87t87 36zM169 595q34 0 58 24.5t24 58.5t-24 58.5t-58 24.5t-58.5 -24.5t-24.5 -58.5t24.5 -58.5t58.5 -24.5z" />
    <glyph glyph-name="tilde" unicode="&#x2dc;" horiz-adv-x="478" 
d="M374 711q-7 -58 -55 -58q-27 0 -77 29.5t-89 29.5q-88 0 -96 -110h47q8 58 56 58q28 0 76.5 -29.5t87.5 -29.5q89 0 97 110h-47z" />
    <glyph glyph-name="endash" unicode="&#x2013;" horiz-adv-x="712" 
d="M58 347v-63h596v63h-596z" />
    <glyph glyph-name="emdash" unicode="&#x2014;" horiz-adv-x="818" 
d="M58 349v-63h702v63h-702z" />
    <glyph glyph-name="quoteleft" unicode="&#x2018;" horiz-adv-x="272" 
d="M121 501q-48 0 -48 67q0 20 5.5 43.5t18.5 50t40 47.5t63 28v-34q-30 -11 -54.5 -48t-26.5 -68q19 0 32.5 -13t13.5 -30q0 -18 -12.5 -30.5t-31.5 -12.5z" />
    <glyph glyph-name="quoteright" unicode="&#x2019;" horiz-adv-x="272" 
d="M151 737q48 0 48 -67q0 -20 -5.5 -43.5t-18.5 -50t-40 -47.5t-63 -28v34q30 11 54.5 48t26.5 68q-19 0 -32.5 13t-13.5 30q0 18 12.5 30.5t31.5 12.5z" />
    <glyph glyph-name="quotesinglbase" unicode="&#x201a;" horiz-adv-x="272" 
d="M151 84q48 0 48 -67q0 -20 -5.5 -43.5t-18.5 -50t-40 -47.5t-63 -28v34q30 11 54.5 48t26.5 68q-19 0 -32.5 13t-13.5 30t12.5 30t31.5 13z" />
    <glyph glyph-name="quotedblleft" unicode="&#x201c;" horiz-adv-x="502" 
d="M169 501q-48 0 -48 67q0 20 5.5 43.5t18.5 50t40 47.5t63 28v-34q-30 -11 -54.5 -48t-26.5 -68q19 0 32.5 -13t13.5 -30q0 -18 -12.5 -30.5t-31.5 -12.5zM303 501q-48 0 -48 67q0 20 5.5 43.5t18.5 50t40 47.5t63 28v-34q-30 -11 -54.5 -48t-26.5 -68q19 0 32.5 -13
t13.5 -30q0 -18 -12.5 -30.5t-31.5 -12.5z" />
    <glyph glyph-name="quotedblright" unicode="&#x201d;" horiz-adv-x="502" 
d="M199 737q48 0 48 -67q0 -20 -5.5 -43.5t-18.5 -50t-40 -47.5t-63 -28v34q30 11 54.5 48t26.5 68q-19 0 -32.5 13t-13.5 30q0 18 12.5 30.5t31.5 12.5zM333 737q48 0 48 -67q0 -20 -5.5 -43.5t-18.5 -50t-40 -47.5t-63 -28v34q30 11 54.5 48t26.5 68q-19 0 -32.5 13
t-13.5 30q0 18 12.5 30.5t31.5 12.5z" />
    <glyph glyph-name="quotedblbase" unicode="&#x201e;" horiz-adv-x="502" 
d="M200 84q48 0 48 -67q0 -20 -5.5 -43.5t-18.5 -50t-40 -47.5t-63 -28v34q30 11 54.5 48t26.5 68q-19 0 -32.5 13t-13.5 30t13 30t31 13zM332 84q48 0 48 -67q0 -20 -5.5 -43.5t-18.5 -50t-40 -47.5t-63 -28v34q30 11 54.5 48t26.5 68q-19 0 -32.5 13t-13.5 30t13 30t31 13
z" />
    <glyph glyph-name="dagger" unicode="&#x2020;" horiz-adv-x="509" 
d="M452 502h-166v-356h-62v356h-167v63h167v195h62v-195h166v-63z" />
    <glyph glyph-name="daggerdbl" unicode="&#x2021;" horiz-adv-x="518" 
d="M290 502v-243h166v-63h-166v-196h-62v196h-166v63h166v243h-166v63h166v196h62v-196h166v-63h-166z" />
    <glyph glyph-name="bullet" unicode="&#x2022;" horiz-adv-x="552" 
d="M471 344q0 81 -57.5 138t-138.5 57t-138 -57t-57 -138t57 -138.5t138 -57.5t138.5 57.5t57.5 138.5z" />
    <glyph glyph-name="ellipsis" unicode="&#x2026;" horiz-adv-x="570" 
d="M473 38q0 19 -12.5 31t-30.5 12t-30.5 -12t-12.5 -31q0 -18 12.5 -30t30.5 -12q19 0 31 12t12 30zM328 36q0 18 -12.5 30.5t-30.5 12.5t-30.5 -12.5t-12.5 -30.5q0 -19 12 -31t31 -12t31 12.5t12 30.5zM182 34q0 18 -12 31t-30 13t-31 -12.5t-13 -31.5q0 -18 12.5 -30
t31.5 -12q18 0 30 12.5t12 29.5z" />
    <glyph glyph-name="perthousand" unicode="&#x2030;" horiz-adv-x="1214" 
d="M196 766q78 0 129.5 -52.5t51.5 -132.5q0 -81 -51.5 -133.5t-129.5 -52.5t-130 52.5t-52 133.5q0 80 52 132.5t130 52.5zM761 753h-58l-570 -753h58zM196 442q57 0 94 38.5t37 99.5q0 60 -37 98.5t-94 38.5q-58 0 -94.5 -38t-36.5 -99t36.5 -99.5t94.5 -38.5zM1019 358
q78 0 129.5 -52.5t51.5 -132.5q0 -81 -51.5 -133.5t-129.5 -52.5q-55 0 -98 28t-62 76q-20 -48 -63 -76t-97 -28q-78 0 -130 52.5t-52 133.5q0 80 52 132.5t130 52.5q54 0 97 -28t63 -76q19 48 62 76t98 28zM699 34q57 0 94 39t37 99t-37 98.5t-94 38.5q-58 0 -95 -38
t-37 -99q0 -60 37 -99t95 -39zM1019 34q57 0 94 39t37 99t-37 98.5t-94 38.5q-58 0 -95 -38t-37 -99q0 -60 37.5 -99t94.5 -39z" />
    <glyph glyph-name="guilsinglleft" unicode="&#x2039;" horiz-adv-x="382" 
d="M242 522h68l-170 -224l170 -224h-68l-170 224z" />
    <glyph glyph-name="guilsinglright" unicode="&#x203a;" horiz-adv-x="382" 
d="M310 298l-170 -224h-68l170 224l-170 224h68z" />
    <glyph glyph-name="fraction" unicode="&#x2044;" horiz-adv-x="493" 
d="M48 -49h58l338 872h-58z" />
    <glyph glyph-name="Euro" unicode="&#x20ac;" horiz-adv-x="731" 
d="M692 72q-89 -83 -222 -83q-129 0 -217.5 77t-110.5 203h-104v56h95q0 5 -0.5 13t-0.5 12q0 5 0.5 13t0.5 12h-95v56h104q22 126 110 203t217 77q135 0 224 -83l-33 -54q-74 77 -191 77q-103 0 -173 -60.5t-88 -159.5h364q-24 -36 -34 -56h-342q-1 -6 -1 -25t1 -25h314
q-1 -2 -17 -28t-17 -28h-268q18 -99 88 -159t173 -60q117 0 190 76z" />
    <glyph glyph-name="trademark" unicode="&#x2122;" horiz-adv-x="967" 
d="M59 754h313v-41h-134v-354h-41v354h-138v41zM908 754v-395h-41v317l-167 -317h-41l-168 317v-317h-40v395h44l184 -351l184 351h45z" />
    <glyph glyph-name="arrowleft" unicode="&#x2190;" horiz-adv-x="668" 
d="M634 362h-480l114 -115l-44 -43l-190 189l190 190l44 -44l-114 -114h480v-63z" />
    <glyph glyph-name="arrowup" unicode="&#x2191;" horiz-adv-x="512" 
d="M224 82v480l-114 -114l-44 44l190 189l190 -189l-44 -44l-115 115v-481h-63z" />
    <glyph glyph-name="arrowright" unicode="&#x2192;" horiz-adv-x="668" 
d="M34 425h480l-114 114l44 44l190 -190l-190 -189l-44 43l114 115h-480v63z" />
    <glyph glyph-name="arrowdown" unicode="&#x2193;" horiz-adv-x="512" 
d="M287 705v-481l115 115l44 -44l-190 -189l-190 189l44 44l114 -114v480h63z" />
    <glyph glyph-name="uni2196" unicode="&#x2196;" horiz-adv-x="541" 
d="M449 158l-340 340v-163h-62v268l268 1v-62h-161l339 -340z" />
    <glyph glyph-name="uni2197" unicode="&#x2197;" horiz-adv-x="540" 
d="M47 201l339 340h-161v62l268 -1v-268h-62v163l-340 -340z" />
    <glyph glyph-name="uni2198" unicode="&#x2198;" horiz-adv-x="542" 
d="M92 623l340 -339v161h62l-1 -268h-268v62h163l-340 340z" />
    <glyph glyph-name="uni2199" unicode="&#x2199;" horiz-adv-x="542" 
d="M494 579l-340 -340h163v-62h-268l-1 268h62v-161l340 339z" />
    <glyph glyph-name="minus" unicode="&#x2212;" horiz-adv-x="644" 
d="M58 348v-63h528v63h-528z" />
    <glyph glyph-name="filledbox" unicode="&#x25a0;" horiz-adv-x="815" 
d="M770 -1v771h-725v-771h725z" />
    <glyph glyph-name="uni25A1" unicode="&#x25a1;" horiz-adv-x="822" 
d="M775 770h-728v-770h728v770zM109 707h603v-644h-603v644z" />
    <glyph glyph-name="triagup" unicode="&#x25b2;" horiz-adv-x="926" 
d="M913 0l-450 780l-450 -780h900z" />
    <glyph glyph-name="uni25B3" unicode="&#x25b3;" horiz-adv-x="933" 
d="M467 782l-452 -782h903zM467 657l342 -594h-686z" />
    <glyph glyph-name="circle" unicode="&#x25cb;" horiz-adv-x="830" 
d="M415 -8q78 0 152 31q68 30 124 84q53 53 84 124q30 74 30 152q0 80 -30 152q-31 72 -84 124q-51 52 -124 84q-71 31 -152 31t-153 -31t-123 -84q-55 -53 -85 -124q-30 -72 -30 -152t30 -152q30 -69 85 -124q54 -54 123 -84q76 -31 153 -31zM183 616q41 42 103 70
q63 26 129 26t127 -26q59 -26 105 -70q44 -46 70 -105q26 -61 26 -128q0 -65 -26 -128q-26 -60 -70 -104q-48 -47 -105 -70q-61 -26 -127 -26t-129 26q-57 24 -103 70q-45 45 -71 104q-25 60 -25 128q0 69 25 128q23 55 71 105z" />
    <glyph glyph-name="uni25CF" unicode="&#x25cf;" horiz-adv-x="848" 
d="M424 -6q79 0 153 31q71 30 126 85q54 54 84 125q31 72 31 154q0 81 -31 153q-30 71 -84 125q-52 54 -126 85q-71 31 -153 31t-154 -31t-125 -85q-56 -56 -84 -125q-31 -72 -31 -153q0 -82 31 -154q28 -69 84 -125q55 -55 125 -85q76 -31 154 -31z" />
    <glyph glyph-name="uni2713" unicode="&#x2713;" horiz-adv-x="812" 
d="M817 738l-49 38l-539 -680l-186 215l-47 -41l236 -272z" />
    <glyph glyph-name="uni2715" unicode="&#x2715;" horiz-adv-x="847" 
d="M468 383l339 -339l-44 -45l-340 341l-339 -341l-44 45l339 339l-339 340l44 44l339 -339l340 339l44 -44z" />
    <glyph glyph-name="uni2780" unicode="&#x2780;" horiz-adv-x="834" 
d="M418 -25q78 0 149 31q65 26 124 82q54 56 82 123q29 68 29 149q0 82 -29 150q-31 75 -82 123q-53 53 -124 82q-71 31 -149 31q-77 0 -151 -31q-64 -26 -121 -82q-49 -49 -83 -123q-30 -70 -30 -150q0 -78 30 -149q34 -74 83 -123q55 -55 121 -82q74 -31 151 -31zM418 703
q140 0 241 -101q100 -100 100 -242q0 -141 -100 -241q-101 -101 -241 -101q-143 0 -241 101q-100 102 -100 241q0 140 100 242q98 101 241 101zM366 494q24 0 40.5 14.5t16.5 37.5v31h36v-435h-36v315h-74v37h17z" />
    <glyph glyph-name="uni2781" unicode="&#x2781;" horiz-adv-x="834" 
d="M418 -25q78 0 149 31q65 26 124 82q54 56 82 123q29 68 29 149q0 82 -29 150q-31 75 -82 123q-53 53 -124 82q-71 31 -149 31q-77 0 -151 -31q-64 -26 -121 -82q-49 -49 -83 -123q-30 -70 -30 -150q0 -78 30 -149q34 -74 83 -123q55 -55 121 -82q74 -31 151 -31zM418 703
q140 0 241 -101q100 -100 100 -242q0 -141 -100 -241q-101 -101 -241 -101q-143 0 -241 101q-100 102 -100 241q0 140 100 242q98 101 241 101zM552 462q0 -40 -23 -78.5t-52.5 -66t-67.5 -67t-58 -72.5h192v-37h-253q10 38 66 102q25 30 66.5 72.5t53.5 58.5q37 47 36 89
q0 35 -23 59.5t-63 24.5q-42 0 -65.5 -26t-25.5 -70h-39q0 54 33.5 93.5t96.5 39.5q58 0 92 -35t34 -87z" />
    <glyph glyph-name="uni2782" unicode="&#x2782;" horiz-adv-x="834" 
d="M418 -25q78 0 149 31q65 26 124 82q54 56 82 123q29 68 29 149q0 82 -29 150q-31 75 -82 123q-53 53 -124 82q-71 31 -149 31q-77 0 -151 -31q-64 -26 -121 -82q-49 -49 -83 -123q-30 -70 -30 -150q0 -78 30 -149q34 -74 83 -123q55 -55 121 -82q74 -31 151 -31zM418 703
q140 0 241 -101q100 -100 100 -242q0 -141 -100 -241q-101 -101 -241 -101q-143 0 -241 101q-100 102 -100 241q0 140 100 242q98 101 241 101zM430 403q59 -6 99 -39t40 -87t-37 -97.5t-112 -43.5q-68 0 -105 35.5t-47 81.5l39 9q7 -36 34.5 -62.5t78.5 -26.5q54 0 83 29.5
t29 70.5t-29 65.5t-74 29.5q-10 0 -21 -1t-19 -2t-9 -1l-8 29l141 149h-220v37h269v-36z" />
    <glyph glyph-name="uni2783" unicode="&#x2783;" horiz-adv-x="834" 
d="M418 -25q78 0 149 31q65 26 124 82q54 56 82 123q29 68 29 149q0 82 -29 150q-31 75 -82 123q-53 53 -124 82q-71 31 -149 31q-77 0 -151 -31q-64 -26 -121 -82q-49 -49 -83 -123q-30 -70 -30 -150q0 -78 30 -149q34 -74 83 -123q55 -55 121 -82q74 -31 151 -31zM418 703
q140 0 241 -101q100 -100 100 -242q0 -141 -100 -241q-101 -101 -241 -101q-143 0 -241 101q-100 102 -100 241q0 140 100 242q98 101 241 101zM532 265h-50v-123h-36v123h-217v36l217 276h36v-276h50v-36zM446 301v218l-174 -218h174z" />
    <glyph glyph-name="uni2784" unicode="&#x2784;" horiz-adv-x="834" 
d="M418 -25q78 0 149 31q65 26 124 82q54 56 82 123q29 68 29 149q0 82 -29 150q-31 75 -82 123q-53 53 -124 82q-71 31 -149 31q-77 0 -151 -31q-64 -26 -121 -82q-49 -49 -83 -123q-30 -70 -30 -150q0 -78 30 -149q34 -74 83 -123q55 -55 121 -82q74 -31 151 -31zM418 703
q140 0 241 -101q100 -100 100 -242q0 -141 -100 -241q-101 -101 -241 -101q-143 0 -241 101q-100 102 -100 241q0 140 100 242q98 101 241 101zM433 421q67 0 104.5 -36.5t37.5 -97.5q0 -62 -39 -106.5t-112 -44.5q-67 0 -104.5 35.5t-47.5 81.5l36 8q7 -33 35 -61t80 -28
t83.5 31.5t31.5 80.5q0 46 -27.5 73t-80.5 27q-27 0 -52.5 -7.5t-37.5 -14.5l-13 -8l-38 9l19 215h240v-36h-208l-11 -146q44 25 104 25z" />
    <glyph glyph-name="uni2785" unicode="&#x2785;" horiz-adv-x="834" 
d="M418 -25q78 0 149 31q65 26 124 82q54 56 82 123q29 68 29 149q0 82 -29 150q-31 75 -82 123q-53 53 -124 82q-71 31 -149 31q-77 0 -151 -31q-64 -26 -121 -82q-49 -49 -83 -123q-30 -70 -30 -150q0 -78 30 -149q34 -74 83 -123q55 -55 121 -82q74 -31 151 -31zM418 703
q140 0 241 -101q100 -100 100 -242q0 -141 -100 -241q-101 -101 -241 -101q-143 0 -241 101q-100 102 -100 241q0 140 100 242q98 101 241 101zM473 579l-122 -204q40 33 80 32q63 -1 96.5 -37t33.5 -93q0 -60 -37.5 -100t-105.5 -40q-64 0 -100.5 41.5t-36.5 98.5
q2 60 44 123l107 179h41zM421 173q46 0 74 29t28 73q0 46 -27.5 73t-69.5 27t-75 -26t-33 -74q0 -44 28 -73t75 -29z" />
    <glyph glyph-name="uni2786" unicode="&#x2786;" horiz-adv-x="834" 
d="M418 -25q78 0 149 31q65 26 124 82q54 56 82 123q29 68 29 149q0 82 -29 150q-31 75 -82 123q-53 53 -124 82q-71 31 -149 31q-77 0 -151 -31q-64 -26 -121 -82q-49 -49 -83 -123q-30 -70 -30 -150q0 -78 30 -149q34 -74 83 -123q55 -55 121 -82q74 -31 151 -31zM418 703
q140 0 241 -101q100 -100 100 -242q0 -141 -100 -241q-101 -101 -241 -101q-143 0 -241 101q-100 102 -100 241q0 140 100 242q98 101 241 101zM405 141q26 114 69 220.5t88 179.5v37h-265v-37h222q-41 -68 -86 -182t-68 -218h40z" />
    <glyph glyph-name="uni2787" unicode="&#x2787;" horiz-adv-x="834" 
d="M418 -25q78 0 149 31q65 26 124 82q54 56 82 123q29 68 29 149q0 82 -29 150q-31 75 -82 123q-53 53 -124 82q-71 31 -149 31q-77 0 -151 -31q-64 -26 -121 -82q-49 -49 -83 -123q-30 -70 -30 -150q0 -78 30 -149q34 -74 83 -123q55 -55 121 -82q74 -31 151 -31zM418 703
q140 0 241 -101q100 -100 100 -242q0 -141 -100 -241q-101 -101 -241 -101q-143 0 -241 101q-100 102 -100 241q0 140 100 242q98 101 241 101zM295 472q0 49 34.5 82t85.5 33q50 0 85.5 -33t35.5 -82q0 -30 -16.5 -55.5t-43.5 -38.5v-1l-1 -1q36 -14 58 -43.5t22 -67.5
q0 -55 -40.5 -92.5t-99.5 -37.5t-99.5 37.5t-40.5 92.5q0 38 22 67.5t58 43.5l-3 2q-25 13 -41 38.5t-16 55.5zM415 550q-34 0 -56.5 -22t-22.5 -56q0 -33 22.5 -56t56.5 -23t57 23t23 56q0 34 -23 56t-57 22zM415 172q42 0 69.5 26.5t27.5 66.5t-27.5 66t-69.5 26t-70 -26
t-28 -66t28.5 -66.5t69.5 -26.5z" />
    <glyph glyph-name="uni2788" unicode="&#x2788;" horiz-adv-x="834" 
d="M418 -25q78 0 149 31q65 26 124 82q54 56 82 123q29 68 29 149q0 82 -29 150q-31 75 -82 123q-53 53 -124 82q-71 31 -149 31q-77 0 -151 -31q-64 -26 -121 -82q-49 -49 -83 -123q-30 -70 -30 -150q0 -78 30 -149q34 -74 83 -123q55 -55 121 -82q74 -31 151 -31zM418 703
q140 0 241 -101q100 -100 100 -242q0 -141 -100 -241q-101 -101 -241 -101q-143 0 -241 101q-100 102 -100 241q0 140 100 242q98 101 241 101zM368 137l123 203q-39 -32 -80 -31q-63 1 -96.5 36.5t-33.5 93.5q0 60 37 100t105 40q64 0 101 -42t37 -98q-3 -60 -44 -124
l-107 -178h-42zM421 543q-47 0 -75 -29t-28 -74t28 -72.5t70 -27.5t74.5 26t32.5 74q0 45 -27.5 74t-74.5 29z" />
    <glyph glyph-name="uni2BC5" unicode="&#x2bc5;" horiz-adv-x="528" 
d="M454 347l-190 191l-190 -192l44 -43l146 146l146 -146z" />
    <glyph glyph-name="uni2BC6" unicode="&#x2bc6;" horiz-adv-x="528" 
d="M410 538l-146 -146l-146 146l-44 -43l190 -192l190 191z" />
    <glyph glyph-name="uni2BC7" unicode="&#x2bc7;" horiz-adv-x="369" 
d="M302 248l-146 146l146 146l-44 44l-191 -190l191 -190z" />
    <glyph glyph-name="uni2BC8" unicode="&#x2bc8;" horiz-adv-x="369" 
d="M111 204l191 190l-191 190l-44 -44l146 -146l-146 -146z" />
    <glyph glyph-name="NULL" horiz-adv-x="0" 
 />
    <glyph glyph-name="a.alt" 
d="M290 534q131 0 195 -113v107h63v-528h-63v97q-64 -111 -194 -111q-112 0 -181 77t-69 197t69 197t180 77zM296 476q-88 0 -140.5 -60t-52.5 -156t53 -156t141 -60q78 0 131.5 46.5t58.5 116.5q2 12 2 81q0 80 -54 134t-139 54z" />
    <glyph glyph-name="agrave.alt" 
d="M315 573h-57l-116 158h77zM290 534q131 0 195 -113v107h63v-528h-63v97q-64 -111 -194 -111q-112 0 -181 77t-69 197t69 197t180 77zM296 476q-88 0 -140.5 -60t-52.5 -156t53 -156t141 -60q78 0 131.5 46.5t58.5 116.5q2 12 2 81q0 80 -54 134t-139 54z" />
    <glyph glyph-name="aacute.alt" 
d="M348 731h77l-116 -158h-57zM290 534q131 0 195 -113v107h63v-528h-63v97q-64 -111 -194 -111q-112 0 -181 77t-69 197t69 197t180 77zM296 476q-88 0 -140.5 -60t-52.5 -156t53 -156t141 -60q78 0 131.5 46.5t58.5 116.5q2 12 2 81q0 80 -54 134t-139 54z" />
    <glyph glyph-name="acircumflex.alt" 
d="M325 730l114 -158h-60l-90 112l-89 -112h-60l113 158h72zM290 534q131 0 195 -113v107h63v-528h-63v97q-64 -111 -194 -111q-112 0 -181 77t-69 197t69 197t180 77zM296 476q-88 0 -140.5 -60t-52.5 -156t53 -156t141 -60q78 0 131.5 46.5t58.5 116.5q2 12 2 81
q0 80 -54 134t-139 54z" />
    <glyph glyph-name="atilde.alt" 
d="M418 714q-7 -58 -55 -58q-27 0 -77 29.5t-89 29.5q-88 0 -96 -110h47q8 58 56 58q28 0 76.5 -29.5t87.5 -29.5q89 0 97 110h-47zM290 534q131 0 195 -113v107h63v-528h-63v97q-64 -111 -194 -111q-112 0 -181 77t-69 197t69 197t180 77zM296 476q-88 0 -140.5 -60
t-52.5 -156t53 -156t141 -60q78 0 131.5 46.5t58.5 116.5q2 12 2 81q0 80 -54 134t-139 54z" />
    <glyph glyph-name="adieresis.alt" 
d="M230 658q0 17 -12.5 29.5t-29.5 12.5q-18 0 -29.5 -12t-11.5 -30q0 -17 11.5 -29t29.5 -12q17 0 29.5 12t12.5 29zM413 700q-17 0 -29.5 -12.5t-12.5 -29.5t12.5 -29t29.5 -12t29.5 12t12.5 29t-12.5 29.5t-29.5 12.5zM290 534q131 0 195 -113v107h63v-528h-63v97
q-64 -111 -194 -111q-112 0 -181 77t-69 197t69 197t180 77zM296 476q-88 0 -140.5 -60t-52.5 -156t53 -156t141 -60q78 0 131.5 46.5t58.5 116.5q2 12 2 81q0 80 -54 134t-139 54z" />
    <glyph glyph-name="aring.alt" 
d="M291 795q48 0 81.5 -33.5t33.5 -81.5t-33.5 -82t-81.5 -34t-82 34t-34 82t34 81.5t82 33.5zM291 745q-27 0 -46 -19t-19 -46q0 -28 19 -47t46 -19q28 0 46.5 19t18.5 47q0 27 -18.5 46t-46.5 19zM290 534q131 0 195 -113v107h63v-528h-63v97q-64 -111 -194 -111
q-112 0 -181 77t-69 197t69 197t180 77zM296 476q-88 0 -140.5 -60t-52.5 -156t53 -156t141 -60q78 0 131.5 46.5t58.5 116.5q2 12 2 81q0 80 -54 134t-139 54z" />
    <glyph glyph-name="ae.alt" horiz-adv-x="1062" 
d="M1024 259q0 -18 -1 -27h-467q8 -83 64 -135.5t138 -52.5q61 0 109.5 31t72.5 84h66q-28 -79 -94.5 -126t-154.5 -47q-69 0 -124.5 33.5t-85.5 90.5v-110h-62v97q-65 -111 -195 -111q-112 0 -181 77t-69 197t69.5 197t180.5 77q131 0 195 -113v108h62v-119
q30 57 85.5 90.5t125.5 33.5q114 0 190 -78.5t76 -196.5zM960 282q-6 85 -62 139t-140 56q-84 1 -140.5 -54t-61.5 -141h404zM295 476q-87 0 -140 -60t-53 -156t53 -156t141 -60q78 0 132 47t58 116q2 7 2 81q0 80 -54 134t-139 54z" />
    <glyph glyph-name="u.alt" horiz-adv-x="575" 
d="M515 521v-279q0 -125 -54 -190.5t-173 -65.5q-120 0 -174 65.5t-54 190.5v279h62v-272q0 -42 8.5 -76.5t27 -64t52 -46t78.5 -16.5q87 0 126 57t39 146v272h62z" />
    <glyph glyph-name="ugrave.alt" horiz-adv-x="575" 
d="M322 573h-57l-116 158h77zM515 521v-279q0 -125 -54 -190.5t-173 -65.5q-120 0 -174 65.5t-54 190.5v279h62v-272q0 -42 8.5 -76.5t27 -64t52 -46t78.5 -16.5q87 0 126 57t39 146v272h62z" />
    <glyph glyph-name="uacute.alt" horiz-adv-x="575" 
d="M344 731h77l-116 -158h-57zM515 521v-279q0 -125 -54 -190.5t-173 -65.5q-120 0 -174 65.5t-54 190.5v279h62v-272q0 -42 8.5 -76.5t27 -64t52 -46t78.5 -16.5q87 0 126 57t39 146v272h62z" />
    <glyph glyph-name="ucircumflex.alt" horiz-adv-x="575" 
d="M320 730l114 -158h-60l-90 112l-89 -112h-60l113 158h72zM515 521v-279q0 -125 -54 -190.5t-173 -65.5q-120 0 -174 65.5t-54 190.5v279h62v-272q0 -42 8.5 -76.5t27 -64t52 -46t78.5 -16.5q87 0 126 57t39 146v272h62z" />
    <glyph glyph-name="udieresis.alt" horiz-adv-x="575" 
d="M210 658q0 17 -12.5 29.5t-29.5 12.5q-18 0 -29.5 -12t-11.5 -30q0 -17 11.5 -29t29.5 -12q17 0 29.5 12t12.5 29zM393 700q-17 0 -29.5 -12.5t-12.5 -29.5t12.5 -29t29.5 -12t29.5 12t12.5 29t-12.5 29.5t-29.5 12.5zM515 521v-279q0 -125 -54 -190.5t-173 -65.5
q-120 0 -174 65.5t-54 190.5v279h62v-272q0 -42 8.5 -76.5t27 -64t52 -46t78.5 -16.5q87 0 126 57t39 146v272h62z" />
    </font>
</defs>
</svg>
