<?xml version="1.0" encoding="utf-8"?>
<!-- Generator: Adobe Illustrator 15.0.2, SVG Export Plug-In  -->
<!DOCTYPE svg PUBLIC "-//W3C//DTD SVG 1.0//EN" "http://www.w3.org/TR/2001/REC-SVG-20010904/DTD/svg10.dtd" [
	<!ENTITY ns_flows "http://ns.adobe.com/Flows/1.0/">
]>
<svg version="1.0" x="0px" y="0px" width="71px" height="71px" viewBox="0 0 71 71" overflow="visible" enable-background="new 0 0 71 71"
	 xml:space="preserve">
<defs>
</defs>
<path fill="#FFFFFF" d="M70.774,35.421c0,6.44-1.572,12.36-4.711,17.752c-3.138,5.396-7.432,9.689-12.881,12.881
	S41.82,70.846,35.43,70.846c-6.383,0-12.33-1.6-17.833-4.791c-5.503-3.191-9.77-7.485-12.794-12.881
	c-3.03-5.393-4.629-11.312-4.791-17.752c-0.168-6.441,1.432-12.357,4.791-17.75c3.353-5.396,7.62-9.689,12.794-12.881
	C22.771,1.599,28.717,0,35.43,0c6.719,0,12.632,1.599,17.752,4.791c5.12,3.191,9.414,7.485,12.881,12.881
	C69.531,23.064,71.103,28.98,70.774,35.421z M54.241,45.888l-2.127-2.124l-8.339-8.342l8.339-8.339l2.126-2.126l-2.126-2.084
	l-4.213-4.129l-2.086-2.045l-2.04,2.045l-8.345,8.339l-8.339-8.339l-2.105-2.105l-2.101,2.105l-4.132,4.129l-2.104,2.106
	l2.104,2.104l8.338,8.339l-8.338,8.342l-2.105,2.103l2.105,2.106l4.132,4.129l2.102,2.104l2.104-2.104l8.339-8.338l8.345,8.338
	l2.081,2.005l2.045-2.005l4.213-4.129L54.241,45.888z"/>
</svg>
