<svg xmlns="http://www.w3.org/2000/svg" version="1" baseProfile="tiny" x="0" y="0" width="150" height="150" viewBox="0" overflow="visible" xml:space="preserve"><linearGradient id="SVGID_1_" gradientUnits="userSpaceOnUse" x1="14" y1="118" x2="136" y2="32"><stop offset="0" stop-color="#BE1E2D"/><stop offset="1" stop-color="#F04C23"/></linearGradient><path fill="url(#SVGID_1_)" d="M75 0C34 0 0 34 0 75s34 75 75 75c41 0 75-34 75-75S116 0 75 0zM88 121L67 91H38L53 73h19c10 0 16-5 16-13v0c0-8-5-12-13-13l14-17c13 4 20 14 20 29v0c0 15-8 25-20 29l23 34H88z"/></svg>